<?xml version="1.0" encoding="UTF-8" standalone="no"?><!DOCTYPE svg PUBLIC "-//W3C//DTD SVG 1.1//EN" "http://www.w3.org/Graphics/SVG/1.1/DTD/svg11.dtd"><svg width="100%" height="100%" viewBox="0 0 465 91" version="1.1" xmlns="http://www.w3.org/2000/svg" xmlns:xlink="http://www.w3.org/1999/xlink" xml:space="preserve" xmlns:serif="http://www.serif.com/" style="fill-rule:evenodd;clip-rule:evenodd;stroke-linecap:round;stroke-linejoin:round;stroke-miterlimit:1.5;"><g id="arrow"><path d="M382.347,75.35l-17.961,0l-18.938,-22.113l-266.227,-1.185l-0.446,22.042l-62.92,-26.865l63.938,-28.674l-0.572,22.415l264.373,0.732l22.093,-25.737l32.618,0l-16.974,17.989l8.596,0l17.104,-17.989l42.591,0l-29.372,29.706l29.678,29.679l-25.304,0l-20.724,-23.395l-4.525,0l20.924,23.395l-27.357,0l-17.661,-21.168l-9.965,-0.099l17.031,21.267Z" style="fill:none;stroke:#fff;stroke-width:30px;"/><path d="M382.347,75.35l-17.961,0l-18.938,-22.113l-266.227,-1.185l-0.446,22.042l-62.92,-26.865l63.938,-28.674l-0.572,22.415l264.373,0.732l22.093,-25.737l32.618,0l-16.974,17.989l8.596,0l17.104,-17.989l42.591,0l-29.372,29.706l29.678,29.679l-25.304,0l-20.724,-23.395l-4.525,0l20.924,23.395l-27.357,0l-17.661,-21.168l-9.965,-0.099l17.031,21.267Z" style="fill:#fff;stroke:#000;stroke-width:6px;"/><clipPath id="_clip1"><path d="M8.218,40.286l57.701,14.323l-1.051,-9.264l8.825,2.168l369.123,0l40.597,40.597l-499.354,0l24.159,-47.824Z"/></clipPath><g clip-path="url(#_clip1)"><path d="M382.347,75.35l-17.961,0l-18.938,-22.113l-266.227,-1.185l-0.446,22.042l-62.92,-26.865l63.938,-28.674l-0.572,22.415l264.373,0.732l22.093,-25.737l32.618,0l-16.974,17.989l8.596,0l17.104,-17.989l42.591,0l-29.372,29.706l29.678,29.679l-25.304,0l-20.724,-23.395l-4.525,0l20.924,23.395l-27.357,0l-17.661,-21.168l-9.965,-0.099l17.031,21.267Z" style="fill-opacity:0.301961;"/></g></g></svg>