<?xml version="1.0" encoding="UTF-8" standalone="no"?><!DOCTYPE svg PUBLIC "-//W3C//DTD SVG 1.1//EN" "http://www.w3.org/Graphics/SVG/1.1/DTD/svg11.dtd"><svg width="100%" height="100%" viewBox="0 0 326 665" version="1.1" xmlns="http://www.w3.org/2000/svg" xmlns:xlink="http://www.w3.org/1999/xlink" xml:space="preserve" xmlns:serif="http://www.serif.com/" style="fill-rule:evenodd;clip-rule:evenodd;stroke-linecap:round;stroke-linejoin:round;stroke-miterlimit:1.5;"><g id="bow"><path d="M141.589,50.054l149.235,201.078c0,0 17.43,20.506 19.241,47.242c1.892,27.926 -12.924,53.389 -13.277,53.386l-150.689,272.653" style="fill:none;stroke:#fff;stroke-width:30px;"/><path d="M71.998,403.84c17.891,-13.224 17.891,-129.015 0,-142.239c-18.523,-13.691 -53.189,-13.81 -42.352,-103.006c9.469,-77.938 69.315,-64.909 94.081,-77.292c24.765,-12.383 20.124,-50.553 20.124,-50.553c-2.63,-20.373 -10.613,-15.964 -9.316,-9.093c4.488,23.773 -3.583,50.263 -29.406,52.409c-21.117,1.754 -75.447,13.181 -85.68,70.689c-9.336,52.469 -2.087,112.583 21.211,123.151c23.7,10.752 23.7,118.878 0,129.629c-23.298,10.569 -30.547,70.683 -21.211,123.151c10.233,57.509 64.563,68.935 85.68,70.69c25.823,2.145 33.894,28.635 29.406,52.409c-1.297,6.871 6.686,11.279 9.316,-9.093c0,0 4.641,-38.171 -20.124,-50.554c-24.766,-12.382 -84.612,0.647 -94.081,-77.291c-10.837,-89.197 23.829,-89.316 42.352,-103.007Z" style="fill:none;stroke:#fff;stroke-width:30px;"/><path d="M71.998,403.84c17.891,-13.224 17.891,-129.015 0,-142.239c-18.523,-13.691 -53.189,-13.81 -42.352,-103.006c9.469,-77.938 69.315,-64.909 94.081,-77.292c24.765,-12.383 20.124,-50.553 20.124,-50.553c-2.63,-20.373 -10.613,-15.964 -9.316,-9.093c4.488,23.773 -3.583,50.263 -29.406,52.409c-21.117,1.754 -75.447,13.181 -85.68,70.689c-9.336,52.469 -2.087,112.583 21.211,123.151c23.7,10.752 23.7,118.878 0,129.629c-23.298,10.569 -30.547,70.683 -21.211,123.151c10.233,57.509 64.563,68.935 85.68,70.69c25.823,2.145 33.894,28.635 29.406,52.409c-1.297,6.871 6.686,11.279 9.316,-9.093c0,0 4.641,-38.171 -20.124,-50.554c-24.766,-12.382 -84.612,0.647 -94.081,-77.291c-10.837,-89.197 23.829,-89.316 42.352,-103.007Z" style="fill:#fff;stroke:#000;stroke-width:6px;"/><path d="M144.162,53.141l146.662,197.991c0,0 17.43,20.506 19.241,47.242c1.892,27.926 -12.924,53.389 -13.277,53.386l-151.718,272.653" style="fill:none;stroke:#000;stroke-width:6px;"/><clipPath id="_clip1"><path d="M71.998,403.84c17.891,-13.224 17.891,-129.015 0,-142.239c-18.523,-13.691 -53.189,-13.81 -42.352,-103.006c9.469,-77.938 69.315,-64.909 94.081,-77.292c24.765,-12.383 20.124,-50.553 20.124,-50.553c-2.63,-20.373 -10.613,-15.964 -9.316,-9.093c4.488,23.773 -3.583,50.263 -29.406,52.409c-21.117,1.754 -75.447,13.181 -85.68,70.689c-9.336,52.469 -2.087,112.583 21.211,123.151c23.7,10.752 23.7,118.878 0,129.629c-23.298,10.569 -30.547,70.683 -21.211,123.151c10.233,57.509 64.563,68.935 85.68,70.69c25.823,2.145 33.894,28.635 29.406,52.409c-1.297,6.871 6.686,11.279 9.316,-9.093c0,0 4.641,-38.171 -20.124,-50.554c-24.766,-12.382 -84.612,0.647 -94.081,-77.291c-10.837,-89.197 23.829,-89.316 42.352,-103.007Z"/></clipPath><g clip-path="url(#_clip1)"><path d="M56.09,192.569c0,0 -28.297,35.5 -8.232,54.537c20.066,19.036 24.696,58.138 23.153,102.385c-1.544,44.247 -28.298,105.473 -28.298,105.473l95.697,-1.029l-8.747,-184.706l-73.573,-76.66" style="fill-opacity:0.301961;"/></g></g></svg>