<?xml version="1.0" encoding="UTF-8" standalone="no"?><!DOCTYPE svg PUBLIC "-//W3C//DTD SVG 1.1//EN" "http://www.w3.org/Graphics/SVG/1.1/DTD/svg11.dtd"><svg width="100%" height="100%" viewBox="0 0 326 665" version="1.1" xmlns="http://www.w3.org/2000/svg" xmlns:xlink="http://www.w3.org/1999/xlink" xml:space="preserve" xmlns:serif="http://www.serif.com/" style="fill-rule:evenodd;clip-rule:evenodd;stroke-linecap:round;stroke-linejoin:round;stroke-miterlimit:1.5;"><g id="bow"><path d="M141.386,50.054l149.235,201.078c0,0 17.431,20.506 19.242,47.242c1.891,27.926 -12.924,53.389 -13.277,53.386l-150.69,272.653" style="fill:none;stroke:#fff;stroke-width:30px;"/><path d="M71.796,403.84c17.891,-13.224 17.891,-129.015 0,-142.239c-18.524,-13.691 -53.189,-13.81 -42.352,-103.006c9.469,-77.938 69.315,-64.909 94.08,-77.292c24.765,-12.383 20.125,-50.553 20.125,-50.553c-2.631,-20.373 -10.614,-15.964 -9.316,-9.093c4.488,23.773 -3.584,50.263 -29.406,52.409c-21.118,1.754 -75.448,13.181 -85.681,70.689c-9.336,52.469 -2.086,112.583 21.211,123.151c23.701,10.752 23.701,118.878 0,129.629c-23.297,10.569 -30.547,70.683 -21.211,123.151c10.233,57.509 64.563,68.935 85.681,70.69c25.822,2.145 33.894,28.635 29.406,52.409c-1.298,6.871 6.685,11.279 9.316,-9.093c0,0 4.64,-38.171 -20.125,-50.554c-24.765,-12.382 -84.611,0.647 -94.08,-77.291c-10.837,-89.197 23.828,-89.316 42.352,-103.007Z" style="fill:none;stroke:#fff;stroke-width:30px;"/></g></svg>