<?xml version="1.0" encoding="UTF-8" standalone="no"?><!DOCTYPE svg PUBLIC "-//W3C//DTD SVG 1.1//EN" "http://www.w3.org/Graphics/SVG/1.1/DTD/svg11.dtd"><svg width="100%" height="100%" viewBox="0 0 73 51" version="1.1" xmlns="http://www.w3.org/2000/svg" xmlns:xlink="http://www.w3.org/1999/xlink" xml:space="preserve" xmlns:serif="http://www.serif.com/" style="fill-rule:evenodd;clip-rule:evenodd;stroke-linecap:round;stroke-linejoin:round;stroke-miterlimit:1.5;"><g id="chain"><path d="M33.981,15.153c12.858,-0.453 23.681,1.718 23.743,10.983c0.059,8.846 -15.634,9.662 -23.307,9.683c-7.089,0.02 -19.07,-0.424 -19.297,-9.769c-0.226,-9.346 6.004,-10.443 18.861,-10.897Z" style="fill:none;stroke:#fff;stroke-width:30px;"/><path d="M37.261,9.098l0.313,0.001l0.314,0.003l0.313,0.003l0.312,0.005l0.311,0.007l0.311,0.007l0.31,0.009l0.31,0.01l0.309,0.012l0.308,0.013l0.307,0.014l0.307,0.016l0.305,0.017l0.305,0.018l0.304,0.02l0.304,0.022l0.303,0.023l0.301,0.025l0.301,0.026l0.3,0.027l0.299,0.03l0.299,0.031l0.297,0.032l0.297,0.034l0.295,0.036l0.296,0.038l0.293,0.04l0.293,0.041l0.293,0.043l0.291,0.045l0.29,0.047l0.289,0.049l0.288,0.051l0.288,0.053l0.286,0.055l0.285,0.057l0.285,0.059l0.283,0.061l0.283,0.064l0.282,0.066l0.28,0.068l0.279,0.07l0.278,0.073l0.278,0.075l0.277,0.078l0.275,0.081l0.274,0.083l0.273,0.085l0.272,0.089l0.271,0.091l0.27,0.094l0.269,0.098l0.268,0.1l0.267,0.103l0.265,0.106l0.264,0.11l0.263,0.113l0.262,0.116l0.26,0.12l0.259,0.123l0.258,0.127l0.256,0.131l0.255,0.134l0.253,0.139l0.241,0.136l0.137,0.079l0.124,0.074l0.123,0.073l0.125,0.077l0.123,0.077l0.123,0.078l0.122,0.078l0.121,0.08l0.123,0.082l0.121,0.082l0.121,0.084l0.121,0.085l0.117,0.084l0.12,0.087l0.118,0.089l0.117,0.088l0.117,0.091l0.117,0.092l0.117,0.093l0.113,0.092l0.114,0.095l0.116,0.098l0.114,0.098l0.11,0.097l0.111,0.1l0.111,0.101l0.111,0.104l0.109,0.103l0.108,0.105l0.109,0.107l0.104,0.105l0.107,0.11l0.106,0.111l0.103,0.11l0.104,0.113l0.1,0.112l0.102,0.116l0.101,0.117l0.097,0.115l0.099,0.12l0.097,0.12l0.096,0.121l0.092,0.12l0.094,0.124l0.094,0.127l0.091,0.125l0.089,0.127l0.088,0.128l0.087,0.129l0.086,0.129l0.086,0.134l0.082,0.131l0.081,0.133l0.082,0.136l0.078,0.135l0.079,0.138l0.077,0.139l0.074,0.137l0.072,0.138l0.072,0.141l0.071,0.143l0.069,0.143l0.068,0.144l0.066,0.145l0.064,0.146l0.061,0.142l0.061,0.147l0.061,0.151l0.058,0.148l0.056,0.149l0.056,0.153l0.052,0.149l0.051,0.151l0.05,0.15l0.047,0.151l0.048,0.156l0.045,0.156l0.042,0.152l0.043,0.156l0.04,0.157l0.037,0.154l0.037,0.157l0.035,0.158l0.033,0.154l0.032,0.158l0.031,0.163l0.028,0.154l0.027,0.159l0.025,0.163l0.023,0.156l0.022,0.159l0.021,0.163l0.019,0.164l0.017,0.16l0.015,0.156l0.015,0.163l0.012,0.164l0.011,0.16l0.01,0.164l0.007,0.16l0.007,0.164l0.005,0.164l0.003,0.161l0.002,0.171l0,0.179l-0.003,0.189l-0.005,0.186l-0.008,0.185l-0.011,0.186l-0.013,0.186l-0.016,0.187l-0.018,0.187l-0.022,0.186l-0.024,0.183l-0.027,0.183l-0.029,0.183l-0.032,0.183l-0.035,0.182l-0.038,0.183l-0.04,0.182l-0.044,0.182l-0.045,0.177l-0.048,0.177l-0.051,0.177l-0.053,0.176l-0.057,0.175l-0.058,0.175l-0.062,0.174l-0.063,0.169l-0.067,0.172l-0.068,0.167l-0.07,0.167l-0.073,0.166l-0.076,0.164l-0.078,0.163l-0.078,0.159l-0.083,0.161l-0.083,0.156l-0.085,0.155l-0.09,0.157l-0.09,0.152l-0.09,0.148l-0.093,0.149l-0.096,0.148l-0.096,0.144l-0.1,0.145l-0.099,0.14l-0.102,0.14l-0.103,0.137l-0.104,0.136l-0.107,0.135l-0.105,0.13l-0.11,0.131l-0.109,0.127l-0.11,0.125l-0.112,0.125l-0.112,0.122l-0.115,0.121l-0.115,0.12l-0.117,0.117l-0.116,0.115l-0.117,0.112l-0.118,0.111l-0.119,0.11l-0.12,0.108l-0.121,0.107l-0.123,0.105l-0.123,0.104l-0.122,0.101l-0.122,0.099l-0.124,0.098l-0.125,0.096l-0.125,0.096l-0.126,0.093l-0.127,0.093l-0.125,0.09l-0.126,0.088l-0.129,0.089l-0.128,0.086l-0.128,0.085l-0.129,0.083l-0.13,0.083l-0.13,0.081l-0.127,0.078l-0.131,0.079l-0.131,0.078l-0.129,0.074l-0.131,0.075l-0.133,0.074l-0.132,0.073l-0.131,0.071l-0.132,0.069l-0.132,0.069l-0.142,0.072l-0.257,0.128l-0.266,0.128l-0.268,0.125l-0.269,0.121l-0.269,0.116l-0.269,0.113l-0.27,0.11l-0.271,0.106l-0.272,0.103l-0.273,0.1l-0.272,0.097l-0.273,0.094l-0.274,0.091l-0.274,0.088l-0.274,0.085l-0.274,0.083l-0.276,0.081l-0.276,0.078l-0.275,0.075l-0.276,0.073l-0.276,0.071l-0.276,0.068l-0.276,0.067l-0.277,0.064l-0.276,0.062l-0.276,0.06l-0.277,0.058l-0.276,0.057l-0.276,0.054l-0.277,0.053l-0.275,0.051l-0.276,0.049l-0.275,0.047l-0.275,0.046l-0.274,0.044l-0.275,0.043l-0.273,0.041l-0.273,0.039l-0.273,0.038l-0.271,0.037l-0.272,0.035l-0.27,0.034l-0.27,0.032l-0.269,0.031l-0.268,0.03l-0.267,0.029l-0.266,0.027l-0.266,0.027l-0.264,0.025l-0.262,0.024l-0.262,0.023l-0.261,0.021l-0.259,0.021l-0.258,0.02l-0.256,0.018l-0.254,0.018l-0.259,0.017l-0.496,0.031l-0.495,0.027l-0.488,0.024l-0.479,0.021l-0.471,0.018l-0.462,0.015l-0.453,0.013l-0.443,0.011l-0.432,0.008l-0.422,0.007l-0.41,0.004l-0.398,0.003l-0.384,0.002l-0.352,0.001l-0.359,-0.001l-0.369,-0.001l-0.377,-0.003l-0.385,-0.004l-0.393,-0.007l-0.401,-0.008l-0.407,-0.01l-0.414,-0.013l-0.421,-0.016l-0.426,-0.018l-0.432,-0.022l-0.431,-0.025l-0.226,-0.014l-0.222,-0.015l-0.223,-0.016l-0.223,-0.017l-0.225,-0.018l-0.226,-0.02l-0.227,-0.02l-0.228,-0.021l-0.229,-0.023l-0.23,-0.024l-0.23,-0.025l-0.232,-0.026l-0.232,-0.028l-0.234,-0.03l-0.233,-0.03l-0.235,-0.032l-0.235,-0.034l-0.236,-0.035l-0.236,-0.037l-0.237,-0.039l-0.238,-0.04l-0.238,-0.042l-0.239,-0.044l-0.239,-0.046l-0.239,-0.047l-0.24,-0.05l-0.241,-0.051l-0.24,-0.054l-0.242,-0.056l-0.241,-0.058l-0.242,-0.06l-0.241,-0.062l-0.243,-0.065l-0.242,-0.067l-0.243,-0.07l-0.243,-0.073l-0.242,-0.075l-0.243,-0.078l-0.243,-0.081l-0.244,-0.084l-0.243,-0.086l-0.242,-0.09l-0.244,-0.093l-0.243,-0.096l-0.242,-0.1l-0.243,-0.103l-0.243,-0.107l-0.241,-0.11l-0.241,-0.114l-0.241,-0.118l-0.241,-0.123l-0.241,-0.126l-0.239,-0.131l-0.238,-0.134l-0.239,-0.14l-0.236,-0.143l-0.225,-0.142l-0.129,-0.084l-0.116,-0.077l-0.116,-0.078l-0.118,-0.08l-0.115,-0.08l-0.117,-0.083l-0.116,-0.084l-0.113,-0.084l-0.115,-0.087l-0.114,-0.087l-0.114,-0.089l-0.113,-0.09l-0.114,-0.093l-0.111,-0.092l-0.111,-0.093l-0.112,-0.097l-0.111,-0.098l-0.108,-0.097l-0.11,-0.1l-0.109,-0.102l-0.105,-0.101l-0.109,-0.106l-0.106,-0.105l-0.105,-0.107l-0.106,-0.11l-0.103,-0.109l-0.101,-0.11l-0.101,-0.111l-0.102,-0.115l-0.103,-0.119l-0.097,-0.115l-0.098,-0.118l-0.099,-0.123l-0.093,-0.118l-0.095,-0.122l-0.095,-0.126l-0.091,-0.125l-0.091,-0.125l-0.091,-0.13l-0.089,-0.13l-0.088,-0.132l-0.084,-0.13l-0.085,-0.134l-0.083,-0.135l-0.082,-0.135l-0.082,-0.141l-0.079,-0.137l-0.076,-0.139l-0.076,-0.139l-0.075,-0.144l-0.074,-0.145l-0.071,-0.146l-0.069,-0.142l-0.068,-0.147l-0.068,-0.152l-0.063,-0.145l-0.063,-0.149l-0.063,-0.153l-0.059,-0.151l-0.057,-0.151l-0.057,-0.155l-0.055,-0.156l-0.052,-0.152l-0.052,-0.157l-0.049,-0.158l-0.047,-0.157l-0.046,-0.159l-0.044,-0.158l-0.042,-0.163l-0.04,-0.159l-0.038,-0.159l-0.037,-0.16l-0.035,-0.164l-0.033,-0.164l-0.032,-0.164l-0.029,-0.164l-0.027,-0.161l-0.027,-0.169l-0.024,-0.164l-0.022,-0.161l-0.021,-0.169l-0.019,-0.169l-0.017,-0.169l-0.015,-0.165l-0.013,-0.165l-0.012,-0.169l-0.01,-0.169l-0.009,-0.169l-0.006,-0.169l-0.005,-0.17l-0.006,-0.281l-0.002,-0.279l0.001,-0.28l0.004,-0.279l0.007,-0.276l0.011,-0.275l0.013,-0.276l0.018,-0.275l0.021,-0.272l0.024,-0.271l0.028,-0.273l0.032,-0.272l0.036,-0.271l0.04,-0.27l0.044,-0.266l0.048,-0.269l0.053,-0.268l0.057,-0.268l0.061,-0.266l0.066,-0.264l0.07,-0.263l0.072,-0.249l0.044,-0.148l0.041,-0.131l0.041,-0.127l0.043,-0.13l0.046,-0.135l0.045,-0.126l0.047,-0.13l0.05,-0.133l0.049,-0.125l0.049,-0.124l0.054,-0.132l0.054,-0.128l0.053,-0.123l0.058,-0.131l0.058,-0.126l0.057,-0.121l0.061,-0.125l0.063,-0.129l0.064,-0.124l0.062,-0.12l0.066,-0.122l0.067,-0.122l0.068,-0.122l0.07,-0.12l0.071,-0.12l0.072,-0.119l0.071,-0.115l0.077,-0.122l0.076,-0.116l0.075,-0.112l0.081,-0.119l0.08,-0.114l0.079,-0.11l0.082,-0.112l0.086,-0.115l0.085,-0.11l0.083,-0.106l0.087,-0.109l0.088,-0.107l0.089,-0.106l0.09,-0.105l0.091,-0.104l0.092,-0.103l0.094,-0.102l0.094,-0.101l0.095,-0.099l0.096,-0.098l0.097,-0.098l0.097,-0.096l0.099,-0.094l0.1,-0.094l0.097,-0.09l0.101,-0.091l0.105,-0.093l0.103,-0.088l0.1,-0.085l0.104,-0.087l0.119,-0.096l0.198,-0.157l0.214,-0.161l0.215,-0.157l0.217,-0.151l0.22,-0.148l0.222,-0.142l0.221,-0.137l0.224,-0.134l0.226,-0.128l0.227,-0.125l0.228,-0.121l0.228,-0.115l0.23,-0.112l0.23,-0.108l0.232,-0.105l0.232,-0.1l0.233,-0.097l0.234,-0.094l0.235,-0.09l0.233,-0.087l0.236,-0.083l0.236,-0.081l0.237,-0.078l0.238,-0.075l0.238,-0.072l0.238,-0.07l0.24,-0.067l0.24,-0.065l0.241,-0.062l0.241,-0.06l0.242,-0.058l0.243,-0.055l0.244,-0.054l0.245,-0.052l0.245,-0.05l0.247,-0.048l0.247,-0.046l0.248,-0.044l0.249,-0.043l0.251,-0.041l0.251,-0.04l0.253,-0.039l0.253,-0.037l0.255,-0.035l0.256,-0.034l0.257,-0.033l0.259,-0.032l0.259,-0.031l0.261,-0.029l0.263,-0.028l0.263,-0.027l0.265,-0.027l0.267,-0.025l0.268,-0.024l0.269,-0.024l0.271,-0.022l0.272,-0.022l0.274,-0.021l0.275,-0.02l0.277,-0.019l0.283,-0.019l0.558,-0.035l0.569,-0.033l0.575,-0.03l0.583,-0.029l0.59,-0.026l0.597,-0.025l0.604,-0.024l0.613,-0.022l0.319,-0.011l0.319,-0.009l0.319,-0.009l0.318,-0.008l0.318,-0.006l0.318,-0.006l0.316,-0.004l0.317,-0.004l0.316,-0.002l0.315,-0.001l0.315,0.001Zm-0.601,6l-0.294,0.002l-0.295,0.003l-0.296,0.004l-0.297,0.006l-0.298,0.006l-0.298,0.007l-0.3,0.008l-0.3,0.009l-0.301,0.01l-0.598,0.022l-0.588,0.023l-0.578,0.024l-0.569,0.026l-0.559,0.027l-0.549,0.029l-0.54,0.031l-0.53,0.033l-0.261,0.018l-0.259,0.018l-0.257,0.019l-0.254,0.019l-0.252,0.02l-0.249,0.021l-0.247,0.021l-0.244,0.022l-0.242,0.023l-0.24,0.024l-0.237,0.025l-0.235,0.025l-0.232,0.026l-0.23,0.027l-0.228,0.028l-0.225,0.029l-0.223,0.03l-0.22,0.03l-0.218,0.032l-0.215,0.033l-0.214,0.034l-0.21,0.034l-0.208,0.036l-0.206,0.037l-0.204,0.038l-0.201,0.039l-0.198,0.041l-0.197,0.041l-0.194,0.043l-0.191,0.044l-0.189,0.045l-0.187,0.046l-0.184,0.048l-0.182,0.049l-0.179,0.05l-0.177,0.052l-0.175,0.053l-0.172,0.054l-0.17,0.056l-0.167,0.057l-0.165,0.059l-0.163,0.06l-0.16,0.062l-0.158,0.063l-0.155,0.064l-0.153,0.067l-0.151,0.068l-0.148,0.069l-0.146,0.071l-0.143,0.073l-0.141,0.074l-0.139,0.076l-0.136,0.078l-0.134,0.08l-0.131,0.081l-0.129,0.083l-0.127,0.085l-0.124,0.087l-0.122,0.088l-0.12,0.091l-0.117,0.092l-0.058,0.047l-0.057,0.047l-0.056,0.048l-0.056,0.049l-0.055,0.048l-0.055,0.05l-0.054,0.05l-0.053,0.05l-0.053,0.051l-0.053,0.051l-0.051,0.052l-0.051,0.052l-0.051,0.053l-0.05,0.053l-0.049,0.054l-0.049,0.055l-0.048,0.054l-0.047,0.056l-0.047,0.056l-0.047,0.056l-0.045,0.057l-0.046,0.058l-0.044,0.058l-0.044,0.059l-0.043,0.059l-0.043,0.059l-0.042,0.061l-0.042,0.06l-0.041,0.062l-0.04,0.062l-0.04,0.062l-0.039,0.063l-0.039,0.064l-0.038,0.064l-0.037,0.065l-0.037,0.065l-0.036,0.066l-0.036,0.066l-0.035,0.068l-0.034,0.067l-0.034,0.068l-0.033,0.069l-0.033,0.07l-0.032,0.07l-0.031,0.07l-0.031,0.071l-0.03,0.072l-0.03,0.073l-0.029,0.073l-0.028,0.073l-0.028,0.074l-0.027,0.075l-0.027,0.076l-0.026,0.076l-0.026,0.077l-0.025,0.077l-0.024,0.078l-0.024,0.078l-0.045,0.16l-0.044,0.161l-0.04,0.165l-0.039,0.166l-0.036,0.17l-0.034,0.172l-0.031,0.175l-0.029,0.177l-0.027,0.181l-0.024,0.183l-0.022,0.185l-0.02,0.189l-0.017,0.191l-0.015,0.194l-0.012,0.197l-0.01,0.2l-0.008,0.203l-0.005,0.206l-0.003,0.208l-0.001,0.212l0.002,0.214l0.004,0.218l0.003,0.109l0.005,0.108l0.005,0.108l0.006,0.106l0.008,0.106l0.008,0.105l0.01,0.105l0.01,0.103l0.012,0.103l0.013,0.102l0.013,0.101l0.015,0.1l0.015,0.1l0.017,0.099l0.018,0.098l0.018,0.097l0.02,0.096l0.02,0.096l0.022,0.095l0.023,0.094l0.023,0.094l0.024,0.092l0.026,0.092l0.026,0.092l0.027,0.09l0.028,0.09l0.03,0.089l0.03,0.088l0.03,0.087l0.032,0.087l0.033,0.086l0.034,0.086l0.034,0.084l0.035,0.084l0.037,0.083l0.037,0.083l0.038,0.082l0.039,0.081l0.039,0.08l0.041,0.08l0.041,0.079l0.042,0.078l0.043,0.078l0.044,0.077l0.045,0.076l0.045,0.075l0.047,0.075l0.047,0.074l0.047,0.074l0.049,0.073l0.049,0.072l0.051,0.072l0.051,0.07l0.051,0.071l0.053,0.069l0.053,0.069l0.054,0.069l0.055,0.067l0.055,0.067l0.056,0.067l0.057,0.065l0.058,0.065l0.058,0.065l0.059,0.064l0.06,0.063l0.06,0.063l0.061,0.062l0.062,0.061l0.062,0.061l0.063,0.06l0.064,0.059l0.064,0.059l0.065,0.059l0.066,0.057l0.066,0.058l0.067,0.056l0.068,0.056l0.068,0.056l0.069,0.054l0.069,0.055l0.07,0.053l0.071,0.054l0.071,0.052l0.072,0.052l0.072,0.051l0.073,0.051l0.073,0.051l0.074,0.049l0.075,0.05l0.075,0.048l0.152,0.096l0.154,0.094l0.156,0.091l0.158,0.089l0.16,0.088l0.162,0.085l0.164,0.083l0.166,0.081l0.167,0.079l0.169,0.077l0.171,0.076l0.173,0.073l0.174,0.072l0.175,0.069l0.178,0.068l0.178,0.066l0.18,0.064l0.181,0.063l0.183,0.06l0.184,0.059l0.185,0.058l0.186,0.055l0.188,0.054l0.188,0.053l0.19,0.05l0.19,0.05l0.191,0.047l0.193,0.046l0.193,0.045l0.193,0.043l0.195,0.042l0.195,0.04l0.196,0.039l0.197,0.038l0.197,0.036l0.197,0.035l0.198,0.033l0.199,0.032l0.198,0.031l0.199,0.03l0.2,0.029l0.199,0.027l0.2,0.026l0.199,0.025l0.2,0.024l0.2,0.023l0.2,0.022l0.2,0.021l0.199,0.019l0.2,0.019l0.199,0.018l0.199,0.017l0.199,0.016l0.198,0.015l0.198,0.014l0.197,0.013l0.197,0.013l0.392,0.023l0.39,0.019l0.386,0.017l0.383,0.014l0.38,0.012l0.375,0.01l0.371,0.007l0.366,0.006l0.361,0.004l0.355,0.003l0.349,0.001l0.343,0.001l0.335,-0.001l0.366,-0.002l0.376,-0.002l0.388,-0.005l0.397,-0.006l0.407,-0.008l0.416,-0.01l0.425,-0.012l0.432,-0.014l0.44,-0.017l0.447,-0.02l0.453,-0.022l0.459,-0.025l0.463,-0.029l0.234,-0.015l0.235,-0.017l0.236,-0.017l0.237,-0.018l0.238,-0.019l0.238,-0.02l0.24,-0.021l0.24,-0.021l0.24,-0.023l0.242,-0.024l0.241,-0.025l0.243,-0.026l0.242,-0.027l0.243,-0.028l0.243,-0.03l0.243,-0.03l0.243,-0.031l0.243,-0.033l0.244,-0.034l0.243,-0.035l0.243,-0.037l0.242,-0.037l0.242,-0.039l0.242,-0.041l0.242,-0.041l0.241,-0.043l0.24,-0.044l0.24,-0.046l0.238,-0.047l0.239,-0.049l0.237,-0.05l0.236,-0.051l0.235,-0.053l0.235,-0.055l0.233,-0.056l0.231,-0.057l0.231,-0.059l0.229,-0.061l0.228,-0.062l0.226,-0.064l0.225,-0.066l0.223,-0.067l0.222,-0.069l0.219,-0.071l0.218,-0.072l0.216,-0.075l0.214,-0.076l0.212,-0.077l0.21,-0.08l0.208,-0.081l0.205,-0.084l0.203,-0.085l0.201,-0.087l0.199,-0.089l0.196,-0.091l0.193,-0.093l0.191,-0.095l0.094,-0.048l0.094,-0.049l0.093,-0.049l0.092,-0.05l0.091,-0.05l0.091,-0.051l0.09,-0.051l0.09,-0.052l0.088,-0.052l0.088,-0.053l0.087,-0.054l0.086,-0.054l0.086,-0.054l0.085,-0.055l0.084,-0.056l0.083,-0.056l0.082,-0.056l0.082,-0.058l0.08,-0.057l0.08,-0.058l0.079,-0.059l0.078,-0.06l0.078,-0.06l0.076,-0.06l0.076,-0.061l0.074,-0.062l0.074,-0.062l0.073,-0.063l0.072,-0.063l0.071,-0.064l0.07,-0.065l0.069,-0.065l0.068,-0.065l0.067,-0.067l0.067,-0.066l0.065,-0.068l0.064,-0.068l0.063,-0.068l0.063,-0.07l0.061,-0.07l0.06,-0.07l0.06,-0.071l0.058,-0.072l0.057,-0.072l0.056,-0.073l0.055,-0.073l0.054,-0.075l0.053,-0.074l0.052,-0.076l0.051,-0.076l0.049,-0.076l0.049,-0.078l0.047,-0.078l0.047,-0.078l0.045,-0.079l0.044,-0.08l0.043,-0.081l0.041,-0.081l0.041,-0.082l0.039,-0.082l0.038,-0.083l0.037,-0.084l0.036,-0.084l0.034,-0.085l0.034,-0.086l0.032,-0.087l0.031,-0.087l0.029,-0.087l0.029,-0.089l0.027,-0.089l0.026,-0.09l0.024,-0.09l0.023,-0.092l0.022,-0.091l0.021,-0.093l0.019,-0.093l0.018,-0.094l0.017,-0.095l0.015,-0.095l0.014,-0.096l0.013,-0.097l0.011,-0.098l0.01,-0.098l0.008,-0.099l0.008,-0.1l0.005,-0.1l0.005,-0.101l0.002,-0.102l0.002,-0.102l0,-0.104l-0.001,-0.108l-0.002,-0.108l-0.004,-0.107l-0.004,-0.106l-0.005,-0.106l-0.006,-0.105l-0.007,-0.104l-0.008,-0.104l-0.009,-0.103l-0.01,-0.102l-0.011,-0.102l-0.012,-0.101l-0.013,-0.101l-0.013,-0.1l-0.015,-0.099l-0.016,-0.099l-0.016,-0.098l-0.018,-0.098l-0.018,-0.096l-0.019,-0.097l-0.021,-0.095l-0.021,-0.095l-0.022,-0.095l-0.023,-0.093l-0.024,-0.093l-0.025,-0.093l-0.026,-0.092l-0.026,-0.091l-0.028,-0.091l-0.028,-0.09l-0.029,-0.09l-0.031,-0.088l-0.031,-0.089l-0.032,-0.087l-0.033,-0.088l-0.033,-0.086l-0.035,-0.086l-0.035,-0.085l-0.037,-0.085l-0.037,-0.084l-0.038,-0.084l-0.039,-0.083l-0.04,-0.082l-0.04,-0.082l-0.042,-0.081l-0.042,-0.081l-0.043,-0.08l-0.044,-0.08l-0.045,-0.079l-0.046,-0.078l-0.046,-0.078l-0.048,-0.077l-0.048,-0.077l-0.049,-0.076l-0.05,-0.075l-0.05,-0.075l-0.052,-0.075l-0.052,-0.074l-0.053,-0.073l-0.054,-0.073l-0.054,-0.072l-0.056,-0.072l-0.056,-0.071l-0.057,-0.07l-0.058,-0.07l-0.058,-0.07l-0.06,-0.069l-0.06,-0.068l-0.061,-0.068l-0.061,-0.067l-0.063,-0.067l-0.063,-0.066l-0.064,-0.066l-0.064,-0.065l-0.066,-0.065l-0.066,-0.064l-0.067,-0.063l-0.068,-0.063l-0.068,-0.063l-0.069,-0.062l-0.07,-0.061l-0.071,-0.061l-0.071,-0.061l-0.073,-0.06l-0.072,-0.059l-0.074,-0.059l-0.074,-0.058l-0.075,-0.058l-0.076,-0.058l-0.076,-0.056l-0.077,-0.057l-0.078,-0.056l-0.079,-0.055l-0.079,-0.055l-0.08,-0.054l-0.08,-0.054l-0.082,-0.053l-0.082,-0.053l-0.082,-0.052l-0.084,-0.052l-0.084,-0.052l-0.084,-0.051l-0.085,-0.05l-0.086,-0.05l-0.174,-0.098l-0.177,-0.097l-0.179,-0.094l-0.182,-0.093l-0.184,-0.091l-0.187,-0.089l-0.189,-0.087l-0.192,-0.085l-0.194,-0.083l-0.197,-0.082l-0.199,-0.08l-0.201,-0.078l-0.204,-0.076l-0.206,-0.074l-0.208,-0.073l-0.211,-0.071l-0.212,-0.069l-0.215,-0.067l-0.218,-0.066l-0.219,-0.064l-0.222,-0.063l-0.223,-0.06l-0.226,-0.06l-0.228,-0.057l-0.23,-0.056l-0.232,-0.054l-0.234,-0.053l-0.235,-0.051l-0.238,-0.049l-0.24,-0.048l-0.241,-0.046l-0.244,-0.045l-0.245,-0.043l-0.247,-0.042l-0.249,-0.04l-0.251,-0.039l-0.252,-0.038l-0.255,-0.035l-0.255,-0.035l-0.258,-0.033l-0.259,-0.031l-0.261,-0.031l-0.262,-0.028l-0.264,-0.028l-0.266,-0.026l-0.267,-0.024l-0.268,-0.024l-0.27,-0.022l-0.272,-0.02l-0.273,-0.019l-0.274,-0.019l-0.275,-0.016l-0.277,-0.016l-0.279,-0.014l-0.279,-0.013l-0.281,-0.012l-0.282,-0.01l-0.283,-0.01l-0.285,-0.008l-0.285,-0.007l-0.287,-0.006l-0.288,-0.004l-0.289,-0.004l-0.29,-0.002l-0.291,-0.001l-0.293,-0.001l-0.293,0.001Z"/><path d="M37.252,12.441l0.301,0.002l0.301,0.002l0.299,0.004l0.299,0.005l0.298,0.006l0.297,0.007l0.295,0.008l0.295,0.01l0.294,0.011l0.293,0.012l0.292,0.014l0.291,0.015l0.289,0.016l0.289,0.018l0.287,0.018l0.287,0.021l0.285,0.021l0.284,0.024l0.283,0.024l0.282,0.026l0.28,0.028l0.279,0.028l0.278,0.031l0.277,0.032l0.275,0.033l0.274,0.036l0.273,0.036l0.271,0.038l0.27,0.04l0.269,0.042l0.267,0.043l0.266,0.045l0.264,0.047l0.263,0.048l0.262,0.05l0.259,0.052l0.259,0.054l0.257,0.055l0.255,0.058l0.254,0.059l0.252,0.062l0.251,0.063l0.249,0.065l0.248,0.067l0.245,0.069l0.245,0.072l0.242,0.073l0.241,0.076l0.239,0.077l0.237,0.08l0.236,0.083l0.234,0.084l0.232,0.087l0.23,0.089l0.228,0.092l0.227,0.093l0.225,0.097l0.222,0.099l0.221,0.101l0.219,0.104l0.217,0.107l0.214,0.11l0.213,0.112l0.21,0.115l0.204,0.115l0.108,0.063l0.103,0.061l0.101,0.061l0.103,0.062l0.101,0.063l0.1,0.064l0.1,0.064l0.099,0.065l0.099,0.066l0.098,0.067l0.098,0.068l0.097,0.068l0.095,0.068l0.096,0.071l0.095,0.071l0.094,0.07l0.094,0.073l0.093,0.073l0.092,0.074l0.091,0.074l0.091,0.076l0.091,0.077l0.09,0.077l0.087,0.077l0.088,0.079l0.087,0.079l0.088,0.082l0.085,0.081l0.085,0.082l0.084,0.083l0.082,0.083l0.084,0.085l0.082,0.086l0.08,0.086l0.08,0.088l0.079,0.087l0.079,0.09l0.077,0.09l0.076,0.09l0.076,0.092l0.074,0.092l0.074,0.093l0.072,0.093l0.072,0.095l0.072,0.097l0.069,0.097l0.069,0.097l0.068,0.098l0.066,0.099l0.066,0.099l0.065,0.102l0.064,0.101l0.062,0.101l0.062,0.104l0.06,0.103l0.06,0.106l0.058,0.106l0.057,0.105l0.056,0.106l0.055,0.108l0.054,0.109l0.053,0.109l0.051,0.11l0.051,0.111l0.049,0.111l0.047,0.11l0.047,0.113l0.046,0.115l0.045,0.113l0.043,0.115l0.042,0.116l0.041,0.116l0.039,0.116l0.038,0.116l0.037,0.118l0.037,0.119l0.035,0.12l0.033,0.118l0.032,0.121l0.031,0.122l0.03,0.12l0.029,0.122l0.027,0.123l0.026,0.121l0.025,0.124l0.024,0.126l0.022,0.123l0.021,0.125l0.02,0.127l0.018,0.124l0.018,0.126l0.016,0.129l0.015,0.128l0.014,0.128l0.012,0.126l0.011,0.13l0.01,0.13l0.009,0.129l0.008,0.132l0.006,0.129l0.005,0.132l0.004,0.132l0.003,0.131l0.001,0.137l0,0.136l-0.002,0.141l-0.004,0.139l-0.006,0.139l-0.008,0.138l-0.009,0.138l-0.012,0.138l-0.014,0.137l-0.016,0.137l-0.018,0.135l-0.019,0.134l-0.022,0.135l-0.023,0.133l-0.026,0.133l-0.027,0.133l-0.03,0.132l-0.031,0.132l-0.033,0.129l-0.035,0.129l-0.037,0.128l-0.039,0.128l-0.04,0.127l-0.043,0.126l-0.044,0.126l-0.046,0.123l-0.048,0.124l-0.05,0.121l-0.051,0.121l-0.053,0.12l-0.054,0.119l-0.057,0.118l-0.057,0.116l-0.06,0.117l-0.061,0.114l-0.062,0.113l-0.065,0.113l-0.065,0.112l-0.066,0.108l-0.069,0.11l-0.07,0.108l-0.071,0.106l-0.073,0.106l-0.073,0.104l-0.075,0.103l-0.077,0.102l-0.077,0.1l-0.079,0.1l-0.079,0.098l-0.082,0.098l-0.082,0.095l-0.082,0.095l-0.085,0.093l-0.085,0.093l-0.086,0.091l-0.088,0.09l-0.089,0.09l-0.088,0.087l-0.09,0.087l-0.091,0.085l-0.092,0.085l-0.092,0.083l-0.094,0.083l-0.095,0.082l-0.095,0.08l-0.096,0.079l-0.096,0.078l-0.098,0.077l-0.098,0.076l-0.099,0.075l-0.1,0.075l-0.1,0.073l-0.101,0.072l-0.101,0.071l-0.103,0.071l-0.103,0.069l-0.103,0.069l-0.105,0.067l-0.105,0.067l-0.106,0.066l-0.104,0.065l-0.107,0.064l-0.108,0.064l-0.107,0.061l-0.108,0.062l-0.11,0.061l-0.109,0.06l-0.11,0.059l-0.109,0.059l-0.111,0.057l-0.115,0.059l-0.22,0.11l-0.226,0.108l-0.228,0.106l-0.229,0.103l-0.232,0.1l-0.232,0.098l-0.234,0.095l-0.236,0.092l-0.237,0.09l-0.239,0.088l-0.24,0.085l-0.241,0.083l-0.243,0.081l-0.243,0.078l-0.245,0.076l-0.246,0.075l-0.247,0.072l-0.248,0.07l-0.249,0.068l-0.25,0.066l-0.251,0.064l-0.251,0.063l-0.253,0.06l-0.252,0.059l-0.254,0.057l-0.254,0.056l-0.254,0.053l-0.255,0.052l-0.256,0.051l-0.256,0.048l-0.256,0.048l-0.256,0.045l-0.256,0.044l-0.257,0.043l-0.256,0.041l-0.257,0.04l-0.256,0.039l-0.257,0.037l-0.256,0.035l-0.256,0.035l-0.255,0.033l-0.256,0.032l-0.255,0.031l-0.254,0.029l-0.254,0.028l-0.253,0.028l-0.252,0.026l-0.252,0.024l-0.251,0.024l-0.25,0.023l-0.25,0.022l-0.248,0.021l-0.247,0.019l-0.246,0.019l-0.245,0.018l-0.244,0.017l-0.244,0.016l-0.479,0.029l-0.475,0.027l-0.468,0.023l-0.461,0.02l-0.454,0.017l-0.445,0.015l-0.437,0.013l-0.428,0.01l-0.419,0.008l-0.408,0.006l-0.397,0.005l-0.386,0.003l-0.374,0.001l-0.343,0.001l-0.35,0l-0.357,-0.002l-0.365,-0.003l-0.372,-0.004l-0.378,-0.006l-0.384,-0.008l-0.389,-0.01l-0.395,-0.012l-0.4,-0.015l-0.404,-0.017l-0.408,-0.021l-0.41,-0.024l-0.21,-0.013l-0.208,-0.014l-0.209,-0.015l-0.209,-0.016l-0.21,-0.017l-0.211,-0.018l-0.212,-0.019l-0.212,-0.02l-0.213,-0.021l-0.212,-0.022l-0.214,-0.023l-0.214,-0.025l-0.214,-0.025l-0.215,-0.027l-0.214,-0.028l-0.215,-0.03l-0.215,-0.031l-0.216,-0.032l-0.215,-0.033l-0.216,-0.035l-0.215,-0.037l-0.216,-0.038l-0.215,-0.04l-0.216,-0.041l-0.215,-0.042l-0.215,-0.045l-0.215,-0.046l-0.214,-0.048l-0.215,-0.049l-0.214,-0.052l-0.213,-0.053l-0.213,-0.055l-0.213,-0.057l-0.212,-0.059l-0.213,-0.061l-0.211,-0.063l-0.21,-0.065l-0.21,-0.068l-0.21,-0.069l-0.209,-0.072l-0.207,-0.074l-0.207,-0.077l-0.207,-0.079l-0.205,-0.081l-0.205,-0.084l-0.203,-0.087l-0.203,-0.089l-0.201,-0.092l-0.2,-0.094l-0.199,-0.098l-0.198,-0.1l-0.197,-0.104l-0.195,-0.106l-0.194,-0.11l-0.192,-0.112l-0.191,-0.116l-0.184,-0.116l-0.099,-0.064l-0.093,-0.062l-0.093,-0.062l-0.093,-0.064l-0.091,-0.064l-0.092,-0.065l-0.091,-0.066l-0.09,-0.067l-0.09,-0.067l-0.09,-0.069l-0.089,-0.07l-0.088,-0.07l-0.089,-0.072l-0.087,-0.072l-0.086,-0.073l-0.087,-0.075l-0.086,-0.075l-0.083,-0.076l-0.085,-0.077l-0.084,-0.078l-0.082,-0.078l-0.083,-0.081l-0.081,-0.081l-0.08,-0.082l-0.081,-0.083l-0.079,-0.084l-0.077,-0.084l-0.078,-0.085l-0.077,-0.087l-0.077,-0.089l-0.074,-0.088l-0.075,-0.09l-0.074,-0.092l-0.071,-0.091l-0.072,-0.092l-0.071,-0.095l-0.069,-0.094l-0.069,-0.095l-0.068,-0.097l-0.067,-0.098l-0.066,-0.099l-0.064,-0.099l-0.064,-0.1l-0.062,-0.102l-0.062,-0.102l-0.061,-0.104l-0.059,-0.104l-0.058,-0.105l-0.057,-0.105l-0.057,-0.108l-0.055,-0.108l-0.054,-0.11l-0.052,-0.108l-0.051,-0.111l-0.051,-0.113l-0.048,-0.11l-0.048,-0.113l-0.046,-0.115l-0.045,-0.114l-0.044,-0.115l-0.043,-0.117l-0.042,-0.118l-0.039,-0.117l-0.039,-0.119l-0.038,-0.119l-0.036,-0.121l-0.035,-0.12l-0.033,-0.122l-0.033,-0.124l-0.03,-0.122l-0.03,-0.123l-0.028,-0.124l-0.027,-0.126l-0.026,-0.126l-0.024,-0.127l-0.023,-0.127l-0.021,-0.126l-0.021,-0.131l-0.018,-0.128l-0.018,-0.128l-0.016,-0.132l-0.015,-0.132l-0.013,-0.132l-0.012,-0.131l-0.011,-0.132l-0.009,-0.134l-0.008,-0.134l-0.007,-0.135l-0.005,-0.135l-0.004,-0.136l-0.005,-0.246l-0.002,-0.243l0.001,-0.242l0.003,-0.239l0.006,-0.237l0.009,-0.235l0.012,-0.233l0.015,-0.232l0.017,-0.228l0.02,-0.227l0.024,-0.226l0.026,-0.224l0.03,-0.222l0.032,-0.22l0.036,-0.216l0.038,-0.217l0.043,-0.215l0.045,-0.213l0.049,-0.211l0.052,-0.208l0.055,-0.206l0.057,-0.199l0.033,-0.11l0.031,-0.101l0.032,-0.099l0.034,-0.101l0.035,-0.102l0.034,-0.098l0.036,-0.099l0.038,-0.1l0.037,-0.096l0.038,-0.096l0.041,-0.099l0.041,-0.097l0.04,-0.094l0.044,-0.097l0.043,-0.095l0.044,-0.092l0.045,-0.094l0.047,-0.095l0.047,-0.093l0.047,-0.09l0.049,-0.091l0.05,-0.091l0.051,-0.09l0.051,-0.089l0.053,-0.089l0.053,-0.089l0.054,-0.086l0.056,-0.088l0.056,-0.086l0.056,-0.084l0.059,-0.087l0.059,-0.084l0.059,-0.082l0.06,-0.082l0.063,-0.084l0.062,-0.081l0.062,-0.079l0.064,-0.08l0.065,-0.079l0.065,-0.078l0.067,-0.077l0.067,-0.077l0.068,-0.076l0.069,-0.075l0.069,-0.074l0.07,-0.074l0.071,-0.072l0.072,-0.072l0.073,-0.071l0.073,-0.071l0.074,-0.069l0.073,-0.068l0.075,-0.067l0.077,-0.069l0.077,-0.066l0.076,-0.064l0.078,-0.065l0.084,-0.069l0.153,-0.12l0.161,-0.122l0.164,-0.119l0.165,-0.115l0.168,-0.113l0.17,-0.109l0.171,-0.106l0.174,-0.104l0.176,-0.1l0.178,-0.098l0.18,-0.094l0.18,-0.092l0.183,-0.089l0.185,-0.087l0.186,-0.084l0.188,-0.081l0.19,-0.079l0.192,-0.077l0.193,-0.074l0.194,-0.072l0.196,-0.07l0.198,-0.068l0.199,-0.065l0.202,-0.064l0.203,-0.061l0.204,-0.06l0.206,-0.058l0.207,-0.056l0.209,-0.054l0.211,-0.052l0.213,-0.051l0.214,-0.049l0.216,-0.047l0.218,-0.046l0.219,-0.045l0.221,-0.043l0.223,-0.042l0.225,-0.04l0.226,-0.039l0.228,-0.038l0.231,-0.036l0.232,-0.035l0.233,-0.034l0.236,-0.033l0.237,-0.032l0.239,-0.03l0.242,-0.03l0.243,-0.029l0.245,-0.027l0.247,-0.027l0.249,-0.026l0.251,-0.025l0.252,-0.023l0.255,-0.024l0.257,-0.022l0.259,-0.021l0.261,-0.021l0.263,-0.02l0.265,-0.02l0.266,-0.018l0.271,-0.018l0.543,-0.034l0.552,-0.032l0.561,-0.03l0.57,-0.028l0.578,-0.026l0.586,-0.024l0.596,-0.023l0.604,-0.022l0.309,-0.011l0.309,-0.009l0.308,-0.008l0.307,-0.008l0.307,-0.006l0.306,-0.005l0.305,-0.005l0.304,-0.003l0.304,-0.002l0.303,-0.001l0.302,0Zm-0.592,2.657l-0.294,0.002l-0.295,0.003l-0.296,0.004l-0.297,0.006l-0.298,0.006l-0.298,0.007l-0.3,0.008l-0.3,0.009l-0.301,0.01l-0.598,0.022l-0.588,0.023l-0.578,0.024l-0.569,0.026l-0.559,0.027l-0.549,0.029l-0.54,0.031l-0.53,0.033l-0.261,0.018l-0.259,0.018l-0.257,0.019l-0.254,0.019l-0.252,0.02l-0.249,0.021l-0.247,0.021l-0.244,0.022l-0.242,0.023l-0.24,0.024l-0.237,0.025l-0.235,0.025l-0.232,0.026l-0.23,0.027l-0.228,0.028l-0.225,0.029l-0.223,0.03l-0.22,0.03l-0.218,0.032l-0.215,0.033l-0.214,0.034l-0.21,0.034l-0.208,0.036l-0.206,0.037l-0.204,0.038l-0.201,0.039l-0.198,0.041l-0.197,0.041l-0.194,0.043l-0.191,0.044l-0.189,0.045l-0.187,0.046l-0.184,0.048l-0.182,0.049l-0.179,0.05l-0.177,0.052l-0.175,0.053l-0.172,0.054l-0.17,0.056l-0.167,0.057l-0.165,0.059l-0.163,0.06l-0.16,0.062l-0.158,0.063l-0.155,0.064l-0.153,0.067l-0.151,0.068l-0.148,0.069l-0.146,0.071l-0.143,0.073l-0.141,0.074l-0.139,0.076l-0.136,0.078l-0.134,0.08l-0.131,0.081l-0.129,0.083l-0.127,0.085l-0.124,0.087l-0.122,0.088l-0.12,0.091l-0.117,0.092l-0.058,0.047l-0.057,0.047l-0.056,0.048l-0.056,0.049l-0.055,0.048l-0.055,0.05l-0.054,0.05l-0.053,0.05l-0.053,0.051l-0.053,0.051l-0.051,0.052l-0.051,0.052l-0.051,0.053l-0.05,0.053l-0.049,0.054l-0.049,0.055l-0.048,0.054l-0.047,0.056l-0.047,0.056l-0.047,0.056l-0.045,0.057l-0.046,0.058l-0.044,0.058l-0.044,0.059l-0.043,0.059l-0.043,0.059l-0.042,0.061l-0.042,0.06l-0.041,0.062l-0.04,0.062l-0.04,0.062l-0.039,0.063l-0.039,0.064l-0.038,0.064l-0.037,0.065l-0.037,0.065l-0.036,0.066l-0.036,0.066l-0.035,0.068l-0.034,0.067l-0.034,0.068l-0.033,0.069l-0.033,0.07l-0.032,0.07l-0.031,0.07l-0.031,0.071l-0.03,0.072l-0.03,0.073l-0.029,0.073l-0.028,0.073l-0.028,0.074l-0.027,0.075l-0.027,0.076l-0.026,0.076l-0.026,0.077l-0.025,0.077l-0.024,0.078l-0.024,0.078l-0.045,0.16l-0.044,0.161l-0.04,0.165l-0.039,0.166l-0.036,0.17l-0.034,0.172l-0.031,0.175l-0.029,0.177l-0.027,0.181l-0.024,0.183l-0.022,0.185l-0.02,0.189l-0.017,0.191l-0.015,0.194l-0.012,0.197l-0.01,0.2l-0.008,0.203l-0.005,0.206l-0.003,0.208l-0.001,0.212l0.002,0.214l0.004,0.218l0.003,0.109l0.005,0.108l0.005,0.108l0.006,0.106l0.008,0.106l0.008,0.105l0.01,0.105l0.01,0.103l0.012,0.103l0.013,0.102l0.013,0.101l0.015,0.1l0.015,0.1l0.017,0.099l0.018,0.098l0.018,0.097l0.02,0.096l0.02,0.096l0.022,0.095l0.023,0.094l0.023,0.094l0.024,0.092l0.026,0.092l0.026,0.092l0.027,0.09l0.028,0.09l0.03,0.089l0.03,0.088l0.03,0.087l0.032,0.087l0.033,0.086l0.034,0.086l0.034,0.084l0.035,0.084l0.037,0.083l0.037,0.083l0.038,0.082l0.039,0.081l0.039,0.08l0.041,0.08l0.041,0.079l0.042,0.078l0.043,0.078l0.044,0.077l0.045,0.076l0.045,0.075l0.047,0.075l0.047,0.074l0.047,0.074l0.049,0.073l0.049,0.072l0.051,0.072l0.051,0.07l0.051,0.071l0.053,0.069l0.053,0.069l0.054,0.069l0.055,0.067l0.055,0.067l0.056,0.067l0.057,0.065l0.058,0.065l0.058,0.065l0.059,0.064l0.06,0.063l0.06,0.063l0.061,0.062l0.062,0.061l0.062,0.061l0.063,0.06l0.064,0.059l0.064,0.059l0.065,0.059l0.066,0.057l0.066,0.058l0.067,0.056l0.068,0.056l0.068,0.056l0.069,0.054l0.069,0.055l0.07,0.053l0.071,0.054l0.071,0.052l0.072,0.052l0.072,0.051l0.073,0.051l0.073,0.051l0.074,0.049l0.075,0.05l0.075,0.048l0.152,0.096l0.154,0.094l0.156,0.091l0.158,0.089l0.16,0.088l0.162,0.085l0.164,0.083l0.166,0.081l0.167,0.079l0.169,0.077l0.171,0.076l0.173,0.073l0.174,0.072l0.175,0.069l0.178,0.068l0.178,0.066l0.18,0.064l0.181,0.063l0.183,0.06l0.184,0.059l0.185,0.058l0.186,0.055l0.188,0.054l0.188,0.053l0.19,0.05l0.19,0.05l0.191,0.047l0.193,0.046l0.193,0.045l0.193,0.043l0.195,0.042l0.195,0.04l0.196,0.039l0.197,0.038l0.197,0.036l0.197,0.035l0.198,0.033l0.199,0.032l0.198,0.031l0.199,0.03l0.2,0.029l0.199,0.027l0.2,0.026l0.199,0.025l0.2,0.024l0.2,0.023l0.2,0.022l0.2,0.021l0.199,0.019l0.2,0.019l0.199,0.018l0.199,0.017l0.199,0.016l0.198,0.015l0.198,0.014l0.197,0.013l0.197,0.013l0.392,0.023l0.39,0.019l0.386,0.017l0.383,0.014l0.38,0.012l0.375,0.01l0.371,0.007l0.366,0.006l0.361,0.004l0.355,0.003l0.349,0.001l0.343,0.001l0.335,-0.001l0.366,-0.002l0.376,-0.002l0.388,-0.005l0.397,-0.006l0.407,-0.008l0.416,-0.01l0.425,-0.012l0.432,-0.014l0.44,-0.017l0.447,-0.02l0.453,-0.022l0.459,-0.025l0.463,-0.029l0.234,-0.015l0.235,-0.017l0.236,-0.017l0.237,-0.018l0.238,-0.019l0.238,-0.02l0.24,-0.021l0.24,-0.021l0.24,-0.023l0.242,-0.024l0.241,-0.025l0.243,-0.026l0.242,-0.027l0.243,-0.028l0.243,-0.03l0.243,-0.03l0.243,-0.031l0.243,-0.033l0.244,-0.034l0.243,-0.035l0.243,-0.037l0.242,-0.037l0.242,-0.039l0.242,-0.041l0.242,-0.041l0.241,-0.043l0.24,-0.044l0.24,-0.046l0.238,-0.047l0.239,-0.049l0.237,-0.05l0.236,-0.051l0.235,-0.053l0.235,-0.055l0.233,-0.056l0.231,-0.057l0.231,-0.059l0.229,-0.061l0.228,-0.062l0.226,-0.064l0.225,-0.066l0.223,-0.067l0.222,-0.069l0.219,-0.071l0.218,-0.072l0.216,-0.075l0.214,-0.076l0.212,-0.077l0.21,-0.08l0.208,-0.081l0.205,-0.084l0.203,-0.085l0.201,-0.087l0.199,-0.089l0.196,-0.091l0.193,-0.093l0.191,-0.095l0.094,-0.048l0.094,-0.049l0.093,-0.049l0.092,-0.05l0.091,-0.05l0.091,-0.051l0.09,-0.051l0.09,-0.052l0.088,-0.052l0.088,-0.053l0.087,-0.054l0.086,-0.054l0.086,-0.054l0.085,-0.055l0.084,-0.056l0.083,-0.056l0.082,-0.056l0.082,-0.058l0.08,-0.057l0.08,-0.058l0.079,-0.059l0.078,-0.06l0.078,-0.06l0.076,-0.06l0.076,-0.061l0.074,-0.062l0.074,-0.062l0.073,-0.063l0.072,-0.063l0.071,-0.064l0.07,-0.065l0.069,-0.065l0.068,-0.065l0.067,-0.067l0.067,-0.066l0.065,-0.068l0.064,-0.068l0.063,-0.068l0.063,-0.07l0.061,-0.07l0.06,-0.07l0.06,-0.071l0.058,-0.072l0.057,-0.072l0.056,-0.073l0.055,-0.073l0.054,-0.075l0.053,-0.074l0.052,-0.076l0.051,-0.076l0.049,-0.076l0.049,-0.078l0.047,-0.078l0.047,-0.078l0.045,-0.079l0.044,-0.08l0.043,-0.081l0.041,-0.081l0.041,-0.082l0.039,-0.082l0.038,-0.083l0.037,-0.084l0.036,-0.084l0.034,-0.085l0.034,-0.086l0.032,-0.087l0.031,-0.087l0.029,-0.087l0.029,-0.089l0.027,-0.089l0.026,-0.09l0.024,-0.09l0.023,-0.092l0.022,-0.091l0.021,-0.093l0.019,-0.093l0.018,-0.094l0.017,-0.095l0.015,-0.095l0.014,-0.096l0.013,-0.097l0.011,-0.098l0.01,-0.098l0.008,-0.099l0.008,-0.1l0.005,-0.1l0.005,-0.101l0.002,-0.102l0.002,-0.102l0,-0.104l-0.001,-0.108l-0.002,-0.108l-0.004,-0.107l-0.004,-0.106l-0.005,-0.106l-0.006,-0.105l-0.007,-0.104l-0.008,-0.104l-0.009,-0.103l-0.01,-0.102l-0.011,-0.102l-0.012,-0.101l-0.013,-0.101l-0.013,-0.1l-0.015,-0.099l-0.016,-0.099l-0.016,-0.098l-0.018,-0.098l-0.018,-0.096l-0.019,-0.097l-0.021,-0.095l-0.021,-0.095l-0.022,-0.095l-0.023,-0.093l-0.024,-0.093l-0.025,-0.093l-0.026,-0.092l-0.026,-0.091l-0.028,-0.091l-0.028,-0.09l-0.029,-0.09l-0.031,-0.088l-0.031,-0.089l-0.032,-0.087l-0.033,-0.088l-0.033,-0.086l-0.035,-0.086l-0.035,-0.085l-0.037,-0.085l-0.037,-0.084l-0.038,-0.084l-0.039,-0.083l-0.04,-0.082l-0.04,-0.082l-0.042,-0.081l-0.042,-0.081l-0.043,-0.08l-0.044,-0.08l-0.045,-0.079l-0.046,-0.078l-0.046,-0.078l-0.048,-0.077l-0.048,-0.077l-0.049,-0.076l-0.05,-0.075l-0.05,-0.075l-0.052,-0.075l-0.052,-0.074l-0.053,-0.073l-0.054,-0.073l-0.054,-0.072l-0.056,-0.072l-0.056,-0.071l-0.057,-0.07l-0.058,-0.07l-0.058,-0.07l-0.06,-0.069l-0.06,-0.068l-0.061,-0.068l-0.061,-0.067l-0.063,-0.067l-0.063,-0.066l-0.064,-0.066l-0.064,-0.065l-0.066,-0.065l-0.066,-0.064l-0.067,-0.063l-0.068,-0.063l-0.068,-0.063l-0.069,-0.062l-0.07,-0.061l-0.071,-0.061l-0.071,-0.061l-0.073,-0.06l-0.072,-0.059l-0.074,-0.059l-0.074,-0.058l-0.075,-0.058l-0.076,-0.058l-0.076,-0.056l-0.077,-0.057l-0.078,-0.056l-0.079,-0.055l-0.079,-0.055l-0.08,-0.054l-0.08,-0.054l-0.082,-0.053l-0.082,-0.053l-0.082,-0.052l-0.084,-0.052l-0.084,-0.052l-0.084,-0.051l-0.085,-0.05l-0.086,-0.05l-0.174,-0.098l-0.177,-0.097l-0.179,-0.094l-0.182,-0.093l-0.184,-0.091l-0.187,-0.089l-0.189,-0.087l-0.192,-0.085l-0.194,-0.083l-0.197,-0.082l-0.199,-0.08l-0.201,-0.078l-0.204,-0.076l-0.206,-0.074l-0.208,-0.073l-0.211,-0.071l-0.212,-0.069l-0.215,-0.067l-0.218,-0.066l-0.219,-0.064l-0.222,-0.063l-0.223,-0.06l-0.226,-0.06l-0.228,-0.057l-0.23,-0.056l-0.232,-0.054l-0.234,-0.053l-0.235,-0.051l-0.238,-0.049l-0.24,-0.048l-0.241,-0.046l-0.244,-0.045l-0.245,-0.043l-0.247,-0.042l-0.249,-0.04l-0.251,-0.039l-0.252,-0.038l-0.255,-0.035l-0.255,-0.035l-0.258,-0.033l-0.259,-0.031l-0.261,-0.031l-0.262,-0.028l-0.264,-0.028l-0.266,-0.026l-0.267,-0.024l-0.268,-0.024l-0.27,-0.022l-0.272,-0.02l-0.273,-0.019l-0.274,-0.019l-0.275,-0.016l-0.277,-0.016l-0.279,-0.014l-0.279,-0.013l-0.281,-0.012l-0.282,-0.01l-0.283,-0.01l-0.285,-0.008l-0.285,-0.007l-0.287,-0.006l-0.288,-0.004l-0.289,-0.004l-0.29,-0.002l-0.291,-0.001l-0.293,-0.001l-0.293,0.001Zm-2.657,1.516l0.226,0.002l0.228,0.003l0.23,0.004l0.239,0.005l0.238,0.007l0.238,0.007l0.237,0.009l0.236,0.009l0.235,0.01l0.234,0.011l0.234,0.013l0.232,0.013l0.232,0.014l0.23,0.015l0.23,0.016l0.228,0.017l0.228,0.018l0.226,0.019l0.225,0.02l0.225,0.021l0.223,0.022l0.222,0.023l0.221,0.024l0.22,0.025l0.218,0.026l0.218,0.027l0.216,0.028l0.215,0.029l0.214,0.03l0.212,0.031l0.211,0.032l0.21,0.033l0.209,0.033l0.207,0.035l0.206,0.036l0.205,0.037l0.203,0.038l0.202,0.039l0.2,0.04l0.199,0.041l0.197,0.041l0.196,0.043l0.195,0.044l0.193,0.045l0.191,0.046l0.19,0.047l0.188,0.048l0.187,0.049l0.185,0.05l0.184,0.051l0.181,0.052l0.181,0.053l0.178,0.054l0.177,0.055l0.175,0.056l0.173,0.057l0.172,0.058l0.17,0.059l0.168,0.06l0.166,0.061l0.165,0.063l0.162,0.063l0.161,0.064l0.159,0.065l0.157,0.067l0.155,0.067l0.153,0.068l0.151,0.07l0.15,0.07l0.147,0.072l0.145,0.072l0.143,0.074l0.141,0.074l0.139,0.076l0.137,0.077l0.135,0.077l0.133,0.079l0.131,0.08l0.128,0.081l0.127,0.082l0.124,0.083l0.122,0.084l0.12,0.085l0.117,0.086l0.115,0.087l0.113,0.088l0.111,0.089l0.109,0.091l0.106,0.091l0.103,0.092l0.102,0.094l0.099,0.094l0.096,0.096l0.094,0.096l0.092,0.098l0.089,0.099l0.087,0.1l0.084,0.101l0.082,0.102l0.079,0.103l0.077,0.104l0.074,0.105l0.071,0.106l0.069,0.108l0.066,0.108l0.064,0.109l0.061,0.111l0.058,0.112l0.056,0.112l0.053,0.114l0.05,0.115l0.048,0.116l0.044,0.117l0.042,0.118l0.02,0.059l0.019,0.06l0.019,0.06l0.017,0.06l0.017,0.061l0.017,0.061l0.015,0.061l0.015,0.061l0.015,0.062l0.013,0.062l0.013,0.062l0.012,0.062l0.011,0.063l0.011,0.063l0.01,0.063l0.009,0.064l0.008,0.063l0.008,0.065l0.007,0.064l0.006,0.065l0.005,0.064l0.005,0.066l0.004,0.065l0.003,0.066l0.002,0.066l0.002,0.066l0.001,0.067l0,0.066l-0.001,0.067l-0.001,0.068l-0.003,0.067l-0.002,0.068l-0.004,0.069l-0.005,0.068l-0.01,0.137l-0.013,0.135l-0.015,0.135l-0.016,0.134l-0.019,0.132l-0.02,0.132l-0.022,0.13l-0.024,0.13l-0.027,0.128l-0.028,0.128l-0.03,0.126l-0.032,0.125l-0.034,0.125l-0.036,0.123l-0.038,0.122l-0.04,0.121l-0.042,0.12l-0.044,0.119l-0.046,0.118l-0.048,0.117l-0.05,0.116l-0.052,0.115l-0.054,0.114l-0.056,0.113l-0.058,0.111l-0.06,0.111l-0.063,0.11l-0.064,0.108l-0.066,0.108l-0.069,0.106l-0.07,0.105l-0.073,0.104l-0.075,0.104l-0.076,0.102l-0.079,0.101l-0.081,0.1l-0.084,0.099l-0.085,0.097l-0.087,0.097l-0.09,0.096l-0.091,0.094l-0.094,0.094l-0.096,0.092l-0.098,0.092l-0.101,0.09l-0.102,0.089l-0.105,0.088l-0.107,0.087l-0.109,0.086l-0.111,0.084l-0.113,0.084l-0.116,0.083l-0.118,0.081l-0.12,0.081l-0.122,0.079l-0.124,0.078l-0.127,0.077l-0.129,0.076l-0.131,0.075l-0.134,0.074l-0.135,0.072l-0.138,0.072l-0.141,0.07l-0.142,0.07l-0.145,0.068l-0.147,0.067l-0.15,0.066l-0.151,0.065l-0.154,0.063l-0.157,0.063l-0.158,0.061l-0.161,0.061l-0.163,0.059l-0.166,0.058l-0.168,0.057l-0.17,0.056l-0.173,0.054l-0.175,0.054l-0.177,0.052l-0.18,0.052l-0.182,0.05l-0.185,0.049l-0.187,0.048l-0.189,0.046l-0.192,0.046l-0.194,0.044l-0.197,0.044l-0.199,0.042l-0.201,0.041l-0.204,0.04l-0.206,0.038l-0.209,0.038l-0.211,0.036l-0.214,0.035l-0.216,0.034l-0.218,0.033l-0.221,0.032l-0.224,0.031l-0.226,0.029l-0.228,0.028l-0.231,0.027l-0.234,0.026l-0.236,0.025l-0.238,0.023l-0.241,0.023l-0.244,0.021l-0.246,0.02l-0.249,0.019l-0.251,0.018l-0.254,0.016l-0.256,0.015l-0.259,0.015l-0.261,0.013l-0.264,0.011l-0.267,0.011l-0.269,0.009l-0.272,0.008l-0.274,0.007l-0.277,0.006l-0.28,0.005l-0.282,0.003l-0.285,0.003l-0.287,0.001l-0.29,-0.001l-0.293,-0.001l-0.295,-0.003l-0.298,-0.003l-0.301,-0.005l-0.273,-0.006l-0.27,-0.007l-0.267,-0.008l-0.263,-0.009l-0.261,-0.01l-0.258,-0.012l-0.255,-0.012l-0.252,-0.014l-0.249,-0.015l-0.246,-0.016l-0.243,-0.018l-0.241,-0.018l-0.237,-0.02l-0.235,-0.02l-0.231,-0.022l-0.229,-0.023l-0.226,-0.024l-0.223,-0.026l-0.22,-0.026l-0.218,-0.028l-0.215,-0.028l-0.212,-0.03l-0.209,-0.031l-0.206,-0.032l-0.204,-0.033l-0.201,-0.034l-0.198,-0.036l-0.195,-0.036l-0.193,-0.038l-0.19,-0.039l-0.188,-0.039l-0.185,-0.041l-0.182,-0.042l-0.179,-0.043l-0.177,-0.045l-0.175,-0.045l-0.171,-0.046l-0.17,-0.048l-0.166,-0.048l-0.164,-0.05l-0.162,-0.051l-0.159,-0.051l-0.156,-0.053l-0.154,-0.054l-0.151,-0.055l-0.149,-0.056l-0.147,-0.057l-0.144,-0.059l-0.142,-0.059l-0.139,-0.06l-0.137,-0.062l-0.134,-0.062l-0.132,-0.064l-0.13,-0.064l-0.127,-0.066l-0.125,-0.066l-0.122,-0.068l-0.12,-0.069l-0.118,-0.069l-0.116,-0.071l-0.113,-0.072l-0.111,-0.073l-0.109,-0.074l-0.106,-0.075l-0.105,-0.075l-0.102,-0.077l-0.099,-0.078l-0.098,-0.079l-0.095,-0.08l-0.094,-0.081l-0.091,-0.082l-0.089,-0.083l-0.086,-0.084l-0.085,-0.085l-0.083,-0.086l-0.08,-0.087l-0.078,-0.088l-0.077,-0.089l-0.074,-0.09l-0.072,-0.091l-0.07,-0.092l-0.068,-0.093l-0.066,-0.094l-0.064,-0.095l-0.062,-0.096l-0.06,-0.097l-0.058,-0.097l-0.056,-0.099l-0.055,-0.1l-0.052,-0.101l-0.05,-0.101l-0.049,-0.103l-0.046,-0.104l-0.045,-0.104l-0.043,-0.106l-0.041,-0.106l-0.039,-0.107l-0.037,-0.109l-0.036,-0.109l-0.033,-0.11l-0.032,-0.111l-0.03,-0.112l-0.029,-0.113l-0.026,-0.114l-0.025,-0.115l-0.023,-0.116l-0.022,-0.117l-0.019,-0.117l-0.018,-0.119l-0.017,-0.119l-0.014,-0.121l-0.013,-0.121l-0.012,-0.122l-0.01,-0.123l-0.008,-0.124l-0.006,-0.125l-0.005,-0.126l-0.003,-0.127l-0.002,-0.127l-0.001,-0.129l0.002,-0.129l0.003,-0.131l0.004,-0.131l0.006,-0.132l0.007,-0.133l0.009,-0.133l0.01,-0.135l0.012,-0.136l0.013,-0.129l0.014,-0.128l0.017,-0.128l0.018,-0.126l0.019,-0.125l0.022,-0.125l0.023,-0.123l0.025,-0.122l0.027,-0.121l0.028,-0.121l0.03,-0.119l0.032,-0.118l0.034,-0.118l0.035,-0.116l0.037,-0.115l0.039,-0.114l0.04,-0.113l0.043,-0.113l0.044,-0.111l0.046,-0.11l0.047,-0.109l0.049,-0.108l0.051,-0.107l0.053,-0.106l0.054,-0.105l0.056,-0.104l0.058,-0.103l0.06,-0.102l0.061,-0.101l0.063,-0.1l0.065,-0.099l0.066,-0.098l0.069,-0.097l0.07,-0.096l0.071,-0.095l0.074,-0.093l0.075,-0.093l0.077,-0.092l0.078,-0.091l0.08,-0.089l0.082,-0.089l0.084,-0.088l0.085,-0.086l0.088,-0.086l0.088,-0.084l0.091,-0.084l0.092,-0.082l0.094,-0.081l0.096,-0.081l0.098,-0.079l0.099,-0.078l0.101,-0.077l0.102,-0.077l0.104,-0.075l0.106,-0.074l0.108,-0.073l0.11,-0.072l0.111,-0.071l0.113,-0.07l0.114,-0.069l0.116,-0.067l0.118,-0.067l0.12,-0.066l0.122,-0.065l0.123,-0.063l0.124,-0.063l0.127,-0.061l0.128,-0.061l0.13,-0.059l0.132,-0.058l0.133,-0.058l0.135,-0.056l0.137,-0.055l0.138,-0.054l0.141,-0.053l0.141,-0.052l0.144,-0.051l0.145,-0.05l0.147,-0.049l0.149,-0.048l0.15,-0.046l0.152,-0.046l0.154,-0.045l0.155,-0.043l0.158,-0.042l0.158,-0.042l0.161,-0.04l0.162,-0.039l0.164,-0.038l0.166,-0.038l0.167,-0.036l0.169,-0.034l0.171,-0.034l0.172,-0.033l0.174,-0.032l0.176,-0.03l0.178,-0.03l0.179,-0.028l0.181,-0.028l0.182,-0.026l0.184,-0.025l0.186,-0.025l0.188,-0.023l0.189,-0.022l0.191,-0.021l0.193,-0.019l0.194,-0.019l0.196,-0.018l0.198,-0.016l0.199,-0.016l0.201,-0.014l0.203,-0.014l0.204,-0.012l0.207,-0.011l0.207,-0.01l0.21,-0.009l0.211,-0.008l0.213,-0.007l0.214,-0.005l0.217,-0.005l0.217,-0.003l0.22,-0.003l0.221,-0.001l0.223,0l0.225,0.001Zm-0.439,2.655l-0.208,0.001l-0.206,0.003l-0.204,0.003l-0.202,0.004l-0.201,0.006l-0.198,0.006l-0.197,0.007l-0.195,0.009l-0.193,0.009l-0.191,0.01l-0.189,0.011l-0.187,0.013l-0.185,0.013l-0.183,0.014l-0.182,0.015l-0.179,0.017l-0.178,0.017l-0.175,0.018l-0.174,0.019l-0.172,0.02l-0.169,0.021l-0.168,0.021l-0.166,0.023l-0.164,0.024l-0.162,0.024l-0.16,0.026l-0.158,0.026l-0.156,0.027l-0.154,0.028l-0.152,0.029l-0.15,0.03l-0.148,0.031l-0.146,0.031l-0.144,0.032l-0.142,0.033l-0.14,0.034l-0.138,0.035l-0.136,0.035l-0.133,0.036l-0.132,0.037l-0.13,0.038l-0.128,0.038l-0.126,0.039l-0.124,0.04l-0.122,0.04l-0.12,0.042l-0.118,0.041l-0.115,0.043l-0.114,0.043l-0.112,0.044l-0.109,0.044l-0.108,0.045l-0.106,0.045l-0.103,0.046l-0.102,0.047l-0.1,0.046l-0.098,0.048l-0.096,0.048l-0.093,0.049l-0.092,0.049l-0.09,0.049l-0.088,0.05l-0.087,0.05l-0.084,0.051l-0.082,0.051l-0.081,0.051l-0.079,0.052l-0.076,0.052l-0.075,0.052l-0.074,0.053l-0.071,0.054l-0.07,0.053l-0.069,0.054l-0.066,0.054l-0.065,0.054l-0.063,0.055l-0.061,0.055l-0.06,0.055l-0.059,0.056l-0.057,0.056l-0.055,0.056l-0.055,0.057l-0.052,0.057l-0.051,0.056l-0.05,0.058l-0.049,0.058l-0.048,0.06l-0.046,0.058l-0.044,0.059l-0.043,0.059l-0.042,0.06l-0.042,0.062l-0.04,0.061l-0.039,0.062l-0.038,0.062l-0.037,0.063l-0.036,0.064l-0.034,0.064l-0.034,0.065l-0.033,0.066l-0.032,0.068l-0.03,0.066l-0.03,0.068l-0.029,0.07l-0.027,0.07l-0.028,0.072l-0.025,0.071l-0.025,0.073l-0.024,0.075l-0.023,0.075l-0.022,0.077l-0.021,0.077l-0.02,0.079l-0.018,0.079l-0.019,0.083l-0.017,0.083l-0.015,0.082l-0.015,0.086l-0.013,0.087l-0.013,0.088l-0.011,0.089l-0.011,0.091l-0.009,0.094l-0.009,0.107l-0.009,0.108l-0.006,0.104l-0.006,0.105l-0.005,0.104l-0.003,0.1l-0.002,0.1l-0.001,0.098l0,0.095l0.001,0.096l0.003,0.094l0.003,0.091l0.005,0.091l0.006,0.088l0.007,0.086l0.008,0.086l0.009,0.085l0.01,0.081l0.011,0.081l0.012,0.079l0.013,0.077l0.013,0.075l0.016,0.076l0.015,0.073l0.017,0.071l0.018,0.071l0.018,0.068l0.02,0.069l0.02,0.066l0.021,0.064l0.022,0.064l0.023,0.062l0.024,0.063l0.024,0.06l0.025,0.059l0.027,0.059l0.027,0.058l0.029,0.058l0.029,0.056l0.029,0.054l0.031,0.055l0.032,0.053l0.033,0.053l0.036,0.055l0.035,0.053l0.035,0.05l0.039,0.052l0.039,0.052l0.041,0.051l0.043,0.052l0.042,0.05l0.046,0.051l0.047,0.051l0.047,0.05l0.051,0.051l0.052,0.05l0.053,0.049l0.056,0.051l0.058,0.05l0.059,0.05l0.063,0.051l0.064,0.05l0.066,0.049l0.068,0.05l0.071,0.05l0.074,0.05l0.076,0.05l0.078,0.049l0.081,0.05l0.083,0.049l0.086,0.049l0.089,0.049l0.091,0.049l0.094,0.048l0.097,0.049l0.1,0.048l0.102,0.047l0.105,0.047l0.108,0.047l0.111,0.047l0.114,0.046l0.117,0.045l0.12,0.045l0.123,0.045l0.125,0.044l0.129,0.043l0.132,0.043l0.134,0.043l0.138,0.041l0.141,0.041l0.144,0.041l0.147,0.039l0.149,0.039l0.154,0.039l0.156,0.037l0.159,0.037l0.162,0.036l0.165,0.035l0.169,0.034l0.171,0.034l0.175,0.032l0.178,0.032l0.181,0.031l0.184,0.03l0.187,0.029l0.191,0.028l0.193,0.027l0.197,0.026l0.2,0.026l0.202,0.024l0.207,0.023l0.209,0.023l0.212,0.021l0.216,0.02l0.219,0.02l0.222,0.018l0.225,0.017l0.229,0.017l0.231,0.015l0.235,0.014l0.238,0.013l0.242,0.012l0.245,0.011l0.247,0.01l0.251,0.008l0.255,0.008l0.257,0.007l0.262,0.005l0.29,0.005l0.287,0.003l0.285,0.003l0.282,0.001l0.279,0l0.276,-0.001l0.274,-0.002l0.27,-0.003l0.268,-0.004l0.265,-0.006l0.262,-0.007l0.26,-0.008l0.256,-0.009l0.254,-0.01l0.251,-0.011l0.248,-0.012l0.245,-0.013l0.243,-0.015l0.24,-0.016l0.237,-0.016l0.234,-0.018l0.231,-0.019l0.229,-0.02l0.225,-0.021l0.223,-0.022l0.22,-0.023l0.218,-0.024l0.214,-0.025l0.212,-0.026l0.209,-0.027l0.206,-0.029l0.203,-0.029l0.201,-0.03l0.198,-0.031l0.195,-0.032l0.192,-0.033l0.189,-0.034l0.187,-0.035l0.183,-0.036l0.181,-0.037l0.179,-0.038l0.175,-0.038l0.173,-0.04l0.169,-0.04l0.168,-0.042l0.164,-0.042l0.161,-0.042l0.159,-0.044l0.156,-0.045l0.153,-0.045l0.151,-0.046l0.147,-0.047l0.145,-0.047l0.142,-0.048l0.139,-0.049l0.137,-0.05l0.134,-0.05l0.131,-0.051l0.128,-0.051l0.126,-0.052l0.124,-0.053l0.119,-0.053l0.118,-0.053l0.115,-0.055l0.113,-0.054l0.11,-0.055l0.106,-0.056l0.105,-0.056l0.102,-0.056l0.1,-0.057l0.097,-0.057l0.094,-0.058l0.092,-0.057l0.089,-0.058l0.088,-0.059l0.085,-0.058l0.082,-0.06l0.081,-0.059l0.078,-0.059l0.075,-0.06l0.074,-0.059l0.071,-0.06l0.069,-0.06l0.067,-0.061l0.066,-0.061l0.063,-0.061l0.061,-0.061l0.06,-0.062l0.058,-0.061l0.056,-0.062l0.054,-0.062l0.052,-0.063l0.051,-0.062l0.05,-0.064l0.047,-0.063l0.046,-0.063l0.045,-0.065l0.044,-0.065l0.042,-0.066l0.041,-0.066l0.039,-0.066l0.038,-0.067l0.037,-0.067l0.036,-0.069l0.035,-0.07l0.033,-0.07l0.032,-0.071l0.031,-0.072l0.03,-0.073l0.028,-0.073l0.028,-0.075l0.027,-0.078l0.026,-0.077l0.024,-0.077l0.023,-0.081l0.022,-0.08l0.021,-0.082l0.02,-0.085l0.019,-0.085l0.017,-0.085l0.017,-0.088l0.015,-0.09l0.014,-0.09l0.013,-0.093l0.012,-0.093l0.01,-0.095l0.009,-0.098l0.008,-0.101l0.002,-0.037l0.002,-0.037l0.002,-0.04l0.001,-0.037l0.001,-0.036l0,-0.041l0,-0.035l0,-0.034l-0.001,-0.037l-0.001,-0.034l-0.002,-0.035l-0.002,-0.035l-0.002,-0.033l-0.003,-0.034l-0.004,-0.036l-0.003,-0.031l-0.003,-0.03l-0.005,-0.036l-0.005,-0.032l-0.005,-0.032l-0.005,-0.031l-0.006,-0.032l-0.005,-0.03l-0.007,-0.031l-0.006,-0.03l-0.007,-0.03l-0.007,-0.03l-0.009,-0.032l-0.008,-0.031l-0.008,-0.027l-0.008,-0.028l-0.01,-0.031l-0.01,-0.031l-0.006,-0.021l-0.024,-0.065l-0.022,-0.059l-0.023,-0.057l-0.026,-0.058l-0.026,-0.058l-0.029,-0.057l-0.03,-0.058l-0.032,-0.058l-0.034,-0.058l-0.036,-0.059l-0.038,-0.059l-0.039,-0.058l-0.042,-0.06l-0.044,-0.06l-0.045,-0.059l-0.049,-0.06l-0.05,-0.061l-0.054,-0.061l-0.054,-0.06l-0.058,-0.062l-0.06,-0.062l-0.062,-0.061l-0.065,-0.062l-0.068,-0.063l-0.07,-0.062l-0.072,-0.062l-0.076,-0.063l-0.078,-0.063l-0.08,-0.063l-0.083,-0.062l-0.085,-0.063l-0.088,-0.062l-0.091,-0.063l-0.093,-0.062l-0.096,-0.062l-0.099,-0.062l-0.1,-0.062l-0.104,-0.061l-0.106,-0.061l-0.108,-0.061l-0.111,-0.06l-0.114,-0.061l-0.116,-0.059l-0.118,-0.059l-0.122,-0.059l-0.123,-0.058l-0.126,-0.058l-0.127,-0.057l-0.131,-0.056l-0.133,-0.057l-0.135,-0.055l-0.137,-0.055l-0.139,-0.054l-0.142,-0.054l-0.144,-0.053l-0.146,-0.052l-0.148,-0.052l-0.151,-0.05l-0.152,-0.051l-0.155,-0.049l-0.156,-0.049l-0.159,-0.048l-0.16,-0.047l-0.163,-0.047l-0.164,-0.045l-0.167,-0.045l-0.168,-0.044l-0.17,-0.044l-0.172,-0.042l-0.174,-0.042l-0.176,-0.041l-0.177,-0.04l-0.179,-0.039l-0.181,-0.038l-0.183,-0.038l-0.184,-0.036l-0.186,-0.036l-0.187,-0.035l-0.19,-0.034l-0.19,-0.034l-0.192,-0.032l-0.194,-0.031l-0.195,-0.031l-0.197,-0.03l-0.198,-0.028l-0.2,-0.028l-0.201,-0.027l-0.203,-0.027l-0.204,-0.025l-0.205,-0.024l-0.206,-0.024l-0.208,-0.022l-0.209,-0.022l-0.21,-0.02l-0.212,-0.02l-0.213,-0.019l-0.214,-0.018l-0.215,-0.017l-0.217,-0.017l-0.217,-0.015l-0.219,-0.014l-0.219,-0.014l-0.221,-0.012l-0.222,-0.012l-0.222,-0.01l-0.224,-0.01l-0.225,-0.009l-0.226,-0.008l-0.226,-0.007l-0.228,-0.006l-0.228,-0.005l-0.217,-0.004l-0.216,-0.003l-0.213,-0.002l-0.212,-0.001l-0.21,0Z"/></g></svg>