<?xml version="1.0" encoding="UTF-8" standalone="no"?><!DOCTYPE svg PUBLIC "-//W3C//DTD SVG 1.1//EN" "http://www.w3.org/Graphics/SVG/1.1/DTD/svg11.dtd"><svg width="100%" height="100%" viewBox="0 0 226 208" version="1.1" xmlns="http://www.w3.org/2000/svg" xmlns:xlink="http://www.w3.org/1999/xlink" xml:space="preserve" xmlns:serif="http://www.serif.com/" style="fill-rule:evenodd;clip-rule:evenodd;stroke-linecap:round;stroke-linejoin:round;stroke-miterlimit:1.5;"><g id="mace"><path d="M119.67,46.813c22.122,1.64 39.422,13.76 49.906,29.818l41.13,-5.409l-31.573,27.663c4.951,21.038 -0.311,43.595 -18.852,57.616l12.927,35.973l-34.544,-25.564c-8.253,2.313 -17.815,3.551 -28.772,3.433c-10.531,-0.114 -19.668,-1.729 -27.479,-4.51l-38.846,20.616l17.986,-33.384c-13.698,-13.451 -18.038,-32.899 -14.406,-51.5l-31.719,-31.437l41.01,7.981c9.15,-14.591 24.032,-26.183 43.693,-30.076l8.649,-32.869l10.89,31.649Z" style="fill:#fff;stroke:#fff;stroke-width:30px;"/></g></svg>