<?xml version="1.0" encoding="UTF-8" standalone="no"?><!DOCTYPE svg PUBLIC "-//W3C//DTD SVG 1.1//EN" "http://www.w3.org/Graphics/SVG/1.1/DTD/svg11.dtd"><svg width="100%" height="100%" viewBox="0 0 226 208" version="1.1" xmlns="http://www.w3.org/2000/svg" xmlns:xlink="http://www.w3.org/1999/xlink" xml:space="preserve" xmlns:serif="http://www.serif.com/" style="fill-rule:evenodd;clip-rule:evenodd;stroke-linecap:round;stroke-linejoin:round;stroke-miterlimit:1.5;"><g id="mace"><path d="M119.873,46.813c22.121,1.64 39.421,13.76 49.906,29.818l41.13,-5.409l-31.573,27.663c4.95,21.038 -0.312,43.595 -18.852,57.616l12.926,35.973l-34.543,-25.564c-8.254,2.313 -17.816,3.551 -28.772,3.433c-10.531,-0.114 -19.668,-1.729 -27.48,-4.51l-38.846,20.616l17.986,-33.384c-13.698,-13.451 -18.037,-32.899 -14.405,-51.5l-31.719,-31.437l41.009,7.981c9.151,-14.591 24.033,-26.183 43.693,-30.076l8.65,-32.869l10.89,31.649Z" style="fill:none;stroke:#fff;stroke-width:30px;"/><path d="M119.873,46.813c22.121,1.64 39.421,13.76 49.906,29.818l41.13,-5.409l-31.573,27.663c4.95,21.038 -0.312,43.595 -18.852,57.616l12.926,35.973l-34.543,-25.564c-8.254,2.313 -17.816,3.551 -28.772,3.433c-10.531,-0.114 -19.668,-1.729 -27.48,-4.51l-38.846,20.616l17.986,-33.384c-13.698,-13.451 -18.037,-32.899 -14.405,-51.5l-31.719,-31.437l41.009,7.981c9.151,-14.591 24.033,-26.183 43.693,-30.076l8.65,-32.869l10.89,31.649Z" style="fill:none;stroke:#000;stroke-width:10px;"/><path d="M104.967,47.272c-72.875,9.569 -85.658,122.089 5.128,123.071c109.951,1.188 79.483,-134.182 -5.128,-123.071Z" style="fill:#fff;stroke:#000;stroke-width:4px;"/><clipPath id="_clip1"><path d="M221.481,92.991c-82.143,-51.149 -188.692,-21.467 -162.373,101.837c18.638,87.321 -92.2,-22.626 -92.2,-22.626l47.566,-148.446l179.413,-4.789l27.594,74.024Z"/></clipPath><g clip-path="url(#_clip1)"><path d="M104.967,47.272c-72.875,9.569 -85.658,122.089 5.128,123.071c109.951,1.188 79.483,-134.182 -5.128,-123.071Z" style="fill-opacity:0.301961;"/><path d="M114.874,41.764l0.251,0.001l0.25,0.002l0.25,0.003l0.25,0.003l0.249,0.004l0.249,0.005l0.249,0.006l0.248,0.007l0.248,0.007l0.248,0.009l0.247,0.009l0.247,0.01l0.247,0.01l0.247,0.012l0.246,0.012l0.245,0.013l0.246,0.014l0.245,0.015l0.245,0.016l0.244,0.016l0.244,0.017l0.244,0.018l0.243,0.019l0.243,0.019l0.243,0.021l0.243,0.021l0.242,0.022l0.241,0.022l0.242,0.024l0.241,0.024l0.241,0.025l0.24,0.026l0.24,0.026l0.24,0.028l0.239,0.028l0.239,0.029l0.239,0.029l0.238,0.031l0.238,0.031l0.238,0.032l0.241,0.033l0.469,0.068l0.472,0.07l0.471,0.074l0.469,0.077l0.467,0.08l0.467,0.083l0.464,0.086l0.463,0.088l0.462,0.092l0.461,0.095l0.459,0.097l0.457,0.101l0.456,0.103l0.454,0.107l0.453,0.109l0.451,0.112l0.45,0.115l0.449,0.117l0.446,0.121l0.446,0.123l0.443,0.126l0.442,0.129l0.441,0.132l0.439,0.134l0.438,0.137l0.435,0.14l0.434,0.142l0.433,0.146l0.431,0.148l0.43,0.15l0.428,0.153l0.425,0.156l0.425,0.159l0.423,0.161l0.421,0.163l0.42,0.167l0.418,0.168l0.416,0.172l0.415,0.174l0.413,0.176l0.411,0.179l0.41,0.181l0.408,0.184l0.406,0.186l0.405,0.189l0.403,0.192l0.401,0.193l0.4,0.196l0.398,0.199l0.396,0.201l0.394,0.203l0.392,0.205l0.392,0.208l0.389,0.21l0.387,0.213l0.385,0.214l0.385,0.218l0.382,0.219l0.38,0.221l0.379,0.224l0.377,0.227l0.374,0.228l0.373,0.23l0.372,0.232l0.37,0.235l0.367,0.237l0.366,0.239l0.365,0.241l0.362,0.243l0.36,0.246l0.359,0.247l0.357,0.25l0.355,0.251l0.354,0.254l0.351,0.255l0.349,0.258l0.348,0.259l0.346,0.262l0.344,0.263l0.342,0.266l0.341,0.268l0.338,0.269l0.336,0.27l0.335,0.274l0.333,0.275l0.331,0.277l0.329,0.278l0.327,0.281l0.325,0.282l0.323,0.284l0.322,0.286l0.319,0.288l0.318,0.289l0.316,0.292l0.313,0.292l0.312,0.294l0.311,0.298l0.307,0.297l0.306,0.3l0.304,0.301l0.303,0.303l0.3,0.305l0.298,0.306l0.296,0.308l0.295,0.31l0.292,0.311l0.29,0.312l0.289,0.315l0.286,0.316l0.285,0.317l0.282,0.318l0.281,0.321l0.279,0.322l0.276,0.324l0.274,0.323l0.273,0.327l0.271,0.328l0.268,0.328l0.267,0.331l0.265,0.332l0.262,0.333l0.261,0.335l0.259,0.336l0.256,0.337l0.254,0.338l0.253,0.341l0.25,0.341l0.249,0.343l0.246,0.343l0.245,0.345l0.242,0.347l0.239,0.346l0.239,0.35l0.237,0.351l0.233,0.35l0.232,0.352l0.23,0.353l0.228,0.356l0.226,0.356l0.224,0.357l0.221,0.358l0.219,0.359l0.218,0.36l0.216,0.362l0.213,0.362l0.211,0.363l0.209,0.365l0.207,0.366l0.205,0.366l0.203,0.368l0.2,0.369l0.199,0.37l0.197,0.371l0.193,0.37l0.193,0.373l0.19,0.374l0.188,0.375l0.185,0.374l0.184,0.376l0.181,0.377l0.18,0.379l0.177,0.378l0.174,0.379l0.174,0.381l0.171,0.382l0.168,0.382l0.166,0.382l0.164,0.385l0.162,0.383l0.16,0.385l0.158,0.387l0.155,0.386l0.153,0.386l0.151,0.39l0.149,0.389l0.146,0.388l0.145,0.39l0.142,0.392l0.14,0.391l0.137,0.391l0.136,0.394l0.133,0.393l0.131,0.393l0.129,0.396l0.127,0.395l0.124,0.394l0.122,0.396l0.12,0.398l0.117,0.397l0.115,0.397l0.113,0.398l0.111,0.399l0.109,0.4l0.106,0.399l0.104,0.401l0.101,0.4l0.099,0.4l0.097,0.402l0.095,0.401l0.092,0.403l0.09,0.403l0.088,0.402l0.085,0.404l0.083,0.402l0.081,0.404l0.079,0.405l0.076,0.403l0.074,0.407l0.071,0.405l0.069,0.404l0.066,0.406l0.065,0.407l0.062,0.406l0.059,0.405l0.057,0.406l0.055,0.408l0.053,0.406l0.05,0.407l0.047,0.407l0.046,0.407l0.042,0.408l0.041,0.407l0.038,0.409l0.035,0.407l0.034,0.407l0.03,0.408l0.029,0.409l0.025,0.409l0.024,0.405l0.021,0.409l0.018,0.408l0.016,0.409l0.014,0.408l0.011,0.407l0.009,0.408l0.006,0.408l0.003,0.408l0.001,0.408l-0.001,0.407l-0.004,0.408l-0.006,0.407l-0.009,0.407l-0.011,0.407l-0.014,0.406l-0.017,0.407l-0.019,0.407l-0.021,0.406l-0.024,0.406l-0.027,0.407l-0.029,0.405l-0.032,0.405l-0.034,0.405l-0.037,0.405l-0.039,0.403l-0.042,0.407l-0.045,0.403l-0.047,0.402l-0.05,0.405l-0.053,0.402l-0.054,0.402l-0.058,0.403l-0.061,0.402l-0.062,0.4l-0.066,0.401l-0.068,0.4l-0.071,0.4l-0.074,0.4l-0.076,0.399l-0.078,0.398l-0.082,0.398l-0.084,0.398l-0.087,0.397l-0.089,0.394l-0.092,0.397l-0.096,0.396l-0.097,0.393l-0.1,0.394l-0.104,0.394l-0.105,0.392l-0.108,0.391l-0.111,0.391l-0.114,0.391l-0.117,0.39l-0.12,0.39l-0.122,0.389l-0.125,0.386l-0.127,0.386l-0.13,0.387l-0.133,0.385l-0.136,0.385l-0.139,0.383l-0.142,0.383l-0.144,0.382l-0.147,0.381l-0.15,0.38l-0.153,0.379l-0.155,0.378l-0.158,0.378l-0.161,0.376l-0.165,0.376l-0.166,0.374l-0.17,0.373l-0.172,0.373l-0.175,0.37l-0.178,0.371l-0.182,0.37l-0.183,0.367l-0.187,0.367l-0.189,0.366l-0.193,0.366l-0.195,0.363l-0.198,0.362l-0.2,0.361l-0.204,0.36l-0.207,0.359l-0.21,0.358l-0.213,0.357l-0.214,0.354l-0.219,0.354l-0.221,0.353l-0.225,0.351l-0.226,0.349l-0.23,0.349l-0.232,0.347l-0.236,0.346l-0.239,0.345l-0.241,0.341l-0.244,0.343l-0.248,0.34l-0.25,0.339l-0.253,0.336l-0.257,0.336l-0.258,0.334l-0.262,0.332l-0.265,0.332l-0.267,0.329l-0.271,0.327l-0.274,0.327l-0.273,0.32l-0.143,0.166l-0.141,0.162l-0.139,0.159l-0.142,0.162l-0.143,0.161l-0.143,0.158l-0.144,0.16l-0.144,0.159l-0.144,0.157l-0.147,0.159l-0.146,0.157l-0.148,0.158l-0.149,0.157l-0.149,0.155l-0.149,0.156l-0.149,0.154l-0.152,0.156l-0.153,0.155l-0.152,0.153l-0.153,0.154l-0.155,0.154l-0.154,0.152l-0.155,0.152l-0.156,0.151l-0.157,0.152l-0.159,0.151l-0.159,0.151l-0.158,0.149l-0.159,0.149l-0.162,0.15l-0.162,0.149l-0.161,0.147l-0.162,0.147l-0.165,0.149l-0.164,0.146l-0.165,0.145l-0.166,0.146l-0.166,0.145l-0.167,0.145l-0.169,0.144l-0.169,0.145l-0.169,0.142l-0.169,0.142l-0.172,0.143l-0.172,0.142l-0.173,0.142l-0.172,0.14l-0.174,0.14l-0.174,0.14l-0.176,0.139l-0.177,0.139l-0.176,0.138l-0.176,0.137l-0.18,0.138l-0.18,0.137l-0.179,0.136l-0.179,0.135l-0.182,0.135l-0.183,0.135l-0.182,0.135l-0.183,0.133l-0.183,0.132l-0.187,0.134l-0.186,0.132l-0.185,0.131l-0.188,0.131l-0.187,0.13l-0.189,0.13l-0.189,0.129l-0.189,0.129l-0.193,0.129l-0.191,0.128l-0.192,0.126l-0.192,0.126l-0.193,0.127l-0.195,0.125l-0.196,0.126l-0.196,0.124l-0.196,0.123l-0.197,0.124l-0.198,0.123l-0.199,0.122l-0.2,0.122l-0.2,0.12l-0.201,0.121l-0.202,0.12l-0.202,0.119l-0.204,0.119l-0.203,0.118l-0.204,0.118l-0.206,0.117l-0.206,0.116l-0.208,0.116l-0.207,0.116l-0.209,0.115l-0.208,0.113l-0.21,0.114l-0.21,0.113l-0.211,0.112l-0.212,0.112l-0.213,0.112l-0.213,0.11l-0.214,0.11l-0.215,0.109l-0.217,0.11l-0.215,0.108l-0.216,0.107l-0.219,0.107l-0.219,0.107l-0.219,0.106l-0.22,0.105l-0.22,0.104l-0.221,0.104l-0.223,0.104l-0.223,0.103l-0.223,0.102l-0.225,0.102l-0.225,0.1l-0.225,0.101l-0.227,0.1l-0.227,0.099l-0.228,0.098l-0.229,0.098l-0.23,0.097l-0.229,0.096l-0.231,0.097l-0.232,0.095l-0.232,0.095l-0.233,0.094l-0.234,0.093l-0.235,0.093l-0.235,0.092l-0.236,0.092l-0.237,0.091l-0.237,0.09l-0.238,0.09l-0.239,0.089l-0.24,0.088l-0.24,0.088l-0.241,0.087l-0.242,0.086l-0.243,0.086l-0.243,0.085l-0.244,0.085l-0.244,0.083l-0.247,0.084l-0.246,0.082l-0.246,0.082l-0.248,0.081l-0.248,0.081l-0.249,0.079l-0.25,0.08l-0.251,0.078l-0.252,0.078l-0.251,0.077l-0.253,0.077l-0.254,0.076l-0.254,0.075l-0.255,0.074l-0.256,0.074l-0.256,0.073l-0.257,0.073l-0.259,0.072l-0.258,0.071l-0.259,0.07l-0.26,0.07l-0.261,0.069l-0.261,0.069l-0.263,0.067l-0.263,0.067l-0.264,0.067l-0.264,0.065l-0.265,0.065l-0.267,0.065l-0.266,0.063l-0.268,0.063l-0.268,0.062l-0.269,0.062l-0.27,0.061l-0.27,0.06l-0.271,0.059l-0.272,0.059l-0.273,0.058l-0.273,0.057l-0.274,0.057l-0.274,0.056l-0.276,0.055l-0.276,0.054l-0.277,0.054l-0.278,0.053l-0.279,0.052l-0.279,0.052l-0.28,0.051l-0.28,0.05l-0.282,0.05l-0.283,0.048l-0.282,0.048l-0.284,0.048l-0.284,0.046l-0.285,0.046l-0.286,0.045l-0.287,0.045l-0.287,0.043l-0.288,0.043l-0.289,0.042l-0.29,0.042l-0.29,0.041l-0.291,0.04l-0.292,0.039l-0.293,0.038l-0.293,0.038l-0.294,0.037l-0.295,0.037l-0.296,0.035l-0.296,0.035l-0.297,0.034l-0.298,0.033l-0.298,0.033l-0.3,0.032l-0.3,0.031l-0.3,0.03l-0.302,0.03l-0.303,0.029l-0.302,0.028l-0.304,0.027l-0.305,0.027l-0.305,0.026l-0.306,0.025l-0.307,0.024l-0.308,0.023l-0.308,0.023l-0.309,0.022l-0.31,0.021l-0.31,0.021l-0.311,0.019l-0.313,0.019l-0.312,0.018l-0.314,0.018l-0.314,0.016l-0.315,0.016l-0.316,0.015l-0.317,0.015l-0.317,0.013l-0.318,0.013l-0.319,0.012l-0.32,0.011l-0.32,0.01l-0.322,0.01l-0.321,0.008l-0.323,0.008l-0.324,0.008l-0.324,0.006l-0.325,0.006l-0.326,0.004l-0.326,0.004l-0.327,0.004l-0.328,0.002l-0.329,0.002l-0.33,0.001l-0.33,0l-0.331,-0.001l-0.332,-0.002l-0.333,-0.002l-0.336,-0.003l-0.551,-0.008l-0.552,-0.01l-0.55,-0.012l-0.548,-0.016l-0.546,-0.018l-0.543,-0.02l-0.54,-0.023l-0.539,-0.026l-0.536,-0.029l-0.535,-0.031l-0.532,-0.033l-0.529,-0.036l-0.528,-0.039l-0.525,-0.041l-0.523,-0.044l-0.521,-0.047l-0.518,-0.049l-0.516,-0.051l-0.515,-0.054l-0.512,-0.057l-0.509,-0.059l-0.508,-0.061l-0.505,-0.065l-0.502,-0.066l-0.501,-0.069l-0.499,-0.072l-0.496,-0.074l-0.494,-0.076l-0.492,-0.079l-0.49,-0.081l-0.487,-0.084l-0.485,-0.086l-0.483,-0.089l-0.481,-0.091l-0.479,-0.093l-0.476,-0.096l-0.474,-0.098l-0.471,-0.101l-0.47,-0.103l-0.468,-0.105l-0.465,-0.108l-0.463,-0.11l-0.461,-0.112l-0.458,-0.115l-0.456,-0.117l-0.454,-0.119l-0.453,-0.122l-0.449,-0.124l-0.448,-0.126l-0.445,-0.129l-0.443,-0.131l-0.441,-0.133l-0.439,-0.135l-0.436,-0.138l-0.434,-0.139l-0.432,-0.143l-0.429,-0.144l-0.428,-0.146l-0.425,-0.149l-0.423,-0.151l-0.421,-0.153l-0.419,-0.155l-0.416,-0.158l-0.414,-0.159l-0.412,-0.162l-0.41,-0.164l-0.408,-0.166l-0.405,-0.168l-0.402,-0.171l-0.401,-0.172l-0.399,-0.175l-0.396,-0.176l-0.394,-0.179l-0.392,-0.181l-0.389,-0.183l-0.387,-0.184l-0.386,-0.187l-0.383,-0.19l-0.38,-0.191l-0.379,-0.193l-0.376,-0.195l-0.373,-0.196l-0.372,-0.2l-0.37,-0.201l-0.367,-0.203l-0.364,-0.205l-0.363,-0.206l-0.36,-0.209l-0.358,-0.211l-0.356,-0.213l-0.354,-0.215l-0.351,-0.216l-0.348,-0.218l-0.347,-0.221l-0.345,-0.222l-0.342,-0.224l-0.34,-0.226l-0.338,-0.228l-0.335,-0.229l-0.333,-0.231l-0.331,-0.234l-0.328,-0.234l-0.327,-0.237l-0.324,-0.239l-0.321,-0.24l-0.32,-0.242l-0.317,-0.243l-0.315,-0.246l-0.313,-0.247l-0.31,-0.249l-0.308,-0.251l-0.305,-0.252l-0.303,-0.253l-0.303,-0.257l-0.298,-0.257l-0.297,-0.258l-0.293,-0.261l-0.292,-0.262l-0.29,-0.264l-0.288,-0.265l-0.285,-0.267l-0.283,-0.268l-0.28,-0.27l-0.278,-0.272l-0.276,-0.272l-0.274,-0.276l-0.271,-0.276l-0.269,-0.277l-0.267,-0.279l-0.264,-0.28l-0.262,-0.282l-0.26,-0.284l-0.257,-0.284l-0.256,-0.287l-0.252,-0.287l-0.251,-0.289l-0.248,-0.291l-0.247,-0.292l-0.243,-0.293l-0.242,-0.294l-0.239,-0.296l-0.237,-0.298l-0.234,-0.297l-0.232,-0.3l-0.231,-0.302l-0.227,-0.302l-0.225,-0.303l-0.223,-0.305l-0.222,-0.307l-0.217,-0.306l-0.216,-0.308l-0.215,-0.311l-0.211,-0.31l-0.21,-0.313l-0.207,-0.313l-0.204,-0.313l-0.203,-0.316l-0.201,-0.318l-0.197,-0.317l-0.195,-0.318l-0.194,-0.32l-0.191,-0.321l-0.188,-0.321l-0.187,-0.324l-0.185,-0.325l-0.182,-0.324l-0.179,-0.326l-0.178,-0.328l-0.176,-0.328l-0.172,-0.329l-0.171,-0.33l-0.168,-0.33l-0.166,-0.332l-0.164,-0.334l-0.162,-0.333l-0.159,-0.335l-0.158,-0.336l-0.155,-0.336l-0.152,-0.337l-0.151,-0.338l-0.148,-0.339l-0.147,-0.341l-0.143,-0.34l-0.142,-0.342l-0.139,-0.342l-0.137,-0.342l-0.135,-0.345l-0.133,-0.344l-0.13,-0.344l-0.129,-0.348l-0.126,-0.347l-0.124,-0.347l-0.121,-0.348l-0.12,-0.349l-0.117,-0.35l-0.115,-0.349l-0.113,-0.351l-0.11,-0.352l-0.109,-0.353l-0.106,-0.353l-0.104,-0.352l-0.102,-0.355l-0.1,-0.355l-0.098,-0.355l-0.096,-0.357l-0.093,-0.355l-0.091,-0.357l-0.089,-0.358l-0.087,-0.358l-0.084,-0.357l-0.083,-0.36l-0.08,-0.36l-0.079,-0.361l-0.076,-0.359l-0.074,-0.361l-0.072,-0.363l-0.069,-0.361l-0.068,-0.362l-0.065,-0.362l-0.064,-0.364l-0.061,-0.365l-0.059,-0.361l-0.057,-0.366l-0.055,-0.365l-0.052,-0.365l-0.051,-0.365l-0.049,-0.365l-0.046,-0.367l-0.044,-0.366l-0.043,-0.367l-0.04,-0.368l-0.038,-0.367l-0.036,-0.367l-0.034,-0.368l-0.032,-0.368l-0.03,-0.368l-0.028,-0.37l-0.025,-0.369l-0.024,-0.367l-0.021,-0.371l-0.02,-0.369l-0.017,-0.37l-0.016,-0.37l-0.013,-0.368l-0.011,-0.372l-0.009,-0.37l-0.008,-0.371l-0.005,-0.371l-0.003,-0.369l-0.001,-0.371l0.001,-0.372l0.003,-0.371l0.005,-0.371l0.007,-0.372l0.009,-0.371l0.011,-0.372l0.013,-0.37l0.015,-0.371l0.017,-0.373l0.02,-0.372l0.021,-0.369l0.022,-0.372l0.026,-0.374l0.027,-0.37l0.029,-0.371l0.031,-0.372l0.033,-0.372l0.035,-0.37l0.037,-0.371l0.039,-0.371l0.041,-0.372l0.043,-0.372l0.045,-0.37l0.047,-0.37l0.049,-0.37l0.051,-0.372l0.053,-0.371l0.054,-0.368l0.057,-0.371l0.059,-0.371l0.06,-0.368l0.063,-0.369l0.064,-0.37l0.067,-0.37l0.068,-0.369l0.071,-0.368l0.072,-0.368l0.074,-0.368l0.076,-0.369l0.079,-0.367l0.079,-0.366l0.082,-0.368l0.084,-0.367l0.086,-0.366l0.088,-0.366l0.089,-0.366l0.092,-0.366l0.093,-0.365l0.096,-0.366l0.097,-0.363l0.099,-0.363l0.101,-0.365l0.103,-0.364l0.105,-0.361l0.107,-0.364l0.109,-0.363l0.11,-0.36l0.113,-0.362l0.114,-0.361l0.116,-0.359l0.118,-0.36l0.121,-0.361l0.122,-0.358l0.123,-0.357l0.126,-0.359l0.128,-0.358l0.129,-0.357l0.131,-0.355l0.134,-0.357l0.135,-0.356l0.137,-0.353l0.138,-0.354l0.141,-0.354l0.143,-0.354l0.144,-0.351l0.146,-0.351l0.148,-0.352l0.151,-0.351l0.151,-0.35l0.154,-0.348l0.155,-0.349l0.157,-0.348l0.16,-0.348l0.161,-0.346l0.163,-0.346l0.164,-0.345l0.167,-0.344l0.168,-0.344l0.171,-0.343l0.171,-0.342l0.175,-0.342l0.175,-0.341l0.178,-0.34l0.179,-0.339l0.181,-0.338l0.183,-0.337l0.186,-0.338l0.186,-0.336l0.188,-0.334l0.19,-0.334l0.193,-0.335l0.194,-0.332l0.195,-0.331l0.198,-0.331l0.2,-0.331l0.201,-0.329l0.203,-0.327l0.204,-0.328l0.207,-0.326l0.208,-0.326l0.211,-0.324l0.212,-0.324l0.213,-0.321l0.216,-0.322l0.217,-0.321l0.219,-0.319l0.222,-0.319l0.223,-0.318l0.223,-0.315l0.226,-0.316l0.229,-0.314l0.23,-0.314l0.232,-0.313l0.233,-0.31l0.235,-0.31l0.237,-0.309l0.239,-0.308l0.24,-0.307l0.242,-0.306l0.244,-0.304l0.245,-0.303l0.248,-0.302l0.25,-0.302l0.251,-0.299l0.252,-0.298l0.255,-0.298l0.256,-0.296l0.258,-0.295l0.261,-0.294l0.261,-0.292l0.263,-0.291l0.266,-0.291l0.266,-0.288l0.269,-0.288l0.27,-0.286l0.271,-0.284l0.275,-0.284l0.275,-0.282l0.277,-0.281l0.279,-0.279l0.281,-0.278l0.282,-0.277l0.284,-0.275l0.286,-0.274l0.287,-0.273l0.29,-0.272l0.291,-0.269l0.292,-0.268l0.295,-0.267l0.296,-0.265l0.297,-0.264l0.3,-0.263l0.301,-0.261l0.303,-0.259l0.304,-0.258l0.307,-0.256l0.308,-0.256l0.31,-0.253l0.31,-0.251l0.314,-0.251l0.314,-0.249l0.317,-0.247l0.318,-0.245l0.319,-0.244l0.322,-0.242l0.323,-0.241l0.325,-0.239l0.326,-0.237l0.329,-0.236l0.329,-0.234l0.331,-0.232l0.333,-0.231l0.335,-0.229l0.336,-0.227l0.338,-0.226l0.34,-0.224l0.342,-0.222l0.342,-0.22l0.345,-0.218l0.346,-0.217l0.348,-0.215l0.349,-0.213l0.351,-0.211l0.353,-0.21l0.354,-0.208l0.356,-0.205l0.357,-0.204l0.359,-0.202l0.361,-0.201l0.363,-0.198l0.364,-0.196l0.364,-0.195l0.368,-0.193l0.369,-0.19l0.37,-0.189l0.372,-0.187l0.373,-0.184l0.375,-0.184l0.376,-0.18l0.378,-0.179l0.381,-0.177l0.381,-0.175l0.382,-0.173l0.385,-0.171l0.386,-0.168l0.387,-0.167l0.389,-0.164l0.39,-0.163l0.393,-0.16l0.394,-0.159l0.395,-0.156l0.396,-0.154l0.399,-0.152l0.399,-0.15l0.401,-0.148l0.403,-0.145l0.404,-0.143l0.406,-0.142l0.408,-0.139l0.408,-0.136l0.41,-0.135l0.412,-0.132l0.413,-0.13l0.415,-0.128l0.416,-0.126l0.418,-0.123l0.419,-0.121l0.421,-0.119l0.421,-0.117l0.424,-0.114l0.425,-0.112l0.426,-0.109l0.428,-0.107l0.429,-0.105l0.431,-0.103l0.432,-0.1l0.433,-0.098l0.435,-0.095l0.437,-0.093l0.437,-0.091l0.44,-0.088l0.44,-0.086l0.442,-0.083l0.444,-0.081l0.444,-0.078l0.447,-0.076l0.447,-0.074l0.449,-0.071l0.451,-0.068l0.452,-0.066l0.452,-0.064l0.452,-0.061l0.266,-0.034l0.263,-0.033l0.262,-0.033l0.262,-0.031l0.262,-0.031l0.261,-0.029l0.262,-0.029l0.261,-0.028l0.26,-0.027l0.261,-0.027l0.26,-0.025l0.26,-0.024l0.259,-0.024l0.259,-0.023l0.259,-0.022l0.259,-0.021l0.258,-0.02l0.258,-0.019l0.258,-0.019l0.257,-0.017l0.257,-0.017l0.258,-0.016l0.256,-0.015l0.256,-0.014l0.256,-0.013l0.256,-0.013l0.255,-0.011l0.255,-0.011l0.255,-0.01l0.254,-0.009l0.254,-0.008l0.254,-0.008l0.253,-0.006l0.254,-0.006l0.252,-0.005l0.253,-0.004l0.252,-0.003l0.252,-0.002l0.252,-0.002l0.251,-0.001l0.251,0Zm-0.48,4.86l-0.236,0.002l-0.236,0.002l-0.236,0.003l-0.237,0.004l-0.237,0.004l-0.237,0.006l-0.237,0.006l-0.238,0.007l-0.239,0.008l-0.238,0.008l-0.239,0.009l-0.239,0.01l-0.24,0.011l-0.239,0.012l-0.241,0.013l-0.24,0.013l-0.241,0.014l-0.241,0.015l-0.241,0.016l-0.242,0.016l-0.242,0.017l-0.243,0.018l-0.242,0.019l-0.243,0.02l-0.244,0.021l-0.243,0.021l-0.244,0.022l-0.245,0.023l-0.244,0.024l-0.245,0.025l-0.245,0.025l-0.246,0.027l-0.246,0.027l-0.246,0.028l-0.246,0.028l-0.247,0.03l-0.247,0.031l-0.248,0.031l-0.247,0.032l-0.427,0.057l-0.425,0.06l-0.423,0.062l-0.422,0.064l-0.421,0.067l-0.42,0.068l-0.418,0.072l-0.416,0.073l-0.416,0.076l-0.413,0.078l-0.413,0.08l-0.411,0.083l-0.41,0.085l-0.408,0.087l-0.407,0.089l-0.405,0.091l-0.404,0.094l-0.403,0.096l-0.401,0.098l-0.4,0.1l-0.398,0.102l-0.397,0.105l-0.396,0.106l-0.394,0.109l-0.393,0.111l-0.391,0.113l-0.39,0.115l-0.388,0.118l-0.387,0.119l-0.386,0.121l-0.384,0.124l-0.383,0.125l-0.381,0.128l-0.38,0.13l-0.378,0.131l-0.377,0.134l-0.376,0.136l-0.374,0.137l-0.372,0.14l-0.371,0.142l-0.37,0.143l-0.368,0.146l-0.367,0.147l-0.365,0.15l-0.364,0.151l-0.363,0.154l-0.361,0.155l-0.359,0.157l-0.358,0.159l-0.357,0.161l-0.355,0.163l-0.353,0.165l-0.353,0.166l-0.35,0.169l-0.349,0.17l-0.348,0.172l-0.346,0.174l-0.345,0.176l-0.343,0.177l-0.342,0.179l-0.34,0.182l-0.339,0.182l-0.337,0.185l-0.336,0.186l-0.334,0.189l-0.333,0.189l-0.331,0.192l-0.33,0.193l-0.328,0.195l-0.327,0.197l-0.325,0.198l-0.324,0.2l-0.322,0.202l-0.32,0.203l-0.32,0.205l-0.317,0.207l-0.316,0.208l-0.315,0.21l-0.313,0.212l-0.311,0.213l-0.31,0.214l-0.309,0.217l-0.307,0.218l-0.305,0.219l-0.304,0.221l-0.302,0.222l-0.301,0.224l-0.299,0.226l-0.298,0.227l-0.296,0.229l-0.295,0.23l-0.293,0.231l-0.291,0.233l-0.29,0.235l-0.288,0.236l-0.287,0.237l-0.285,0.239l-0.284,0.24l-0.282,0.242l-0.281,0.243l-0.279,0.244l-0.277,0.246l-0.276,0.247l-0.274,0.249l-0.273,0.25l-0.271,0.251l-0.269,0.253l-0.268,0.254l-0.266,0.255l-0.265,0.257l-0.263,0.258l-0.262,0.259l-0.26,0.26l-0.258,0.262l-0.257,0.263l-0.255,0.264l-0.254,0.266l-0.252,0.267l-0.25,0.268l-0.249,0.269l-0.247,0.27l-0.246,0.272l-0.244,0.272l-0.242,0.274l-0.241,0.276l-0.239,0.276l-0.237,0.277l-0.236,0.279l-0.234,0.28l-0.233,0.28l-0.231,0.282l-0.229,0.283l-0.228,0.284l-0.226,0.286l-0.224,0.286l-0.223,0.287l-0.221,0.289l-0.22,0.289l-0.218,0.29l-0.216,0.292l-0.214,0.292l-0.213,0.294l-0.212,0.294l-0.209,0.296l-0.208,0.296l-0.206,0.298l-0.205,0.298l-0.203,0.3l-0.201,0.3l-0.2,0.301l-0.198,0.302l-0.196,0.303l-0.195,0.304l-0.193,0.305l-0.191,0.306l-0.19,0.306l-0.188,0.308l-0.186,0.308l-0.185,0.309l-0.183,0.31l-0.181,0.311l-0.179,0.311l-0.178,0.313l-0.176,0.313l-0.175,0.314l-0.173,0.314l-0.171,0.316l-0.169,0.316l-0.168,0.317l-0.166,0.318l-0.164,0.318l-0.162,0.32l-0.161,0.319l-0.159,0.321l-0.158,0.321l-0.155,0.322l-0.154,0.323l-0.153,0.323l-0.15,0.324l-0.149,0.325l-0.147,0.325l-0.145,0.326l-0.144,0.326l-0.142,0.327l-0.14,0.328l-0.139,0.328l-0.136,0.329l-0.135,0.329l-0.133,0.33l-0.132,0.33l-0.13,0.331l-0.128,0.332l-0.126,0.332l-0.124,0.332l-0.123,0.333l-0.121,0.334l-0.119,0.334l-0.118,0.334l-0.115,0.335l-0.114,0.335l-0.112,0.336l-0.111,0.336l-0.108,0.337l-0.107,0.337l-0.105,0.338l-0.104,0.337l-0.101,0.339l-0.1,0.338l-0.098,0.339l-0.096,0.34l-0.095,0.339l-0.092,0.34l-0.091,0.34l-0.089,0.341l-0.087,0.341l-0.086,0.341l-0.084,0.342l-0.081,0.342l-0.081,0.342l-0.078,0.342l-0.076,0.342l-0.075,0.343l-0.073,0.343l-0.071,0.343l-0.069,0.344l-0.068,0.344l-0.065,0.343l-0.064,0.344l-0.062,0.345l-0.06,0.344l-0.059,0.344l-0.056,0.345l-0.055,0.345l-0.053,0.345l-0.051,0.345l-0.049,0.345l-0.047,0.345l-0.046,0.345l-0.043,0.346l-0.042,0.345l-0.04,0.345l-0.038,0.346l-0.037,0.346l-0.034,0.345l-0.033,0.346l-0.031,0.345l-0.029,0.346l-0.027,0.346l-0.025,0.345l-0.023,0.346l-0.022,0.345l-0.019,0.346l-0.018,0.345l-0.016,0.345l-0.014,0.346l-0.012,0.345l-0.01,0.345l-0.009,0.345l-0.006,0.345l-0.005,0.344l-0.003,0.345l-0.001,0.344l0.001,0.344l0.003,0.345l0.005,0.343l0.007,0.344l0.008,0.344l0.011,0.343l0.012,0.343l0.014,0.343l0.017,0.343l0.018,0.342l0.02,0.342l0.021,0.342l0.024,0.342l0.026,0.341l0.027,0.341l0.03,0.341l0.031,0.341l0.034,0.34l0.035,0.34l0.037,0.339l0.039,0.339l0.041,0.339l0.043,0.338l0.045,0.338l0.047,0.338l0.049,0.337l0.05,0.337l0.053,0.337l0.055,0.336l0.056,0.335l0.058,0.335l0.061,0.335l0.062,0.334l0.064,0.334l0.067,0.333l0.068,0.333l0.07,0.332l0.072,0.332l0.074,0.331l0.076,0.331l0.078,0.33l0.08,0.33l0.082,0.329l0.084,0.328l0.086,0.328l0.088,0.327l0.089,0.327l0.092,0.326l0.094,0.326l0.096,0.325l0.097,0.324l0.1,0.324l0.102,0.322l0.103,0.323l0.106,0.321l0.108,0.321l0.109,0.321l0.112,0.319l0.114,0.319l0.115,0.318l0.118,0.317l0.12,0.317l0.121,0.316l0.124,0.315l0.125,0.314l0.128,0.314l0.13,0.313l0.132,0.312l0.133,0.311l0.136,0.31l0.138,0.31l0.14,0.308l0.141,0.308l0.144,0.307l0.146,0.306l0.148,0.306l0.15,0.304l0.152,0.303l0.154,0.303l0.156,0.302l0.158,0.3l0.16,0.3l0.162,0.299l0.164,0.298l0.167,0.297l0.168,0.296l0.17,0.295l0.173,0.294l0.174,0.293l0.177,0.292l0.178,0.291l0.181,0.29l0.182,0.289l0.185,0.287l0.187,0.287l0.189,0.286l0.191,0.285l0.193,0.283l0.195,0.283l0.197,0.281l0.2,0.28l0.201,0.279l0.203,0.278l0.206,0.277l0.208,0.276l0.209,0.275l0.212,0.273l0.214,0.272l0.216,0.271l0.218,0.27l0.22,0.269l0.222,0.267l0.225,0.266l0.226,0.265l0.229,0.264l0.231,0.262l0.232,0.261l0.235,0.26l0.237,0.258l0.239,0.258l0.242,0.256l0.243,0.254l0.246,0.254l0.247,0.252l0.25,0.25l0.252,0.25l0.254,0.247l0.256,0.247l0.258,0.245l0.261,0.244l0.262,0.242l0.265,0.241l0.267,0.24l0.269,0.238l0.271,0.236l0.273,0.236l0.276,0.233l0.277,0.233l0.28,0.231l0.282,0.229l0.284,0.228l0.286,0.226l0.288,0.225l0.291,0.223l0.292,0.222l0.295,0.22l0.297,0.218l0.3,0.218l0.301,0.215l0.303,0.214l0.306,0.212l0.308,0.211l0.31,0.209l0.312,0.207l0.315,0.206l0.316,0.204l0.319,0.203l0.321,0.201l0.323,0.199l0.326,0.198l0.327,0.195l0.33,0.195l0.332,0.192l0.334,0.191l0.337,0.189l0.338,0.187l0.341,0.185l0.343,0.184l0.345,0.182l0.348,0.18l0.349,0.179l0.352,0.176l0.354,0.175l0.356,0.173l0.359,0.171l0.361,0.17l0.363,0.167l0.365,0.166l0.367,0.164l0.37,0.161l0.372,0.16l0.374,0.159l0.376,0.156l0.379,0.154l0.381,0.153l0.383,0.15l0.385,0.149l0.388,0.146l0.39,0.145l0.392,0.142l0.394,0.141l0.397,0.139l0.398,0.136l0.402,0.135l0.403,0.133l0.406,0.13l0.408,0.129l0.41,0.127l0.412,0.124l0.415,0.123l0.417,0.12l0.419,0.118l0.422,0.116l0.423,0.115l0.427,0.112l0.428,0.109l0.431,0.108l0.433,0.106l0.435,0.103l0.437,0.101l0.44,0.1l0.442,0.096l0.445,0.095l0.446,0.093l0.449,0.09l0.452,0.088l0.453,0.086l0.456,0.084l0.459,0.081l0.46,0.079l0.463,0.077l0.465,0.075l0.468,0.072l0.469,0.07l0.473,0.068l0.474,0.065l0.477,0.063l0.479,0.061l0.481,0.059l0.484,0.056l0.486,0.053l0.489,0.052l0.49,0.049l0.494,0.046l0.495,0.044l0.498,0.042l0.5,0.04l0.502,0.036l0.505,0.035l0.507,0.032l0.51,0.03l0.512,0.027l0.514,0.024l0.516,0.022l0.519,0.02l0.522,0.017l0.523,0.015l0.526,0.012l0.529,0.009l0.531,0.008l0.321,0.003l0.321,0.002l0.32,0.001l0.32,0.001l0.318,0l0.318,-0.001l0.317,-0.001l0.316,-0.002l0.315,-0.004l0.315,-0.003l0.313,-0.005l0.313,-0.005l0.312,-0.007l0.312,-0.007l0.31,-0.007l0.31,-0.009l0.309,-0.009l0.308,-0.01l0.307,-0.011l0.307,-0.011l0.306,-0.012l0.305,-0.013l0.304,-0.014l0.303,-0.014l0.303,-0.015l0.302,-0.016l0.301,-0.017l0.3,-0.017l0.299,-0.019l0.299,-0.019l0.298,-0.019l0.297,-0.02l0.296,-0.022l0.296,-0.021l0.294,-0.023l0.294,-0.023l0.293,-0.024l0.293,-0.025l0.291,-0.025l0.291,-0.026l0.29,-0.027l0.289,-0.028l0.288,-0.028l0.288,-0.029l0.287,-0.03l0.286,-0.03l0.285,-0.031l0.285,-0.032l0.283,-0.033l0.283,-0.033l0.283,-0.034l0.281,-0.035l0.281,-0.035l0.279,-0.036l0.279,-0.037l0.279,-0.037l0.277,-0.039l0.277,-0.038l0.276,-0.04l0.275,-0.04l0.274,-0.041l0.274,-0.042l0.273,-0.042l0.272,-0.043l0.271,-0.043l0.271,-0.045l0.27,-0.045l0.269,-0.045l0.268,-0.047l0.267,-0.047l0.267,-0.047l0.266,-0.049l0.265,-0.049l0.264,-0.049l0.264,-0.051l0.263,-0.051l0.262,-0.051l0.261,-0.053l0.261,-0.053l0.259,-0.053l0.259,-0.055l0.259,-0.055l0.257,-0.055l0.257,-0.056l0.256,-0.057l0.255,-0.058l0.254,-0.058l0.254,-0.059l0.253,-0.059l0.252,-0.061l0.252,-0.06l0.25,-0.062l0.25,-0.062l0.249,-0.062l0.248,-0.064l0.248,-0.064l0.247,-0.064l0.246,-0.065l0.245,-0.066l0.245,-0.067l0.244,-0.067l0.243,-0.067l0.242,-0.069l0.242,-0.069l0.24,-0.069l0.24,-0.07l0.24,-0.071l0.238,-0.071l0.238,-0.072l0.237,-0.073l0.236,-0.073l0.236,-0.074l0.235,-0.074l0.234,-0.075l0.233,-0.076l0.232,-0.076l0.232,-0.077l0.231,-0.077l0.231,-0.078l0.229,-0.079l0.229,-0.079l0.228,-0.08l0.227,-0.08l0.227,-0.081l0.226,-0.082l0.225,-0.082l0.224,-0.083l0.224,-0.083l0.223,-0.084l0.222,-0.084l0.221,-0.085l0.221,-0.086l0.22,-0.086l0.219,-0.087l0.218,-0.087l0.218,-0.088l0.217,-0.089l0.216,-0.089l0.215,-0.089l0.215,-0.09l0.214,-0.091l0.213,-0.091l0.213,-0.092l0.212,-0.092l0.211,-0.093l0.21,-0.094l0.21,-0.094l0.209,-0.094l0.208,-0.095l0.207,-0.096l0.207,-0.096l0.206,-0.097l0.205,-0.097l0.204,-0.098l0.204,-0.099l0.203,-0.098l0.202,-0.1l0.202,-0.1l0.201,-0.1l0.2,-0.101l0.199,-0.102l0.199,-0.102l0.198,-0.103l0.197,-0.103l0.196,-0.103l0.196,-0.105l0.195,-0.104l0.194,-0.105l0.194,-0.106l0.193,-0.106l0.192,-0.107l0.191,-0.107l0.191,-0.108l0.19,-0.109l0.189,-0.108l0.189,-0.11l0.188,-0.109l0.187,-0.111l0.186,-0.111l0.186,-0.111l0.185,-0.112l0.184,-0.112l0.184,-0.113l0.182,-0.113l0.182,-0.114l0.182,-0.114l0.181,-0.115l0.179,-0.115l0.18,-0.116l0.178,-0.116l0.178,-0.117l0.177,-0.117l0.176,-0.117l0.176,-0.118l0.175,-0.119l0.174,-0.119l0.174,-0.12l0.173,-0.12l0.172,-0.12l0.171,-0.121l0.171,-0.121l0.17,-0.122l0.169,-0.123l0.169,-0.122l0.168,-0.124l0.167,-0.123l0.167,-0.124l0.165,-0.125l0.165,-0.125l0.165,-0.126l0.163,-0.126l0.163,-0.126l0.163,-0.127l0.161,-0.127l0.161,-0.128l0.16,-0.128l0.16,-0.129l0.158,-0.129l0.159,-0.129l0.157,-0.13l0.157,-0.131l0.156,-0.13l0.155,-0.132l0.154,-0.131l0.154,-0.132l0.154,-0.133l0.152,-0.133l0.152,-0.133l0.151,-0.134l0.15,-0.134l0.15,-0.135l0.149,-0.135l0.148,-0.135l0.148,-0.136l0.147,-0.136l0.146,-0.137l0.146,-0.137l0.145,-0.138l0.144,-0.137l0.144,-0.139l0.142,-0.138l0.142,-0.14l0.142,-0.139l0.141,-0.14l0.14,-0.14l0.139,-0.141l0.139,-0.141l0.138,-0.141l0.137,-0.142l0.137,-0.143l0.136,-0.142l0.135,-0.143l0.135,-0.144l0.134,-0.143l0.133,-0.145l0.133,-0.144l0.131,-0.145l0.132,-0.145l0.13,-0.146l0.13,-0.146l0.129,-0.146l0.129,-0.147l0.128,-0.147l0.127,-0.148l0.252,-0.296l0.249,-0.298l0.247,-0.298l0.244,-0.301l0.242,-0.302l0.239,-0.303l0.236,-0.304l0.233,-0.306l0.231,-0.308l0.228,-0.308l0.226,-0.31l0.222,-0.312l0.22,-0.312l0.218,-0.314l0.215,-0.315l0.212,-0.317l0.209,-0.317l0.207,-0.319l0.204,-0.32l0.202,-0.322l0.199,-0.322l0.196,-0.324l0.194,-0.325l0.191,-0.326l0.189,-0.327l0.185,-0.329l0.184,-0.329l0.18,-0.331l0.179,-0.331l0.175,-0.333l0.173,-0.334l0.17,-0.335l0.168,-0.336l0.165,-0.337l0.163,-0.338l0.16,-0.339l0.157,-0.34l0.155,-0.341l0.152,-0.342l0.15,-0.343l0.147,-0.344l0.145,-0.345l0.142,-0.346l0.14,-0.347l0.137,-0.347l0.134,-0.349l0.132,-0.349l0.13,-0.35l0.127,-0.352l0.124,-0.351l0.122,-0.353l0.12,-0.354l0.117,-0.354l0.114,-0.355l0.112,-0.356l0.109,-0.357l0.107,-0.357l0.105,-0.358l0.102,-0.359l0.099,-0.36l0.097,-0.36l0.095,-0.361l0.092,-0.362l0.089,-0.362l0.088,-0.363l0.084,-0.363l0.083,-0.365l0.079,-0.364l0.078,-0.366l0.075,-0.366l0.072,-0.366l0.07,-0.367l0.068,-0.368l0.065,-0.368l0.063,-0.369l0.06,-0.369l0.058,-0.37l0.056,-0.37l0.053,-0.371l0.051,-0.371l0.048,-0.371l0.046,-0.372l0.044,-0.373l0.041,-0.373l0.039,-0.373l0.036,-0.373l0.034,-0.374l0.032,-0.374l0.029,-0.375l0.027,-0.375l0.025,-0.375l0.022,-0.376l0.02,-0.376l0.018,-0.376l0.015,-0.376l0.013,-0.377l0.01,-0.377l0.008,-0.377l0.006,-0.377l0.004,-0.378l0.001,-0.378l-0.001,-0.378l-0.003,-0.378l-0.006,-0.378l-0.008,-0.378l-0.01,-0.379l-0.013,-0.379l-0.015,-0.378l-0.017,-0.379l-0.019,-0.379l-0.022,-0.379l-0.024,-0.379l-0.026,-0.379l-0.029,-0.379l-0.031,-0.379l-0.033,-0.379l-0.035,-0.379l-0.038,-0.379l-0.04,-0.379l-0.042,-0.379l-0.044,-0.379l-0.047,-0.379l-0.048,-0.379l-0.051,-0.378l-0.054,-0.379l-0.055,-0.378l-0.058,-0.379l-0.06,-0.378l-0.062,-0.378l-0.064,-0.377l-0.067,-0.378l-0.069,-0.377l-0.07,-0.377l-0.074,-0.377l-0.075,-0.377l-0.077,-0.376l-0.08,-0.377l-0.082,-0.376l-0.084,-0.375l-0.086,-0.375l-0.088,-0.375l-0.091,-0.375l-0.093,-0.374l-0.095,-0.374l-0.096,-0.374l-0.1,-0.373l-0.101,-0.373l-0.103,-0.372l-0.106,-0.372l-0.107,-0.372l-0.11,-0.371l-0.112,-0.371l-0.114,-0.37l-0.116,-0.37l-0.119,-0.369l-0.12,-0.369l-0.122,-0.368l-0.125,-0.367l-0.127,-0.368l-0.128,-0.366l-0.131,-0.366l-0.133,-0.366l-0.135,-0.364l-0.137,-0.365l-0.139,-0.363l-0.142,-0.363l-0.143,-0.362l-0.145,-0.362l-0.148,-0.361l-0.149,-0.36l-0.152,-0.36l-0.153,-0.359l-0.156,-0.358l-0.158,-0.358l-0.159,-0.356l-0.162,-0.356l-0.164,-0.355l-0.165,-0.355l-0.168,-0.353l-0.17,-0.353l-0.172,-0.352l-0.173,-0.351l-0.176,-0.351l-0.178,-0.349l-0.18,-0.349l-0.182,-0.347l-0.183,-0.347l-0.186,-0.346l-0.188,-0.345l-0.19,-0.344l-0.191,-0.343l-0.194,-0.342l-0.196,-0.341l-0.197,-0.34l-0.2,-0.339l-0.201,-0.338l-0.204,-0.337l-0.205,-0.336l-0.207,-0.335l-0.21,-0.334l-0.211,-0.333l-0.213,-0.332l-0.215,-0.331l-0.217,-0.329l-0.219,-0.329l-0.221,-0.327l-0.222,-0.326l-0.225,-0.325l-0.226,-0.324l-0.229,-0.323l-0.23,-0.321l-0.232,-0.32l-0.234,-0.319l-0.236,-0.318l-0.238,-0.316l-0.24,-0.316l-0.242,-0.314l-0.243,-0.312l-0.245,-0.312l-0.248,-0.31l-0.249,-0.308l-0.251,-0.308l-0.252,-0.306l-0.255,-0.304l-0.256,-0.304l-0.259,-0.301l-0.26,-0.301l-0.262,-0.299l-0.263,-0.298l-0.266,-0.296l-0.267,-0.295l-0.27,-0.293l-0.271,-0.292l-0.273,-0.29l-0.274,-0.289l-0.277,-0.287l-0.278,-0.286l-0.28,-0.284l-0.282,-0.282l-0.283,-0.281l-0.286,-0.28l-0.287,-0.278l-0.289,-0.276l-0.29,-0.275l-0.293,-0.273l-0.294,-0.271l-0.296,-0.27l-0.298,-0.268l-0.299,-0.266l-0.301,-0.265l-0.303,-0.263l-0.305,-0.261l-0.306,-0.26l-0.309,-0.258l-0.309,-0.256l-0.312,-0.254l-0.313,-0.252l-0.315,-0.251l-0.317,-0.249l-0.319,-0.247l-0.32,-0.245l-0.322,-0.243l-0.323,-0.242l-0.325,-0.24l-0.327,-0.237l-0.329,-0.236l-0.33,-0.234l-0.332,-0.232l-0.334,-0.23l-0.335,-0.228l-0.337,-0.226l-0.338,-0.225l-0.341,-0.222l-0.342,-0.22l-0.343,-0.218l-0.345,-0.216l-0.347,-0.214l-0.349,-0.213l-0.35,-0.21l-0.352,-0.208l-0.353,-0.205l-0.355,-0.204l-0.357,-0.202l-0.358,-0.199l-0.36,-0.198l-0.361,-0.195l-0.363,-0.193l-0.365,-0.191l-0.366,-0.189l-0.368,-0.186l-0.369,-0.184l-0.371,-0.182l-0.373,-0.18l-0.374,-0.178l-0.376,-0.175l-0.377,-0.173l-0.379,-0.171l-0.38,-0.168l-0.382,-0.166l-0.384,-0.164l-0.385,-0.162l-0.386,-0.159l-0.388,-0.157l-0.39,-0.154l-0.391,-0.152l-0.393,-0.149l-0.394,-0.148l-0.396,-0.144l-0.397,-0.143l-0.399,-0.139l-0.401,-0.138l-0.401,-0.135l-0.404,-0.132l-0.405,-0.13l-0.406,-0.127l-0.408,-0.125l-0.409,-0.122l-0.411,-0.12l-0.412,-0.117l-0.414,-0.115l-0.415,-0.112l-0.417,-0.109l-0.418,-0.107l-0.419,-0.104l-0.421,-0.101l-0.423,-0.099l-0.424,-0.096l-0.425,-0.094l-0.427,-0.091l-0.428,-0.088l-0.43,-0.085l-0.431,-0.083l-0.433,-0.08l-0.434,-0.077l-0.435,-0.074l-0.437,-0.072l-0.438,-0.068l-0.44,-0.066l-0.441,-0.064l-0.221,-0.03l-0.221,-0.03l-0.222,-0.029l-0.222,-0.028l-0.222,-0.028l-0.223,-0.027l-0.223,-0.026l-0.224,-0.026l-0.224,-0.024l-0.224,-0.024l-0.224,-0.024l-0.225,-0.022l-0.225,-0.022l-0.226,-0.021l-0.226,-0.021l-0.226,-0.02l-0.227,-0.019l-0.226,-0.018l-0.228,-0.017l-0.227,-0.017l-0.228,-0.016l-0.228,-0.015l-0.229,-0.015l-0.229,-0.014l-0.229,-0.013l-0.23,-0.012l-0.23,-0.011l-0.23,-0.011l-0.231,-0.01l-0.231,-0.009l-0.231,-0.009l-0.232,-0.008l-0.232,-0.007l-0.232,-0.006l-0.232,-0.005l-0.233,-0.005l-0.234,-0.004l-0.233,-0.003l-0.234,-0.003l-0.235,-0.001l-0.234,-0.001l-0.235,0l-0.235,0Z"/></g><path d="M94.388,70.626l14.595,-55.462l18.681,54.294c0,0 -9.875,1.029 -8.176,15.465" style="fill:#fff;stroke:#000;stroke-width:4.86px;"/><clipPath id="_clip2"><path d="M109.071,12.787l3.266,81.571l39.662,-20.301l-42.928,-61.27Z"/></clipPath><g clip-path="url(#_clip2)"><path d="M94.388,70.626l14.595,-55.462l18.681,54.294c0,0 -9.875,1.029 -8.176,15.465" style="fill-opacity:0.301961;"/></g><path d="M56.364,110.499l-40.733,-40.371l56.36,10.968c0,0 -4.046,9.067 9.305,14.814" style="fill:#fff;stroke:#000;stroke-width:4.86px;"/><clipPath id="_clip3"><path d="M13.616,68.863l72.276,37.957l2.25,-44.498l-74.526,6.541Z"/></clipPath><g clip-path="url(#_clip3)"><path d="M56.364,110.499l-40.733,-40.371l56.36,10.968c0,0 -4.046,9.067 9.305,14.814" style="fill-opacity:0.301961;"/></g><path d="M94.427,159.565l-50.658,26.884l27.234,-50.549c0,0 7.453,6.56 16.91,-4.478" style="fill:#fff;stroke:#000;stroke-width:4.86px;"/><clipPath id="_clip4"><path d="M41.962,187.996l57.735,-57.717l-41.816,-15.382l-15.919,73.099Z"/></clipPath><g clip-path="url(#_clip4)"><path d="M94.427,159.565l-50.658,26.884l27.234,-50.549c0,0 7.453,6.56 16.91,-4.478" style="fill-opacity:0.301961;"/></g><path d="M154.017,138.504l19.393,53.97l-46.153,-34.156c0,0 7.554,-6.442 -2.024,-17.376" style="fill:#fff;stroke:#000;stroke-width:4.86px;"/><clipPath id="_clip5"><path d="M174.685,194.483l-48.905,-65.367l-21.181,39.199l70.086,26.168Z"/></clipPath><g clip-path="url(#_clip5)"><path d="M154.017,138.504l19.393,53.97l-46.153,-34.156c0,0 7.554,-6.442 -2.024,-17.376" style="fill-opacity:0.301961;"/></g><path d="M154.049,78.7l56.86,-7.478l-43.187,37.838c0,0 -4.689,-8.751 -17.409,-1.716" style="fill:#fff;stroke:#000;stroke-width:4.86px;"/><clipPath id="_clip6"><path d="M213.143,70.404l-74.27,33.891l33.801,29.03l40.469,-62.921Z"/></clipPath><g clip-path="url(#_clip6)"><path d="M154.049,78.7l56.86,-7.478l-43.187,37.838c0,0 -4.689,-8.751 -17.409,-1.716" style="fill-opacity:0.301961;"/></g></g></svg>