<?xml version="1.0" encoding="UTF-8" standalone="no"?><!DOCTYPE svg PUBLIC "-//W3C//DTD SVG 1.1//EN" "http://www.w3.org/Graphics/SVG/1.1/DTD/svg11.dtd"><svg width="100%" height="100%" viewBox="0 0 84 995" version="1.1" xmlns="http://www.w3.org/2000/svg" xmlns:xlink="http://www.w3.org/1999/xlink" xml:space="preserve" xmlns:serif="http://www.serif.com/" style="fill-rule:evenodd;clip-rule:evenodd;stroke-linecap:round;stroke-linejoin:round;stroke-miterlimit:1.5;"><g id="polearm"><path d="M32.543,385.443l-2.028,0.025l-14.611,-18.168c4.67,-26.699 9.888,-30.764 9.888,-61.034c0,-45.33 -7.005,-57.499 -7.005,-144.381c0,-86.883 23.157,-146.063 23.157,-146.063l0.273,0c0,0 23.157,59.18 23.157,146.063c0,86.882 -8.463,98.02 -8.463,143.35c0,30.269 6.677,35.366 11.347,62.065l-14.019,17.874l-2.241,0.027l-2.494,25.901l0,551.687c-0.02,6.89 -0.138,12.272 -0.701,13.044c-4.135,5.663 -9.893,3.775 -11.666,0.174c-1.061,-2.155 -1.236,-5.351 -1.279,-12.947l0,-547.14l-3.315,-30.477Z" style="fill:#fff;stroke:#fff;stroke-width:30px;"/></g></svg>