<?xml version="1.0" encoding="UTF-8" standalone="no"?><!DOCTYPE svg PUBLIC "-//W3C//DTD SVG 1.1//EN" "http://www.w3.org/Graphics/SVG/1.1/DTD/svg11.dtd"><svg width="100%" height="100%" viewBox="0 0 74 51" version="1.1" xmlns="http://www.w3.org/2000/svg" xmlns:xlink="http://www.w3.org/1999/xlink" xml:space="preserve" xmlns:serif="http://www.serif.com/" style="fill-rule:evenodd;clip-rule:evenodd;stroke-linecap:round;stroke-linejoin:round;stroke-miterlimit:1.5;"><g id="chain"><path d="M34.779,15.153c12.858,-0.453 23.68,1.718 23.742,10.983c0.06,8.846 -15.633,9.662 -23.306,9.683c-7.09,0.02 -19.071,-0.424 -19.297,-9.769c-0.227,-9.346 6.003,-10.443 18.861,-10.897Z" style="fill:none;stroke:#fff;stroke-width:30px;"/><path d="M38.058,9.098l0.314,0.001l0.314,0.003l0.312,0.003l0.313,0.005l0.311,0.007l0.311,0.007l0.31,0.009l0.31,0.01l0.308,0.012l0.308,0.013l0.308,0.014l0.306,0.016l0.306,0.017l0.305,0.018l0.304,0.02l0.303,0.022l0.303,0.023l0.302,0.025l0.301,0.026l0.3,0.027l0.299,0.03l0.298,0.031l0.298,0.032l0.296,0.034l0.296,0.036l0.295,0.038l0.294,0.04l0.293,0.041l0.292,0.043l0.291,0.045l0.29,0.047l0.289,0.049l0.288,0.051l0.288,0.053l0.287,0.055l0.285,0.057l0.285,0.059l0.283,0.061l0.282,0.064l0.282,0.066l0.28,0.068l0.28,0.07l0.278,0.073l0.278,0.075l0.277,0.078l0.275,0.081l0.273,0.083l0.274,0.085l0.273,0.089l0.27,0.091l0.27,0.094l0.27,0.098l0.267,0.1l0.267,0.103l0.264,0.106l0.264,0.109l0.264,0.114l0.263,0.117l0.259,0.119l0.258,0.122l0.259,0.128l0.256,0.131l0.254,0.134l0.254,0.139l0.241,0.136l0.136,0.079l0.125,0.074l0.124,0.074l0.124,0.076l0.123,0.077l0.122,0.077l0.123,0.079l0.121,0.08l0.121,0.081l0.124,0.084l0.12,0.083l0.119,0.084l0.118,0.085l0.122,0.089l0.117,0.087l0.117,0.088l0.119,0.092l0.115,0.091l0.114,0.091l0.113,0.092l0.117,0.097l0.116,0.099l0.111,0.095l0.115,0.101l0.113,0.102l0.104,0.095l0.112,0.104l0.111,0.105l0.106,0.103l0.113,0.111l0.103,0.105l0.103,0.105l0.111,0.116l0.1,0.108l0.104,0.113l0.103,0.115l0.098,0.111l0.1,0.117l0.1,0.117l0.098,0.12l0.097,0.12l0.096,0.121l0.095,0.123l0.093,0.123l0.093,0.125l0.09,0.125l0.09,0.127l0.088,0.128l0.087,0.128l0.085,0.13l0.084,0.131l0.083,0.131l0.085,0.139l0.079,0.133l0.079,0.135l0.08,0.141l0.072,0.13l0.077,0.143l0.076,0.145l0.067,0.131l0.073,0.146l0.07,0.147l0.066,0.141l0.065,0.141l0.066,0.149l0.061,0.142l0.059,0.144l0.064,0.158l0.056,0.144l0.055,0.145l0.059,0.161l0.051,0.145l0.05,0.147l0.05,0.154l0.049,0.155l0.047,0.155l0.043,0.149l0.044,0.156l0.042,0.156l0.04,0.157l0.039,0.157l0.035,0.15l0.035,0.158l0.034,0.158l0.032,0.158l0.03,0.159l0.028,0.158l0.028,0.167l0.025,0.159l0.023,0.152l0.022,0.159l0.02,0.16l0.019,0.159l0.018,0.168l0.015,0.16l0.014,0.159l0.013,0.168l0.011,0.16l0.009,0.16l0.008,0.16l0.006,0.161l0.005,0.167l0.003,0.161l0.003,0.167l0,0.187l-0.003,0.189l-0.006,0.182l-0.007,0.181l-0.011,0.19l-0.014,0.19l-0.015,0.183l-0.019,0.183l-0.022,0.19l-0.024,0.183l-0.026,0.183l-0.03,0.183l-0.032,0.183l-0.035,0.182l-0.037,0.183l-0.041,0.182l-0.043,0.182l-0.047,0.181l-0.047,0.173l-0.049,0.173l-0.055,0.18l-0.057,0.179l-0.058,0.171l-0.06,0.17l-0.063,0.169l-0.068,0.176l-0.068,0.168l-0.071,0.166l-0.073,0.165l-0.075,0.165l-0.078,0.163l-0.08,0.162l-0.083,0.161l-0.082,0.153l-0.083,0.152l-0.089,0.157l-0.092,0.155l-0.09,0.148l-0.096,0.152l-0.094,0.145l-0.095,0.144l-0.102,0.148l-0.096,0.135l-0.101,0.138l-0.107,0.144l-0.105,0.136l-0.102,0.129l-0.108,0.133l-0.109,0.131l-0.107,0.125l-0.112,0.128l-0.114,0.126l-0.111,0.12l-0.112,0.119l-0.118,0.121l-0.114,0.116l-0.116,0.114l-0.121,0.117l-0.119,0.111l-0.119,0.11l-0.12,0.108l-0.117,0.103l-0.122,0.105l-0.123,0.104l-0.124,0.103l-0.125,0.101l-0.121,0.096l-0.127,0.098l-0.123,0.094l-0.124,0.092l-0.129,0.094l-0.126,0.09l-0.126,0.088l-0.13,0.09l-0.128,0.086l-0.125,0.083l-0.129,0.083l-0.129,0.083l-0.133,0.083l-0.128,0.078l-0.128,0.077l-0.135,0.08l-0.128,0.074l-0.13,0.074l-0.133,0.075l-0.13,0.071l-0.131,0.07l-0.135,0.072l-0.132,0.068l-0.14,0.072l-0.257,0.128l-0.266,0.128l-0.267,0.124l-0.269,0.121l-0.269,0.117l-0.271,0.113l-0.27,0.11l-0.271,0.106l-0.271,0.103l-0.273,0.1l-0.273,0.097l-0.272,0.094l-0.274,0.091l-0.275,0.088l-0.273,0.085l-0.275,0.083l-0.276,0.081l-0.275,0.078l-0.276,0.075l-0.275,0.073l-0.277,0.071l-0.276,0.068l-0.276,0.066l-0.276,0.065l-0.277,0.062l-0.276,0.06l-0.276,0.058l-0.276,0.057l-0.277,0.054l-0.276,0.053l-0.276,0.051l-0.275,0.049l-0.275,0.047l-0.275,0.046l-0.275,0.044l-0.274,0.043l-0.273,0.041l-0.274,0.039l-0.273,0.038l-0.271,0.037l-0.271,0.035l-0.271,0.034l-0.27,0.032l-0.268,0.031l-0.269,0.03l-0.267,0.029l-0.266,0.027l-0.265,0.027l-0.264,0.025l-0.263,0.024l-0.262,0.023l-0.26,0.021l-0.259,0.021l-0.258,0.02l-0.256,0.018l-0.255,0.018l-0.258,0.017l-0.497,0.031l-0.495,0.027l-0.487,0.024l-0.48,0.021l-0.471,0.018l-0.462,0.015l-0.453,0.013l-0.443,0.011l-0.432,0.008l-0.421,0.007l-0.411,0.004l-0.397,0.003l-0.384,0.002l-0.352,0.001l-0.36,-0.001l-0.368,-0.001l-0.377,-0.003l-0.386,-0.004l-0.393,-0.007l-0.4,-0.008l-0.408,-0.01l-0.414,-0.013l-0.42,-0.016l-0.427,-0.018l-0.431,-0.022l-0.432,-0.025l-0.226,-0.014l-0.221,-0.015l-0.223,-0.016l-0.224,-0.017l-0.225,-0.018l-0.226,-0.02l-0.227,-0.02l-0.228,-0.021l-0.229,-0.023l-0.229,-0.024l-0.231,-0.025l-0.231,-0.026l-0.233,-0.028l-0.233,-0.03l-0.234,-0.03l-0.234,-0.032l-0.235,-0.034l-0.236,-0.035l-0.237,-0.037l-0.237,-0.039l-0.237,-0.04l-0.238,-0.042l-0.239,-0.044l-0.239,-0.046l-0.239,-0.047l-0.241,-0.05l-0.24,-0.051l-0.241,-0.054l-0.241,-0.055l-0.242,-0.059l-0.241,-0.06l-0.241,-0.062l-0.243,-0.065l-0.243,-0.067l-0.242,-0.07l-0.244,-0.073l-0.241,-0.075l-0.243,-0.078l-0.244,-0.081l-0.244,-0.084l-0.243,-0.086l-0.242,-0.09l-0.243,-0.093l-0.244,-0.096l-0.242,-0.1l-0.241,-0.103l-0.244,-0.107l-0.242,-0.11l-0.241,-0.114l-0.242,-0.119l-0.241,-0.122l-0.239,-0.126l-0.238,-0.13l-0.239,-0.135l-0.239,-0.14l-0.237,-0.144l-0.226,-0.142l-0.127,-0.083l-0.117,-0.077l-0.116,-0.078l-0.115,-0.079l-0.12,-0.083l-0.114,-0.082l-0.114,-0.082l-0.118,-0.087l-0.112,-0.085l-0.113,-0.086l-0.115,-0.09l-0.115,-0.092l-0.11,-0.089l-0.114,-0.094l-0.113,-0.096l-0.107,-0.092l-0.111,-0.098l-0.111,-0.099l-0.11,-0.101l-0.108,-0.101l-0.108,-0.103l-0.107,-0.104l-0.106,-0.105l-0.104,-0.107l-0.104,-0.107l-0.107,-0.114l-0.102,-0.11l-0.101,-0.112l-0.099,-0.112l-0.099,-0.114l-0.101,-0.12l-0.101,-0.121l-0.094,-0.117l-0.094,-0.118l-0.096,-0.125l-0.095,-0.126l-0.094,-0.128l-0.088,-0.122l-0.091,-0.13l-0.089,-0.13l-0.089,-0.132l-0.086,-0.133l-0.08,-0.127l-0.084,-0.135l-0.086,-0.143l-0.08,-0.137l-0.078,-0.137l-0.077,-0.139l-0.075,-0.14l-0.077,-0.147l-0.072,-0.141l-0.07,-0.142l-0.072,-0.15l-0.066,-0.143l-0.065,-0.144l-0.067,-0.152l-0.064,-0.153l-0.063,-0.154l-0.057,-0.147l-0.056,-0.147l-0.058,-0.155l-0.057,-0.164l-0.051,-0.149l-0.051,-0.156l-0.049,-0.158l-0.048,-0.157l-0.045,-0.159l-0.044,-0.158l-0.044,-0.167l-0.038,-0.151l-0.038,-0.159l-0.038,-0.168l-0.034,-0.16l-0.033,-0.16l-0.032,-0.168l-0.031,-0.168l-0.026,-0.161l-0.026,-0.161l-0.024,-0.168l-0.023,-0.169l-0.02,-0.161l-0.018,-0.161l-0.018,-0.177l-0.016,-0.169l-0.013,-0.161l-0.012,-0.169l-0.01,-0.169l-0.008,-0.169l-0.007,-0.169l-0.005,-0.169l-0.005,-0.283l-0.002,-0.28l0,-0.276l0.004,-0.279l0.008,-0.278l0.01,-0.277l0.014,-0.276l0.017,-0.27l0.021,-0.275l0.025,-0.273l0.027,-0.269l0.033,-0.276l0.036,-0.271l0.04,-0.266l0.044,-0.27l0.047,-0.265l0.052,-0.268l0.059,-0.272l0.06,-0.262l0.066,-0.266l0.071,-0.265l0.071,-0.247l0.043,-0.144l0.043,-0.135l0.043,-0.136l0.039,-0.117l0.046,-0.135l0.048,-0.134l0.046,-0.125l0.05,-0.134l0.048,-0.125l0.05,-0.124l0.054,-0.132l0.052,-0.124l0.053,-0.123l0.062,-0.139l0.056,-0.122l0.057,-0.121l0.062,-0.13l0.06,-0.12l0.065,-0.128l0.062,-0.119l0.064,-0.119l0.069,-0.126l0.071,-0.126l0.067,-0.116l0.069,-0.116l0.074,-0.123l0.076,-0.123l0.073,-0.113l0.074,-0.114l0.079,-0.119l0.076,-0.111l0.083,-0.118l0.078,-0.11l0.08,-0.108l0.091,-0.123l0.082,-0.106l0.083,-0.106l0.09,-0.112l0.085,-0.104l0.087,-0.103l0.092,-0.108l0.095,-0.108l0.089,-0.099l0.09,-0.099l0.097,-0.104l0.098,-0.102l0.094,-0.096l0.094,-0.094l0.1,-0.099l0.102,-0.097l0.097,-0.091l0.097,-0.09l0.098,-0.089l0.105,-0.092l0.105,-0.091l0.106,-0.09l0.101,-0.084l0.113,-0.092l0.203,-0.16l0.211,-0.159l0.215,-0.157l0.221,-0.154l0.217,-0.145l0.221,-0.143l0.223,-0.137l0.223,-0.133l0.229,-0.131l0.224,-0.123l0.228,-0.12l0.229,-0.116l0.229,-0.112l0.231,-0.108l0.231,-0.105l0.233,-0.1l0.232,-0.097l0.235,-0.094l0.233,-0.09l0.235,-0.087l0.236,-0.083l0.235,-0.081l0.239,-0.078l0.236,-0.075l0.238,-0.072l0.238,-0.07l0.24,-0.067l0.241,-0.065l0.24,-0.062l0.241,-0.06l0.242,-0.058l0.244,-0.055l0.244,-0.054l0.244,-0.052l0.246,-0.05l0.246,-0.048l0.247,-0.046l0.249,-0.044l0.249,-0.043l0.25,-0.041l0.252,-0.04l0.252,-0.039l0.254,-0.037l0.255,-0.035l0.256,-0.034l0.257,-0.033l0.258,-0.032l0.26,-0.031l0.261,-0.029l0.262,-0.028l0.263,-0.027l0.266,-0.027l0.266,-0.025l0.268,-0.024l0.269,-0.024l0.271,-0.022l0.273,-0.022l0.273,-0.021l0.276,-0.02l0.277,-0.019l0.283,-0.019l0.558,-0.035l0.568,-0.033l0.576,-0.03l0.582,-0.029l0.59,-0.026l0.597,-0.025l0.604,-0.024l0.614,-0.022l0.319,-0.011l0.319,-0.009l0.318,-0.009l0.319,-0.008l0.318,-0.006l0.317,-0.006l0.317,-0.004l0.316,-0.004l0.316,-0.002l0.316,-0.001l0.314,0.001Zm-0.6,6l-0.294,0.002l-0.295,0.003l-0.296,0.004l-0.297,0.006l-0.298,0.006l-0.299,0.007l-0.299,0.008l-0.3,0.009l-0.301,0.01l-0.598,0.022l-0.588,0.023l-0.579,0.024l-0.568,0.026l-0.559,0.027l-0.55,0.029l-0.54,0.031l-0.53,0.033l-0.261,0.018l-0.259,0.018l-0.256,0.019l-0.254,0.019l-0.252,0.02l-0.249,0.021l-0.247,0.021l-0.245,0.022l-0.242,0.023l-0.239,0.024l-0.238,0.025l-0.234,0.025l-0.233,0.026l-0.23,0.027l-0.227,0.028l-0.225,0.029l-0.223,0.03l-0.221,0.03l-0.217,0.032l-0.216,0.033l-0.213,0.034l-0.211,0.034l-0.208,0.036l-0.206,0.037l-0.203,0.038l-0.201,0.039l-0.199,0.041l-0.196,0.041l-0.194,0.043l-0.191,0.044l-0.189,0.045l-0.187,0.046l-0.184,0.048l-0.182,0.049l-0.18,0.05l-0.177,0.052l-0.174,0.053l-0.172,0.054l-0.17,0.056l-0.168,0.057l-0.165,0.059l-0.162,0.06l-0.16,0.062l-0.158,0.063l-0.156,0.064l-0.153,0.067l-0.15,0.068l-0.148,0.069l-0.146,0.071l-0.144,0.073l-0.141,0.074l-0.138,0.076l-0.137,0.078l-0.133,0.08l-0.132,0.081l-0.129,0.083l-0.127,0.085l-0.124,0.087l-0.122,0.088l-0.119,0.091l-0.117,0.092l-0.058,0.047l-0.057,0.047l-0.057,0.048l-0.055,0.049l-0.056,0.048l-0.054,0.05l-0.054,0.05l-0.054,0.05l-0.053,0.051l-0.052,0.051l-0.052,0.052l-0.051,0.052l-0.05,0.053l-0.05,0.053l-0.05,0.054l-0.048,0.055l-0.048,0.054l-0.048,0.056l-0.047,0.056l-0.046,0.056l-0.046,0.057l-0.045,0.058l-0.045,0.058l-0.043,0.059l-0.044,0.059l-0.043,0.059l-0.042,0.061l-0.041,0.06l-0.041,0.062l-0.041,0.062l-0.039,0.062l-0.039,0.063l-0.039,0.064l-0.038,0.064l-0.037,0.065l-0.037,0.065l-0.036,0.066l-0.036,0.066l-0.035,0.068l-0.034,0.067l-0.034,0.068l-0.033,0.069l-0.033,0.07l-0.032,0.07l-0.032,0.07l-0.03,0.071l-0.031,0.072l-0.029,0.073l-0.029,0.073l-0.029,0.073l-0.028,0.074l-0.027,0.075l-0.027,0.076l-0.026,0.076l-0.025,0.077l-0.025,0.077l-0.024,0.078l-0.024,0.078l-0.046,0.16l-0.043,0.161l-0.041,0.165l-0.038,0.166l-0.037,0.17l-0.033,0.172l-0.032,0.175l-0.029,0.177l-0.026,0.181l-0.025,0.183l-0.022,0.185l-0.019,0.189l-0.017,0.191l-0.015,0.194l-0.013,0.197l-0.01,0.2l-0.007,0.203l-0.006,0.206l-0.003,0.208l0,0.212l0.002,0.214l0.004,0.218l0.003,0.109l0.004,0.108l0.005,0.108l0.007,0.106l0.007,0.106l0.009,0.105l0.009,0.105l0.011,0.103l0.011,0.103l0.013,0.102l0.014,0.101l0.014,0.1l0.016,0.1l0.017,0.099l0.017,0.098l0.019,0.097l0.019,0.096l0.021,0.096l0.022,0.095l0.022,0.094l0.024,0.094l0.024,0.092l0.025,0.092l0.027,0.092l0.027,0.09l0.028,0.09l0.029,0.089l0.03,0.088l0.031,0.087l0.032,0.087l0.032,0.086l0.034,0.086l0.035,0.084l0.035,0.084l0.036,0.083l0.037,0.083l0.038,0.082l0.039,0.081l0.04,0.08l0.04,0.08l0.042,0.079l0.042,0.078l0.043,0.078l0.044,0.077l0.044,0.076l0.046,0.075l0.046,0.075l0.047,0.074l0.048,0.074l0.049,0.073l0.049,0.072l0.05,0.072l0.051,0.07l0.052,0.071l0.052,0.069l0.053,0.069l0.054,0.069l0.055,0.067l0.056,0.067l0.056,0.067l0.057,0.065l0.057,0.065l0.058,0.065l0.059,0.064l0.06,0.063l0.06,0.063l0.062,0.062l0.061,0.061l0.063,0.061l0.063,0.06l0.063,0.059l0.065,0.059l0.065,0.059l0.066,0.057l0.066,0.058l0.067,0.056l0.067,0.056l0.069,0.056l0.068,0.054l0.07,0.055l0.07,0.053l0.07,0.054l0.071,0.052l0.072,0.052l0.073,0.051l0.073,0.051l0.073,0.051l0.074,0.049l0.075,0.05l0.075,0.048l0.152,0.096l0.154,0.094l0.156,0.091l0.158,0.089l0.16,0.088l0.162,0.085l0.164,0.083l0.165,0.081l0.168,0.079l0.169,0.077l0.171,0.076l0.172,0.073l0.174,0.072l0.176,0.069l0.177,0.068l0.179,0.066l0.18,0.064l0.181,0.063l0.183,0.06l0.183,0.059l0.186,0.058l0.186,0.055l0.187,0.054l0.189,0.053l0.189,0.05l0.191,0.05l0.191,0.047l0.192,0.046l0.193,0.045l0.194,0.043l0.195,0.042l0.195,0.04l0.196,0.039l0.196,0.038l0.197,0.036l0.198,0.035l0.198,0.033l0.198,0.032l0.199,0.031l0.199,0.03l0.199,0.029l0.2,0.027l0.199,0.026l0.2,0.025l0.2,0.024l0.2,0.023l0.2,0.022l0.199,0.021l0.2,0.019l0.199,0.019l0.2,0.018l0.198,0.017l0.199,0.016l0.198,0.015l0.198,0.014l0.198,0.013l0.197,0.013l0.392,0.023l0.389,0.019l0.387,0.017l0.383,0.014l0.379,0.012l0.376,0.01l0.371,0.007l0.366,0.006l0.36,0.004l0.355,0.003l0.349,0.001l0.343,0.001l0.336,-0.001l0.365,-0.002l0.377,-0.002l0.387,-0.005l0.398,-0.006l0.407,-0.008l0.416,-0.01l0.424,-0.012l0.433,-0.014l0.44,-0.017l0.446,-0.02l0.453,-0.022l0.459,-0.025l0.464,-0.029l0.234,-0.015l0.235,-0.017l0.236,-0.017l0.236,-0.018l0.238,-0.019l0.239,-0.02l0.239,-0.021l0.24,-0.021l0.241,-0.023l0.241,-0.024l0.242,-0.025l0.242,-0.026l0.243,-0.027l0.242,-0.028l0.243,-0.03l0.243,-0.03l0.244,-0.031l0.243,-0.033l0.243,-0.034l0.243,-0.035l0.243,-0.037l0.243,-0.037l0.242,-0.039l0.242,-0.041l0.241,-0.041l0.241,-0.043l0.24,-0.044l0.24,-0.046l0.239,-0.047l0.238,-0.049l0.237,-0.05l0.237,-0.051l0.235,-0.053l0.234,-0.055l0.233,-0.056l0.232,-0.057l0.23,-0.059l0.23,-0.061l0.227,-0.062l0.227,-0.064l0.225,-0.066l0.223,-0.067l0.221,-0.069l0.22,-0.071l0.218,-0.072l0.216,-0.075l0.214,-0.076l0.212,-0.077l0.21,-0.08l0.207,-0.081l0.206,-0.084l0.203,-0.085l0.201,-0.087l0.198,-0.089l0.196,-0.091l0.193,-0.093l0.191,-0.095l0.094,-0.048l0.094,-0.049l0.093,-0.049l0.092,-0.05l0.092,-0.05l0.091,-0.051l0.09,-0.051l0.089,-0.052l0.089,-0.052l0.088,-0.053l0.087,-0.054l0.086,-0.054l0.085,-0.054l0.085,-0.055l0.084,-0.056l0.083,-0.056l0.083,-0.056l0.081,-0.058l0.081,-0.057l0.08,-0.058l0.079,-0.059l0.078,-0.06l0.077,-0.06l0.077,-0.06l0.075,-0.061l0.075,-0.062l0.074,-0.062l0.072,-0.063l0.072,-0.063l0.071,-0.064l0.07,-0.065l0.069,-0.065l0.069,-0.065l0.067,-0.067l0.066,-0.066l0.065,-0.068l0.065,-0.068l0.063,-0.068l0.062,-0.07l0.062,-0.07l0.06,-0.07l0.059,-0.071l0.058,-0.072l0.057,-0.072l0.057,-0.073l0.055,-0.073l0.054,-0.075l0.053,-0.074l0.051,-0.076l0.051,-0.076l0.05,-0.076l0.048,-0.078l0.048,-0.078l0.046,-0.078l0.045,-0.079l0.044,-0.08l0.043,-0.081l0.042,-0.081l0.04,-0.082l0.04,-0.082l0.038,-0.083l0.037,-0.084l0.035,-0.084l0.035,-0.085l0.033,-0.086l0.032,-0.087l0.031,-0.087l0.03,-0.087l0.028,-0.089l0.027,-0.089l0.026,-0.09l0.025,-0.09l0.023,-0.092l0.022,-0.091l0.02,-0.093l0.02,-0.093l0.018,-0.094l0.016,-0.095l0.016,-0.095l0.014,-0.096l0.012,-0.097l0.012,-0.098l0.009,-0.098l0.009,-0.099l0.007,-0.1l0.006,-0.1l0.004,-0.101l0.003,-0.102l0.001,-0.102l0,-0.104l-0.001,-0.108l-0.002,-0.108l-0.003,-0.107l-0.004,-0.106l-0.005,-0.106l-0.007,-0.105l-0.007,-0.104l-0.008,-0.104l-0.009,-0.103l-0.01,-0.102l-0.01,-0.102l-0.012,-0.101l-0.013,-0.101l-0.014,-0.1l-0.015,-0.099l-0.015,-0.099l-0.017,-0.098l-0.017,-0.098l-0.019,-0.096l-0.019,-0.097l-0.02,-0.095l-0.021,-0.095l-0.022,-0.095l-0.024,-0.093l-0.023,-0.093l-0.025,-0.093l-0.026,-0.092l-0.027,-0.091l-0.027,-0.091l-0.029,-0.09l-0.029,-0.09l-0.03,-0.088l-0.031,-0.089l-0.032,-0.087l-0.033,-0.088l-0.034,-0.086l-0.034,-0.086l-0.036,-0.085l-0.036,-0.085l-0.037,-0.084l-0.039,-0.084l-0.038,-0.083l-0.04,-0.082l-0.041,-0.082l-0.041,-0.081l-0.043,-0.081l-0.043,-0.08l-0.044,-0.08l-0.045,-0.079l-0.045,-0.078l-0.047,-0.078l-0.047,-0.077l-0.048,-0.077l-0.049,-0.076l-0.05,-0.075l-0.051,-0.075l-0.051,-0.075l-0.052,-0.074l-0.053,-0.073l-0.054,-0.073l-0.055,-0.072l-0.055,-0.072l-0.056,-0.071l-0.057,-0.07l-0.058,-0.07l-0.059,-0.07l-0.059,-0.069l-0.06,-0.068l-0.061,-0.068l-0.062,-0.067l-0.062,-0.067l-0.063,-0.066l-0.064,-0.066l-0.065,-0.065l-0.065,-0.065l-0.067,-0.064l-0.067,-0.063l-0.067,-0.063l-0.069,-0.063l-0.069,-0.062l-0.07,-0.061l-0.071,-0.061l-0.071,-0.061l-0.072,-0.06l-0.073,-0.059l-0.073,-0.059l-0.075,-0.058l-0.075,-0.058l-0.075,-0.058l-0.077,-0.056l-0.077,-0.057l-0.078,-0.056l-0.078,-0.055l-0.079,-0.055l-0.08,-0.054l-0.081,-0.054l-0.081,-0.053l-0.082,-0.053l-0.083,-0.052l-0.083,-0.052l-0.084,-0.052l-0.085,-0.051l-0.085,-0.05l-0.086,-0.05l-0.174,-0.098l-0.176,-0.097l-0.18,-0.094l-0.181,-0.093l-0.185,-0.091l-0.186,-0.089l-0.19,-0.087l-0.191,-0.085l-0.195,-0.083l-0.196,-0.082l-0.199,-0.08l-0.201,-0.078l-0.204,-0.076l-0.206,-0.074l-0.208,-0.073l-0.211,-0.071l-0.213,-0.069l-0.215,-0.067l-0.217,-0.066l-0.22,-0.064l-0.221,-0.063l-0.224,-0.06l-0.226,-0.06l-0.227,-0.057l-0.23,-0.056l-0.232,-0.054l-0.234,-0.053l-0.236,-0.051l-0.238,-0.049l-0.239,-0.048l-0.242,-0.046l-0.243,-0.045l-0.246,-0.043l-0.247,-0.042l-0.249,-0.04l-0.25,-0.039l-0.253,-0.038l-0.254,-0.035l-0.256,-0.035l-0.257,-0.033l-0.26,-0.031l-0.26,-0.031l-0.263,-0.028l-0.264,-0.028l-0.265,-0.026l-0.267,-0.024l-0.269,-0.024l-0.27,-0.022l-0.271,-0.02l-0.273,-0.019l-0.274,-0.019l-0.276,-0.016l-0.277,-0.016l-0.278,-0.014l-0.28,-0.013l-0.28,-0.012l-0.283,-0.01l-0.283,-0.01l-0.284,-0.008l-0.286,-0.007l-0.287,-0.006l-0.288,-0.004l-0.289,-0.004l-0.29,-0.002l-0.291,-0.001l-0.292,-0.001l-0.293,0.001Z" style="fill:none;"/><path d="M38.05,12.441l0.301,0.002l0.3,0.002l0.3,0.004l0.299,0.005l0.297,0.006l0.297,0.007l0.296,0.008l0.295,0.01l0.294,0.011l0.293,0.012l0.292,0.014l0.29,0.015l0.29,0.016l0.288,0.018l0.288,0.018l0.287,0.021l0.285,0.021l0.284,0.024l0.283,0.024l0.281,0.026l0.28,0.028l0.28,0.028l0.278,0.031l0.276,0.032l0.276,0.033l0.274,0.035l0.272,0.037l0.272,0.038l0.27,0.04l0.268,0.042l0.267,0.043l0.266,0.045l0.264,0.047l0.264,0.048l0.261,0.05l0.26,0.052l0.259,0.054l0.256,0.055l0.256,0.058l0.253,0.059l0.253,0.062l0.251,0.063l0.249,0.065l0.247,0.067l0.246,0.069l0.244,0.072l0.242,0.073l0.241,0.076l0.24,0.078l0.237,0.079l0.236,0.083l0.234,0.084l0.231,0.087l0.231,0.089l0.228,0.091l0.226,0.094l0.225,0.097l0.223,0.099l0.22,0.101l0.219,0.104l0.217,0.107l0.215,0.11l0.212,0.112l0.211,0.115l0.204,0.115l0.108,0.063l0.102,0.061l0.103,0.061l0.101,0.062l0.101,0.063l0.1,0.064l0.1,0.064l0.099,0.065l0.099,0.066l0.099,0.068l0.097,0.067l0.097,0.068l0.096,0.068l0.096,0.071l0.095,0.07l0.094,0.072l0.094,0.073l0.092,0.072l0.092,0.073l0.091,0.074l0.092,0.077l0.091,0.077l0.088,0.076l0.09,0.079l0.089,0.08l0.084,0.077l0.087,0.081l0.087,0.082l0.083,0.081l0.087,0.085l0.082,0.083l0.081,0.083l0.084,0.088l0.079,0.085l0.081,0.088l0.079,0.089l0.077,0.087l0.078,0.09l0.076,0.091l0.076,0.092l0.075,0.092l0.074,0.093l0.072,0.095l0.072,0.095l0.071,0.095l0.07,0.097l0.068,0.097l0.068,0.098l0.067,0.099l0.065,0.099l0.065,0.1l0.063,0.101l0.064,0.105l0.061,0.102l0.061,0.103l0.06,0.107l0.056,0.102l0.059,0.108l0.057,0.109l0.053,0.103l0.054,0.111l0.054,0.111l0.051,0.108l0.049,0.109l0.05,0.113l0.048,0.11l0.046,0.111l0.048,0.118l0.043,0.112l0.043,0.113l0.043,0.12l0.04,0.114l0.039,0.114l0.039,0.118l0.038,0.119l0.036,0.12l0.034,0.116l0.033,0.12l0.033,0.121l0.031,0.122l0.03,0.121l0.028,0.119l0.027,0.123l0.026,0.123l0.025,0.124l0.024,0.124l0.022,0.125l0.022,0.128l0.019,0.126l0.019,0.122l0.017,0.126l0.016,0.127l0.015,0.127l0.014,0.131l0.013,0.128l0.011,0.128l0.01,0.132l0.009,0.129l0.007,0.13l0.006,0.129l0.005,0.131l0.004,0.133l0.003,0.131l0.002,0.135l0,0.14l-0.002,0.141l-0.004,0.137l-0.006,0.137l-0.008,0.14l-0.01,0.14l-0.012,0.136l-0.013,0.135l-0.016,0.139l-0.018,0.135l-0.019,0.134l-0.022,0.135l-0.024,0.133l-0.025,0.133l-0.027,0.133l-0.03,0.132l-0.031,0.132l-0.034,0.131l-0.035,0.127l-0.036,0.127l-0.039,0.129l-0.041,0.129l-0.042,0.124l-0.044,0.124l-0.046,0.123l-0.049,0.126l-0.049,0.121l-0.051,0.121l-0.053,0.12l-0.055,0.119l-0.056,0.118l-0.058,0.118l-0.06,0.116l-0.06,0.113l-0.062,0.111l-0.064,0.114l-0.067,0.113l-0.066,0.108l-0.069,0.111l-0.07,0.107l-0.07,0.106l-0.074,0.107l-0.072,0.102l-0.075,0.102l-0.078,0.105l-0.078,0.101l-0.077,0.097l-0.08,0.099l-0.081,0.098l-0.081,0.094l-0.084,0.096l-0.085,0.094l-0.084,0.091l-0.086,0.091l-0.088,0.091l-0.088,0.089l-0.089,0.087l-0.091,0.089l-0.091,0.085l-0.092,0.085l-0.093,0.083l-0.092,0.081l-0.094,0.082l-0.096,0.08l-0.096,0.08l-0.098,0.079l-0.096,0.076l-0.099,0.077l-0.099,0.074l-0.098,0.074l-0.102,0.074l-0.1,0.072l-0.102,0.071l-0.103,0.071l-0.104,0.07l-0.101,0.067l-0.105,0.068l-0.104,0.067l-0.108,0.067l-0.105,0.064l-0.105,0.064l-0.109,0.064l-0.107,0.062l-0.108,0.061l-0.109,0.061l-0.109,0.06l-0.109,0.059l-0.112,0.059l-0.11,0.058l-0.115,0.058l-0.22,0.11l-0.226,0.108l-0.227,0.106l-0.23,0.103l-0.231,0.1l-0.233,0.098l-0.234,0.095l-0.235,0.092l-0.237,0.09l-0.239,0.088l-0.241,0.085l-0.24,0.083l-0.243,0.081l-0.244,0.078l-0.245,0.076l-0.245,0.075l-0.248,0.072l-0.248,0.07l-0.249,0.068l-0.249,0.066l-0.252,0.065l-0.251,0.062l-0.252,0.06l-0.253,0.059l-0.253,0.057l-0.254,0.056l-0.255,0.053l-0.255,0.052l-0.255,0.051l-0.256,0.048l-0.256,0.048l-0.256,0.045l-0.257,0.044l-0.256,0.043l-0.257,0.041l-0.256,0.04l-0.257,0.039l-0.256,0.037l-0.257,0.035l-0.255,0.035l-0.256,0.033l-0.255,0.032l-0.255,0.031l-0.254,0.029l-0.254,0.028l-0.253,0.028l-0.253,0.026l-0.252,0.024l-0.251,0.024l-0.25,0.023l-0.249,0.022l-0.249,0.021l-0.246,0.019l-0.247,0.019l-0.245,0.018l-0.243,0.017l-0.245,0.016l-0.478,0.029l-0.475,0.027l-0.468,0.023l-0.462,0.02l-0.453,0.017l-0.446,0.015l-0.437,0.013l-0.428,0.01l-0.418,0.008l-0.408,0.006l-0.398,0.005l-0.386,0.003l-0.373,0.001l-0.343,0.001l-0.35,0l-0.358,-0.002l-0.365,-0.003l-0.371,-0.004l-0.378,-0.006l-0.384,-0.008l-0.39,-0.01l-0.395,-0.012l-0.399,-0.015l-0.405,-0.017l-0.408,-0.021l-0.409,-0.024l-0.21,-0.013l-0.208,-0.014l-0.209,-0.015l-0.21,-0.016l-0.21,-0.017l-0.211,-0.018l-0.211,-0.019l-0.213,-0.02l-0.212,-0.021l-0.213,-0.022l-0.214,-0.023l-0.213,-0.025l-0.215,-0.025l-0.214,-0.027l-0.215,-0.028l-0.214,-0.03l-0.216,-0.031l-0.215,-0.032l-0.216,-0.033l-0.215,-0.036l-0.216,-0.036l-0.215,-0.038l-0.215,-0.04l-0.216,-0.041l-0.215,-0.042l-0.215,-0.045l-0.215,-0.046l-0.215,-0.048l-0.214,-0.049l-0.214,-0.052l-0.214,-0.053l-0.213,-0.055l-0.213,-0.057l-0.212,-0.059l-0.212,-0.061l-0.211,-0.063l-0.211,-0.065l-0.21,-0.067l-0.209,-0.07l-0.21,-0.072l-0.207,-0.074l-0.207,-0.077l-0.206,-0.079l-0.206,-0.081l-0.204,-0.084l-0.203,-0.087l-0.203,-0.089l-0.202,-0.092l-0.2,-0.094l-0.199,-0.098l-0.198,-0.101l-0.196,-0.103l-0.195,-0.106l-0.194,-0.109l-0.193,-0.113l-0.191,-0.116l-0.184,-0.117l-0.098,-0.063l-0.093,-0.062l-0.093,-0.062l-0.092,-0.063l-0.094,-0.065l-0.09,-0.065l-0.091,-0.065l-0.092,-0.068l-0.089,-0.067l-0.089,-0.068l-0.089,-0.07l-0.09,-0.072l-0.086,-0.07l-0.088,-0.073l-0.088,-0.074l-0.084,-0.073l-0.086,-0.075l-0.085,-0.077l-0.085,-0.077l-0.083,-0.078l-0.083,-0.079l-0.082,-0.08l-0.081,-0.081l-0.081,-0.082l-0.079,-0.082l-0.081,-0.086l-0.078,-0.084l-0.077,-0.085l-0.076,-0.086l-0.075,-0.087l-0.077,-0.09l-0.075,-0.091l-0.072,-0.09l-0.072,-0.09l-0.072,-0.094l-0.072,-0.095l-0.07,-0.095l-0.067,-0.094l-0.068,-0.097l-0.067,-0.098l-0.067,-0.099l-0.064,-0.1l-0.062,-0.098l-0.063,-0.101l-0.064,-0.105l-0.06,-0.103l-0.059,-0.104l-0.058,-0.105l-0.057,-0.105l-0.057,-0.11l-0.054,-0.106l-0.053,-0.108l-0.054,-0.112l-0.05,-0.109l-0.05,-0.109l-0.049,-0.114l-0.049,-0.115l-0.046,-0.115l-0.045,-0.112l-0.043,-0.113l-0.043,-0.117l-0.043,-0.122l-0.039,-0.115l-0.039,-0.119l-0.037,-0.119l-0.036,-0.121l-0.035,-0.12l-0.034,-0.122l-0.033,-0.125l-0.029,-0.119l-0.03,-0.123l-0.029,-0.127l-0.027,-0.125l-0.025,-0.124l-0.025,-0.129l-0.023,-0.129l-0.021,-0.126l-0.02,-0.127l-0.019,-0.13l-0.018,-0.131l-0.015,-0.129l-0.015,-0.128l-0.014,-0.136l-0.012,-0.133l-0.01,-0.13l-0.01,-0.134l-0.008,-0.134l-0.006,-0.135l-0.006,-0.135l-0.004,-0.135l-0.005,-0.247l-0.001,-0.244l0,-0.24l0.004,-0.239l0.006,-0.238l0.009,-0.235l0.011,-0.234l0.015,-0.23l0.017,-0.229l0.021,-0.228l0.023,-0.224l0.027,-0.226l0.029,-0.222l0.033,-0.218l0.035,-0.218l0.039,-0.215l0.042,-0.215l0.046,-0.214l0.048,-0.21l0.052,-0.209l0.056,-0.207l0.056,-0.198l0.033,-0.108l0.032,-0.103l0.033,-0.103l0.032,-0.095l0.034,-0.102l0.037,-0.102l0.035,-0.097l0.038,-0.1l0.037,-0.097l0.038,-0.095l0.04,-0.099l0.04,-0.095l0.041,-0.094l0.045,-0.101l0.043,-0.093l0.043,-0.092l0.046,-0.096l0.046,-0.091l0.047,-0.095l0.048,-0.09l0.047,-0.089l0.051,-0.093l0.052,-0.092l0.051,-0.088l0.051,-0.087l0.055,-0.09l0.055,-0.089l0.055,-0.085l0.055,-0.085l0.058,-0.087l0.057,-0.083l0.06,-0.086l0.058,-0.081l0.059,-0.082l0.065,-0.086l0.062,-0.08l0.061,-0.079l0.066,-0.081l0.063,-0.078l0.065,-0.076l0.067,-0.079l0.069,-0.078l0.067,-0.075l0.067,-0.073l0.07,-0.076l0.072,-0.075l0.07,-0.071l0.07,-0.071l0.074,-0.072l0.075,-0.072l0.072,-0.068l0.074,-0.068l0.073,-0.066l0.077,-0.069l0.078,-0.067l0.079,-0.066l0.076,-0.064l0.082,-0.067l0.155,-0.122l0.16,-0.121l0.164,-0.119l0.166,-0.116l0.167,-0.112l0.17,-0.109l0.172,-0.106l0.174,-0.104l0.177,-0.101l0.176,-0.097l0.179,-0.094l0.182,-0.092l0.183,-0.089l0.184,-0.087l0.187,-0.084l0.188,-0.081l0.189,-0.079l0.193,-0.077l0.192,-0.074l0.194,-0.072l0.197,-0.07l0.197,-0.068l0.201,-0.065l0.2,-0.064l0.203,-0.061l0.204,-0.06l0.206,-0.058l0.208,-0.056l0.209,-0.054l0.211,-0.052l0.212,-0.051l0.215,-0.049l0.216,-0.047l0.217,-0.046l0.22,-0.045l0.221,-0.043l0.223,-0.042l0.225,-0.04l0.226,-0.039l0.228,-0.038l0.23,-0.036l0.232,-0.035l0.234,-0.034l0.235,-0.033l0.238,-0.032l0.239,-0.03l0.241,-0.03l0.243,-0.029l0.246,-0.027l0.246,-0.027l0.249,-0.026l0.251,-0.025l0.253,-0.023l0.255,-0.024l0.257,-0.022l0.258,-0.021l0.261,-0.021l0.263,-0.02l0.265,-0.02l0.267,-0.018l0.271,-0.018l0.542,-0.034l0.553,-0.032l0.561,-0.03l0.569,-0.028l0.578,-0.026l0.587,-0.024l0.595,-0.023l0.605,-0.022l0.309,-0.011l0.308,-0.009l0.308,-0.008l0.308,-0.008l0.306,-0.006l0.306,-0.005l0.306,-0.005l0.304,-0.003l0.304,-0.002l0.303,-0.001l0.302,0Zm-0.592,2.657l-0.294,0.002l-0.295,0.003l-0.296,0.004l-0.297,0.006l-0.298,0.006l-0.299,0.007l-0.299,0.008l-0.3,0.009l-0.301,0.01l-0.598,0.022l-0.588,0.023l-0.579,0.024l-0.568,0.026l-0.559,0.027l-0.55,0.029l-0.54,0.031l-0.53,0.033l-0.261,0.018l-0.259,0.018l-0.256,0.019l-0.254,0.019l-0.252,0.02l-0.249,0.021l-0.247,0.021l-0.245,0.022l-0.242,0.023l-0.239,0.024l-0.238,0.025l-0.234,0.025l-0.233,0.026l-0.23,0.027l-0.227,0.028l-0.225,0.029l-0.223,0.03l-0.221,0.03l-0.217,0.032l-0.216,0.033l-0.213,0.034l-0.211,0.034l-0.208,0.036l-0.206,0.037l-0.203,0.038l-0.201,0.039l-0.199,0.041l-0.196,0.041l-0.194,0.043l-0.191,0.044l-0.189,0.045l-0.187,0.046l-0.184,0.048l-0.182,0.049l-0.18,0.05l-0.177,0.052l-0.174,0.053l-0.172,0.054l-0.17,0.056l-0.168,0.057l-0.165,0.059l-0.162,0.06l-0.16,0.062l-0.158,0.063l-0.156,0.064l-0.153,0.067l-0.15,0.068l-0.148,0.069l-0.146,0.071l-0.144,0.073l-0.141,0.074l-0.138,0.076l-0.137,0.078l-0.133,0.08l-0.132,0.081l-0.129,0.083l-0.127,0.085l-0.124,0.087l-0.122,0.088l-0.119,0.091l-0.117,0.092l-0.058,0.047l-0.057,0.047l-0.057,0.048l-0.055,0.049l-0.056,0.048l-0.054,0.05l-0.054,0.05l-0.054,0.05l-0.053,0.051l-0.052,0.051l-0.052,0.052l-0.051,0.052l-0.05,0.053l-0.05,0.053l-0.05,0.054l-0.048,0.055l-0.048,0.054l-0.048,0.056l-0.047,0.056l-0.046,0.056l-0.046,0.057l-0.045,0.058l-0.045,0.058l-0.043,0.059l-0.044,0.059l-0.043,0.059l-0.042,0.061l-0.041,0.06l-0.041,0.062l-0.041,0.062l-0.039,0.062l-0.039,0.063l-0.039,0.064l-0.038,0.064l-0.037,0.065l-0.037,0.065l-0.036,0.066l-0.036,0.066l-0.035,0.068l-0.034,0.067l-0.034,0.068l-0.033,0.069l-0.033,0.07l-0.032,0.07l-0.032,0.07l-0.03,0.071l-0.031,0.072l-0.029,0.073l-0.029,0.073l-0.029,0.073l-0.028,0.074l-0.027,0.075l-0.027,0.076l-0.026,0.076l-0.025,0.077l-0.025,0.077l-0.024,0.078l-0.024,0.078l-0.046,0.16l-0.043,0.161l-0.041,0.165l-0.038,0.166l-0.037,0.17l-0.033,0.172l-0.032,0.175l-0.029,0.177l-0.026,0.181l-0.025,0.183l-0.022,0.185l-0.019,0.189l-0.017,0.191l-0.015,0.194l-0.013,0.197l-0.01,0.2l-0.007,0.203l-0.006,0.206l-0.003,0.208l0,0.212l0.002,0.214l0.004,0.218l0.003,0.109l0.004,0.108l0.005,0.108l0.007,0.106l0.007,0.106l0.009,0.105l0.009,0.105l0.011,0.103l0.011,0.103l0.013,0.102l0.014,0.101l0.014,0.1l0.016,0.1l0.017,0.099l0.017,0.098l0.019,0.097l0.019,0.096l0.021,0.096l0.022,0.095l0.022,0.094l0.024,0.094l0.024,0.092l0.025,0.092l0.027,0.092l0.027,0.09l0.028,0.09l0.029,0.089l0.03,0.088l0.031,0.087l0.032,0.087l0.032,0.086l0.034,0.086l0.035,0.084l0.035,0.084l0.036,0.083l0.037,0.083l0.038,0.082l0.039,0.081l0.04,0.08l0.04,0.08l0.042,0.079l0.042,0.078l0.043,0.078l0.044,0.077l0.044,0.076l0.046,0.075l0.046,0.075l0.047,0.074l0.048,0.074l0.049,0.073l0.049,0.072l0.05,0.072l0.051,0.07l0.052,0.071l0.052,0.069l0.053,0.069l0.054,0.069l0.055,0.067l0.056,0.067l0.056,0.067l0.057,0.065l0.057,0.065l0.058,0.065l0.059,0.064l0.06,0.063l0.06,0.063l0.062,0.062l0.061,0.061l0.063,0.061l0.063,0.06l0.063,0.059l0.065,0.059l0.065,0.059l0.066,0.057l0.066,0.058l0.067,0.056l0.067,0.056l0.069,0.056l0.068,0.054l0.07,0.055l0.07,0.053l0.07,0.054l0.071,0.052l0.072,0.052l0.073,0.051l0.073,0.051l0.073,0.051l0.074,0.049l0.075,0.05l0.075,0.048l0.152,0.096l0.154,0.094l0.156,0.091l0.158,0.089l0.16,0.088l0.162,0.085l0.164,0.083l0.165,0.081l0.168,0.079l0.169,0.077l0.171,0.076l0.172,0.073l0.174,0.072l0.176,0.069l0.177,0.068l0.179,0.066l0.18,0.064l0.181,0.063l0.183,0.06l0.183,0.059l0.186,0.058l0.186,0.055l0.187,0.054l0.189,0.053l0.189,0.05l0.191,0.05l0.191,0.047l0.192,0.046l0.193,0.045l0.194,0.043l0.195,0.042l0.195,0.04l0.196,0.039l0.196,0.038l0.197,0.036l0.198,0.035l0.198,0.033l0.198,0.032l0.199,0.031l0.199,0.03l0.199,0.029l0.2,0.027l0.199,0.026l0.2,0.025l0.2,0.024l0.2,0.023l0.2,0.022l0.199,0.021l0.2,0.019l0.199,0.019l0.2,0.018l0.198,0.017l0.199,0.016l0.198,0.015l0.198,0.014l0.198,0.013l0.197,0.013l0.392,0.023l0.389,0.019l0.387,0.017l0.383,0.014l0.379,0.012l0.376,0.01l0.371,0.007l0.366,0.006l0.36,0.004l0.355,0.003l0.349,0.001l0.343,0.001l0.336,-0.001l0.365,-0.002l0.377,-0.002l0.387,-0.005l0.398,-0.006l0.407,-0.008l0.416,-0.01l0.424,-0.012l0.433,-0.014l0.44,-0.017l0.446,-0.02l0.453,-0.022l0.459,-0.025l0.464,-0.029l0.234,-0.015l0.235,-0.017l0.236,-0.017l0.236,-0.018l0.238,-0.019l0.239,-0.02l0.239,-0.021l0.24,-0.021l0.241,-0.023l0.241,-0.024l0.242,-0.025l0.242,-0.026l0.243,-0.027l0.242,-0.028l0.243,-0.03l0.243,-0.03l0.244,-0.031l0.243,-0.033l0.243,-0.034l0.243,-0.035l0.243,-0.037l0.243,-0.037l0.242,-0.039l0.242,-0.041l0.241,-0.041l0.241,-0.043l0.24,-0.044l0.24,-0.046l0.239,-0.047l0.238,-0.049l0.237,-0.05l0.237,-0.051l0.235,-0.053l0.234,-0.055l0.233,-0.056l0.232,-0.057l0.23,-0.059l0.23,-0.061l0.227,-0.062l0.227,-0.064l0.225,-0.066l0.223,-0.067l0.221,-0.069l0.22,-0.071l0.218,-0.072l0.216,-0.075l0.214,-0.076l0.212,-0.077l0.21,-0.08l0.207,-0.081l0.206,-0.084l0.203,-0.085l0.201,-0.087l0.198,-0.089l0.196,-0.091l0.193,-0.093l0.191,-0.095l0.094,-0.048l0.094,-0.049l0.093,-0.049l0.092,-0.05l0.092,-0.05l0.091,-0.051l0.09,-0.051l0.089,-0.052l0.089,-0.052l0.088,-0.053l0.087,-0.054l0.086,-0.054l0.085,-0.054l0.085,-0.055l0.084,-0.056l0.083,-0.056l0.083,-0.056l0.081,-0.058l0.081,-0.057l0.08,-0.058l0.079,-0.059l0.078,-0.06l0.077,-0.06l0.077,-0.06l0.075,-0.061l0.075,-0.062l0.074,-0.062l0.072,-0.063l0.072,-0.063l0.071,-0.064l0.07,-0.065l0.069,-0.065l0.069,-0.065l0.067,-0.067l0.066,-0.066l0.065,-0.068l0.065,-0.068l0.063,-0.068l0.062,-0.07l0.062,-0.07l0.06,-0.07l0.059,-0.071l0.058,-0.072l0.057,-0.072l0.057,-0.073l0.055,-0.073l0.054,-0.075l0.053,-0.074l0.051,-0.076l0.051,-0.076l0.05,-0.076l0.048,-0.078l0.048,-0.078l0.046,-0.078l0.045,-0.079l0.044,-0.08l0.043,-0.081l0.042,-0.081l0.04,-0.082l0.04,-0.082l0.038,-0.083l0.037,-0.084l0.035,-0.084l0.035,-0.085l0.033,-0.086l0.032,-0.087l0.031,-0.087l0.03,-0.087l0.028,-0.089l0.027,-0.089l0.026,-0.09l0.025,-0.09l0.023,-0.092l0.022,-0.091l0.02,-0.093l0.02,-0.093l0.018,-0.094l0.016,-0.095l0.016,-0.095l0.014,-0.096l0.012,-0.097l0.012,-0.098l0.009,-0.098l0.009,-0.099l0.007,-0.1l0.006,-0.1l0.004,-0.101l0.003,-0.102l0.001,-0.102l0,-0.104l-0.001,-0.108l-0.002,-0.108l-0.003,-0.107l-0.004,-0.106l-0.005,-0.106l-0.007,-0.105l-0.007,-0.104l-0.008,-0.104l-0.009,-0.103l-0.01,-0.102l-0.01,-0.102l-0.012,-0.101l-0.013,-0.101l-0.014,-0.1l-0.015,-0.099l-0.015,-0.099l-0.017,-0.098l-0.017,-0.098l-0.019,-0.096l-0.019,-0.097l-0.02,-0.095l-0.021,-0.095l-0.022,-0.095l-0.024,-0.093l-0.023,-0.093l-0.025,-0.093l-0.026,-0.092l-0.027,-0.091l-0.027,-0.091l-0.029,-0.09l-0.029,-0.09l-0.03,-0.088l-0.031,-0.089l-0.032,-0.087l-0.033,-0.088l-0.034,-0.086l-0.034,-0.086l-0.036,-0.085l-0.036,-0.085l-0.037,-0.084l-0.039,-0.084l-0.038,-0.083l-0.04,-0.082l-0.041,-0.082l-0.041,-0.081l-0.043,-0.081l-0.043,-0.08l-0.044,-0.08l-0.045,-0.079l-0.045,-0.078l-0.047,-0.078l-0.047,-0.077l-0.048,-0.077l-0.049,-0.076l-0.05,-0.075l-0.051,-0.075l-0.051,-0.075l-0.052,-0.074l-0.053,-0.073l-0.054,-0.073l-0.055,-0.072l-0.055,-0.072l-0.056,-0.071l-0.057,-0.07l-0.058,-0.07l-0.059,-0.07l-0.059,-0.069l-0.06,-0.068l-0.061,-0.068l-0.062,-0.067l-0.062,-0.067l-0.063,-0.066l-0.064,-0.066l-0.065,-0.065l-0.065,-0.065l-0.067,-0.064l-0.067,-0.063l-0.067,-0.063l-0.069,-0.063l-0.069,-0.062l-0.07,-0.061l-0.071,-0.061l-0.071,-0.061l-0.072,-0.06l-0.073,-0.059l-0.073,-0.059l-0.075,-0.058l-0.075,-0.058l-0.075,-0.058l-0.077,-0.056l-0.077,-0.057l-0.078,-0.056l-0.078,-0.055l-0.079,-0.055l-0.08,-0.054l-0.081,-0.054l-0.081,-0.053l-0.082,-0.053l-0.083,-0.052l-0.083,-0.052l-0.084,-0.052l-0.085,-0.051l-0.085,-0.05l-0.086,-0.05l-0.174,-0.098l-0.176,-0.097l-0.18,-0.094l-0.181,-0.093l-0.185,-0.091l-0.186,-0.089l-0.19,-0.087l-0.191,-0.085l-0.195,-0.083l-0.196,-0.082l-0.199,-0.08l-0.201,-0.078l-0.204,-0.076l-0.206,-0.074l-0.208,-0.073l-0.211,-0.071l-0.213,-0.069l-0.215,-0.067l-0.217,-0.066l-0.22,-0.064l-0.221,-0.063l-0.224,-0.06l-0.226,-0.06l-0.227,-0.057l-0.23,-0.056l-0.232,-0.054l-0.234,-0.053l-0.236,-0.051l-0.238,-0.049l-0.239,-0.048l-0.242,-0.046l-0.243,-0.045l-0.246,-0.043l-0.247,-0.042l-0.249,-0.04l-0.25,-0.039l-0.253,-0.038l-0.254,-0.035l-0.256,-0.035l-0.257,-0.033l-0.26,-0.031l-0.26,-0.031l-0.263,-0.028l-0.264,-0.028l-0.265,-0.026l-0.267,-0.024l-0.269,-0.024l-0.27,-0.022l-0.271,-0.02l-0.273,-0.019l-0.274,-0.019l-0.276,-0.016l-0.277,-0.016l-0.278,-0.014l-0.28,-0.013l-0.28,-0.012l-0.283,-0.01l-0.283,-0.01l-0.284,-0.008l-0.286,-0.007l-0.287,-0.006l-0.288,-0.004l-0.289,-0.004l-0.29,-0.002l-0.291,-0.001l-0.292,-0.001l-0.293,0.001Zm-2.658,1.516l0.226,0.002l0.228,0.003l0.23,0.004l0.239,0.005l0.239,0.007l0.238,0.007l0.237,0.009l0.236,0.009l0.235,0.01l0.234,0.011l0.233,0.013l0.233,0.013l0.231,0.014l0.231,0.015l0.229,0.016l0.229,0.017l0.227,0.018l0.226,0.019l0.226,0.02l0.224,0.021l0.223,0.022l0.222,0.023l0.221,0.024l0.22,0.025l0.219,0.026l0.217,0.027l0.216,0.028l0.215,0.029l0.214,0.03l0.213,0.031l0.211,0.032l0.21,0.033l0.208,0.033l0.208,0.035l0.206,0.036l0.204,0.037l0.203,0.038l0.202,0.039l0.2,0.04l0.199,0.041l0.198,0.041l0.196,0.043l0.194,0.044l0.193,0.045l0.192,0.046l0.189,0.047l0.189,0.048l0.187,0.049l0.185,0.05l0.183,0.051l0.182,0.052l0.18,0.053l0.179,0.054l0.177,0.055l0.175,0.056l0.173,0.057l0.172,0.058l0.169,0.059l0.169,0.06l0.166,0.061l0.164,0.063l0.163,0.063l0.161,0.064l0.158,0.065l0.157,0.067l0.156,0.067l0.153,0.068l0.151,0.07l0.149,0.07l0.147,0.072l0.145,0.072l0.144,0.074l0.141,0.074l0.139,0.076l0.137,0.077l0.135,0.077l0.133,0.079l0.13,0.08l0.129,0.081l0.126,0.082l0.124,0.083l0.122,0.084l0.12,0.085l0.118,0.086l0.115,0.087l0.113,0.088l0.111,0.089l0.108,0.091l0.106,0.091l0.104,0.092l0.101,0.094l0.099,0.094l0.097,0.096l0.094,0.096l0.091,0.098l0.09,0.099l0.086,0.1l0.085,0.101l0.081,0.102l0.08,0.103l0.076,0.104l0.074,0.105l0.072,0.106l0.069,0.108l0.066,0.108l0.064,0.109l0.061,0.111l0.058,0.112l0.056,0.112l0.052,0.114l0.051,0.115l0.047,0.116l0.045,0.117l0.042,0.118l0.019,0.059l0.02,0.06l0.018,0.06l0.018,0.06l0.017,0.061l0.016,0.061l0.016,0.061l0.015,0.061l0.014,0.062l0.014,0.062l0.012,0.062l0.012,0.062l0.012,0.063l0.01,0.063l0.01,0.063l0.009,0.064l0.009,0.063l0.007,0.065l0.007,0.064l0.006,0.065l0.006,0.064l0.004,0.066l0.004,0.065l0.003,0.066l0.003,0.066l0.001,0.066l0.001,0.067l0,0.066l0,0.067l-0.002,0.068l-0.002,0.067l-0.003,0.068l-0.004,0.069l-0.004,0.068l-0.011,0.137l-0.013,0.135l-0.014,0.135l-0.017,0.134l-0.018,0.132l-0.02,0.132l-0.023,0.13l-0.024,0.13l-0.026,0.128l-0.028,0.128l-0.03,0.126l-0.032,0.125l-0.034,0.125l-0.036,0.123l-0.038,0.122l-0.04,0.121l-0.042,0.12l-0.044,0.119l-0.046,0.118l-0.048,0.117l-0.05,0.116l-0.052,0.115l-0.054,0.114l-0.056,0.113l-0.059,0.111l-0.06,0.111l-0.062,0.11l-0.064,0.108l-0.067,0.108l-0.068,0.106l-0.071,0.105l-0.072,0.104l-0.075,0.104l-0.077,0.102l-0.079,0.101l-0.081,0.1l-0.083,0.099l-0.085,0.097l-0.088,0.097l-0.089,0.096l-0.092,0.094l-0.094,0.094l-0.096,0.092l-0.098,0.092l-0.1,0.09l-0.103,0.089l-0.104,0.088l-0.107,0.087l-0.109,0.086l-0.111,0.084l-0.114,0.084l-0.115,0.083l-0.118,0.081l-0.12,0.081l-0.122,0.079l-0.125,0.078l-0.127,0.077l-0.129,0.076l-0.131,0.075l-0.133,0.074l-0.136,0.072l-0.138,0.072l-0.14,0.07l-0.143,0.07l-0.144,0.068l-0.148,0.067l-0.149,0.066l-0.152,0.065l-0.154,0.063l-0.156,0.063l-0.159,0.061l-0.161,0.061l-0.163,0.059l-0.166,0.058l-0.168,0.057l-0.17,0.056l-0.173,0.054l-0.175,0.054l-0.177,0.052l-0.18,0.052l-0.182,0.05l-0.184,0.049l-0.187,0.048l-0.19,0.046l-0.191,0.046l-0.195,0.044l-0.196,0.044l-0.199,0.042l-0.202,0.041l-0.203,0.04l-0.207,0.038l-0.208,0.038l-0.211,0.036l-0.214,0.035l-0.216,0.034l-0.219,0.033l-0.221,0.032l-0.223,0.031l-0.226,0.029l-0.229,0.028l-0.231,0.027l-0.233,0.026l-0.236,0.025l-0.239,0.023l-0.241,0.023l-0.243,0.021l-0.246,0.02l-0.249,0.019l-0.251,0.018l-0.254,0.016l-0.256,0.015l-0.259,0.015l-0.262,0.013l-0.264,0.011l-0.266,0.011l-0.269,0.009l-0.272,0.008l-0.274,0.007l-0.277,0.006l-0.28,0.005l-0.282,0.003l-0.285,0.003l-0.287,0.001l-0.291,-0.001l-0.292,-0.001l-0.296,-0.003l-0.298,-0.003l-0.3,-0.005l-0.273,-0.006l-0.27,-0.007l-0.267,-0.008l-0.264,-0.009l-0.261,-0.01l-0.258,-0.012l-0.255,-0.012l-0.252,-0.014l-0.249,-0.015l-0.246,-0.016l-0.243,-0.018l-0.24,-0.018l-0.238,-0.02l-0.234,-0.02l-0.232,-0.022l-0.229,-0.023l-0.225,-0.024l-0.224,-0.026l-0.22,-0.026l-0.217,-0.028l-0.215,-0.028l-0.212,-0.03l-0.209,-0.031l-0.207,-0.032l-0.203,-0.033l-0.201,-0.034l-0.198,-0.036l-0.196,-0.036l-0.193,-0.038l-0.19,-0.039l-0.187,-0.039l-0.185,-0.041l-0.182,-0.042l-0.18,-0.043l-0.177,-0.045l-0.174,-0.045l-0.172,-0.046l-0.169,-0.048l-0.167,-0.048l-0.164,-0.05l-0.161,-0.051l-0.159,-0.051l-0.157,-0.053l-0.154,-0.054l-0.151,-0.055l-0.149,-0.056l-0.146,-0.057l-0.145,-0.059l-0.141,-0.059l-0.139,-0.06l-0.137,-0.062l-0.134,-0.062l-0.132,-0.064l-0.13,-0.064l-0.127,-0.066l-0.125,-0.066l-0.123,-0.068l-0.12,-0.069l-0.118,-0.069l-0.115,-0.071l-0.114,-0.072l-0.111,-0.073l-0.108,-0.074l-0.107,-0.075l-0.104,-0.075l-0.102,-0.077l-0.1,-0.078l-0.097,-0.079l-0.096,-0.08l-0.093,-0.081l-0.091,-0.082l-0.089,-0.083l-0.087,-0.084l-0.084,-0.085l-0.083,-0.086l-0.08,-0.087l-0.079,-0.088l-0.076,-0.089l-0.074,-0.09l-0.072,-0.091l-0.07,-0.092l-0.068,-0.093l-0.066,-0.094l-0.065,-0.095l-0.062,-0.096l-0.06,-0.097l-0.058,-0.097l-0.056,-0.099l-0.054,-0.1l-0.052,-0.101l-0.051,-0.101l-0.048,-0.103l-0.047,-0.104l-0.044,-0.104l-0.043,-0.106l-0.041,-0.106l-0.039,-0.107l-0.038,-0.109l-0.035,-0.109l-0.034,-0.11l-0.032,-0.111l-0.03,-0.112l-0.028,-0.113l-0.027,-0.114l-0.025,-0.115l-0.023,-0.116l-0.021,-0.117l-0.02,-0.117l-0.018,-0.119l-0.016,-0.119l-0.015,-0.121l-0.013,-0.121l-0.011,-0.122l-0.01,-0.123l-0.008,-0.124l-0.007,-0.125l-0.005,-0.126l-0.003,-0.127l-0.002,-0.127l0,-0.129l0.001,-0.129l0.003,-0.131l0.004,-0.131l0.006,-0.132l0.008,-0.133l0.008,-0.133l0.011,-0.135l0.012,-0.136l0.012,-0.129l0.015,-0.128l0.016,-0.128l0.018,-0.126l0.02,-0.125l0.021,-0.125l0.023,-0.123l0.025,-0.122l0.027,-0.121l0.028,-0.121l0.031,-0.119l0.032,-0.118l0.033,-0.118l0.035,-0.116l0.038,-0.115l0.038,-0.114l0.041,-0.113l0.042,-0.113l0.044,-0.111l0.046,-0.11l0.048,-0.109l0.049,-0.108l0.051,-0.107l0.052,-0.106l0.055,-0.105l0.056,-0.104l0.058,-0.103l0.059,-0.102l0.062,-0.101l0.063,-0.1l0.064,-0.099l0.067,-0.098l0.068,-0.097l0.07,-0.096l0.072,-0.095l0.073,-0.093l0.075,-0.093l0.077,-0.092l0.079,-0.091l0.08,-0.089l0.082,-0.089l0.084,-0.088l0.085,-0.086l0.087,-0.086l0.089,-0.084l0.091,-0.084l0.092,-0.082l0.094,-0.081l0.096,-0.081l0.097,-0.079l0.099,-0.078l0.101,-0.077l0.103,-0.077l0.104,-0.075l0.106,-0.074l0.108,-0.073l0.109,-0.072l0.111,-0.071l0.113,-0.07l0.115,-0.069l0.116,-0.067l0.118,-0.067l0.12,-0.066l0.121,-0.065l0.123,-0.063l0.125,-0.063l0.127,-0.061l0.128,-0.061l0.13,-0.059l0.131,-0.058l0.134,-0.058l0.135,-0.056l0.136,-0.055l0.139,-0.054l0.14,-0.053l0.142,-0.052l0.144,-0.051l0.145,-0.05l0.147,-0.049l0.148,-0.048l0.151,-0.046l0.152,-0.046l0.154,-0.045l0.155,-0.043l0.157,-0.042l0.159,-0.042l0.161,-0.04l0.162,-0.039l0.164,-0.038l0.165,-0.038l0.168,-0.036l0.169,-0.034l0.17,-0.034l0.173,-0.033l0.174,-0.032l0.176,-0.03l0.177,-0.03l0.179,-0.028l0.181,-0.028l0.183,-0.026l0.184,-0.025l0.186,-0.025l0.187,-0.023l0.19,-0.022l0.191,-0.021l0.192,-0.019l0.195,-0.019l0.196,-0.018l0.197,-0.016l0.2,-0.016l0.201,-0.014l0.203,-0.014l0.204,-0.012l0.206,-0.011l0.208,-0.01l0.209,-0.009l0.212,-0.008l0.212,-0.007l0.215,-0.005l0.216,-0.005l0.218,-0.003l0.22,-0.003l0.221,-0.001l0.223,0l0.224,0.001Zm-0.438,2.655l-0.208,0.001l-0.207,0.003l-0.204,0.003l-0.202,0.004l-0.2,0.006l-0.199,0.006l-0.197,0.007l-0.194,0.009l-0.193,0.009l-0.191,0.01l-0.189,0.011l-0.187,0.013l-0.186,0.013l-0.183,0.014l-0.181,0.015l-0.18,0.017l-0.177,0.017l-0.176,0.018l-0.174,0.019l-0.171,0.02l-0.17,0.021l-0.168,0.021l-0.166,0.023l-0.163,0.024l-0.162,0.024l-0.16,0.026l-0.158,0.026l-0.156,0.027l-0.154,0.028l-0.152,0.029l-0.15,0.03l-0.148,0.031l-0.146,0.031l-0.144,0.032l-0.142,0.033l-0.14,0.034l-0.138,0.035l-0.136,0.035l-0.134,0.036l-0.132,0.037l-0.13,0.038l-0.128,0.038l-0.126,0.039l-0.123,0.04l-0.122,0.04l-0.12,0.041l-0.118,0.042l-0.116,0.043l-0.113,0.043l-0.113,0.044l-0.109,0.044l-0.107,0.044l-0.106,0.046l-0.105,0.046l-0.1,0.046l-0.1,0.047l-0.098,0.048l-0.096,0.048l-0.094,0.049l-0.092,0.049l-0.09,0.049l-0.087,0.049l-0.086,0.05l-0.085,0.052l-0.084,0.051l-0.08,0.052l-0.077,0.051l-0.077,0.052l-0.076,0.053l-0.073,0.052l-0.072,0.054l-0.07,0.053l-0.067,0.053l-0.067,0.054l-0.064,0.055l-0.065,0.055l-0.061,0.055l-0.06,0.056l-0.059,0.055l-0.056,0.056l-0.056,0.056l-0.054,0.056l-0.052,0.057l-0.051,0.057l-0.052,0.06l-0.048,0.057l-0.046,0.057l-0.047,0.06l-0.045,0.06l-0.042,0.057l-0.044,0.062l-0.041,0.061l-0.04,0.061l-0.039,0.062l-0.038,0.062l-0.036,0.063l-0.036,0.064l-0.035,0.064l-0.033,0.065l-0.033,0.066l-0.032,0.066l-0.031,0.068l-0.029,0.068l-0.029,0.07l-0.028,0.07l-0.027,0.071l-0.026,0.072l-0.024,0.073l-0.024,0.075l-0.024,0.078l-0.021,0.074l-0.021,0.075l-0.02,0.081l-0.019,0.081l-0.018,0.081l-0.017,0.083l-0.016,0.084l-0.015,0.085l-0.013,0.084l-0.012,0.088l-0.012,0.092l-0.01,0.091l-0.01,0.093l-0.009,0.107l-0.008,0.108l-0.007,0.103l-0.006,0.105l-0.004,0.103l-0.003,0.102l-0.003,0.101l-0.001,0.097l0,0.095l0.002,0.097l0.002,0.093l0.004,0.091l0.005,0.091l0.005,0.088l0.007,0.088l0.008,0.083l0.009,0.085l0.01,0.083l0.011,0.08l0.012,0.078l0.013,0.079l0.014,0.076l0.015,0.074l0.016,0.073l0.016,0.07l0.018,0.07l0.019,0.07l0.019,0.069l0.021,0.068l0.021,0.063l0.021,0.063l0.023,0.062l0.024,0.062l0.024,0.06l0.026,0.06l0.026,0.059l0.028,0.058l0.028,0.058l0.029,0.054l0.03,0.057l0.031,0.054l0.032,0.053l0.034,0.055l0.033,0.051l0.035,0.053l0.039,0.054l0.038,0.052l0.038,0.05l0.039,0.05l0.043,0.052l0.045,0.052l0.044,0.05l0.047,0.05l0.048,0.05l0.05,0.051l0.053,0.052l0.054,0.05l0.055,0.049l0.056,0.049l0.061,0.051l0.062,0.051l0.064,0.049l0.067,0.051l0.068,0.05l0.07,0.048l0.075,0.051l0.075,0.05l0.078,0.049l0.081,0.05l0.084,0.049l0.086,0.05l0.088,0.048l0.091,0.049l0.095,0.049l0.097,0.048l0.099,0.048l0.103,0.047l0.105,0.047l0.108,0.047l0.111,0.047l0.114,0.046l0.116,0.045l0.12,0.045l0.123,0.045l0.125,0.044l0.129,0.043l0.132,0.043l0.135,0.043l0.137,0.041l0.141,0.041l0.144,0.041l0.147,0.039l0.15,0.039l0.153,0.039l0.156,0.037l0.159,0.037l0.162,0.036l0.166,0.035l0.168,0.034l0.172,0.034l0.175,0.032l0.177,0.032l0.181,0.031l0.184,0.03l0.188,0.029l0.19,0.028l0.194,0.027l0.196,0.026l0.2,0.026l0.203,0.024l0.206,0.023l0.21,0.023l0.212,0.021l0.215,0.02l0.22,0.02l0.222,0.018l0.225,0.017l0.228,0.017l0.232,0.015l0.235,0.014l0.238,0.013l0.241,0.012l0.245,0.011l0.248,0.01l0.251,0.008l0.254,0.008l0.258,0.007l0.261,0.005l0.29,0.005l0.288,0.003l0.285,0.003l0.282,0.001l0.279,0l0.276,-0.001l0.273,-0.002l0.271,-0.003l0.268,-0.004l0.265,-0.006l0.262,-0.007l0.259,-0.008l0.257,-0.009l0.254,-0.01l0.251,-0.011l0.248,-0.012l0.245,-0.013l0.242,-0.015l0.24,-0.016l0.237,-0.016l0.234,-0.018l0.232,-0.019l0.228,-0.02l0.226,-0.021l0.223,-0.022l0.22,-0.023l0.217,-0.024l0.215,-0.025l0.211,-0.026l0.209,-0.027l0.206,-0.029l0.204,-0.029l0.2,-0.03l0.198,-0.031l0.195,-0.032l0.192,-0.033l0.19,-0.034l0.186,-0.035l0.184,-0.036l0.181,-0.037l0.178,-0.038l0.176,-0.039l0.172,-0.039l0.169,-0.04l0.168,-0.042l0.164,-0.042l0.162,-0.042l0.158,-0.044l0.156,-0.045l0.154,-0.045l0.15,-0.046l0.148,-0.047l0.144,-0.047l0.142,-0.048l0.14,-0.049l0.137,-0.05l0.133,-0.05l0.132,-0.051l0.128,-0.051l0.126,-0.052l0.123,-0.053l0.12,-0.053l0.118,-0.053l0.115,-0.055l0.112,-0.054l0.11,-0.055l0.107,-0.056l0.105,-0.056l0.102,-0.056l0.098,-0.056l0.098,-0.058l0.095,-0.058l0.092,-0.058l0.088,-0.057l0.088,-0.059l0.086,-0.059l0.082,-0.058l0.08,-0.059l0.078,-0.06l0.076,-0.06l0.073,-0.059l0.071,-0.06l0.069,-0.06l0.068,-0.061l0.065,-0.061l0.064,-0.061l0.06,-0.06l0.06,-0.062l0.059,-0.063l0.056,-0.062l0.053,-0.06l0.052,-0.063l0.052,-0.064l0.049,-0.063l0.048,-0.063l0.046,-0.063l0.044,-0.064l0.044,-0.066l0.043,-0.067l0.04,-0.065l0.039,-0.065l0.039,-0.068l0.037,-0.069l0.035,-0.067l0.034,-0.068l0.035,-0.073l0.031,-0.07l0.031,-0.072l0.031,-0.073l0.027,-0.072l0.029,-0.078l0.027,-0.076l0.025,-0.077l0.025,-0.078l0.023,-0.08l0.022,-0.08l0.021,-0.082l0.02,-0.085l0.019,-0.085l0.017,-0.085l0.016,-0.087l0.016,-0.091l0.014,-0.092l0.013,-0.091l0.011,-0.095l0.011,-0.093l0.008,-0.096l0.008,-0.102l0.003,-0.038l0.002,-0.037l0.002,-0.043l0.001,-0.036l0.001,-0.031l0,-0.041l0,-0.041l-0.001,-0.034l0,-0.034l-0.002,-0.034l-0.001,-0.033l-0.002,-0.037l-0.003,-0.038l-0.002,-0.026l-0.004,-0.037l-0.004,-0.036l-0.003,-0.03l-0.004,-0.03l-0.004,-0.03l-0.007,-0.04l-0.004,-0.028l-0.006,-0.029l-0.006,-0.033l-0.007,-0.034l-0.006,-0.027l-0.006,-0.027l-0.009,-0.038l-0.007,-0.027l-0.007,-0.026l-0.009,-0.032l-0.009,-0.031l-0.01,-0.031l-0.008,-0.026l-0.008,-0.022l-0.023,-0.067l-0.022,-0.057l-0.025,-0.06l-0.024,-0.056l-0.026,-0.057l-0.029,-0.058l-0.031,-0.058l-0.032,-0.058l-0.035,-0.06l-0.035,-0.058l-0.036,-0.056l-0.04,-0.06l-0.042,-0.06l-0.044,-0.06l-0.046,-0.06l-0.047,-0.058l-0.052,-0.062l-0.054,-0.062l-0.053,-0.059l-0.058,-0.062l-0.062,-0.063l-0.061,-0.06l-0.065,-0.063l-0.067,-0.062l-0.07,-0.062l-0.073,-0.063l-0.075,-0.062l-0.078,-0.063l-0.08,-0.063l-0.083,-0.062l-0.086,-0.063l-0.088,-0.062l-0.091,-0.063l-0.093,-0.063l-0.096,-0.061l-0.097,-0.062l-0.101,-0.062l-0.105,-0.061l-0.106,-0.061l-0.108,-0.061l-0.111,-0.061l-0.113,-0.059l-0.117,-0.06l-0.118,-0.059l-0.121,-0.059l-0.123,-0.058l-0.126,-0.058l-0.128,-0.057l-0.13,-0.057l-0.133,-0.056l-0.135,-0.055l-0.138,-0.055l-0.139,-0.054l-0.141,-0.054l-0.145,-0.053l-0.145,-0.052l-0.148,-0.051l-0.151,-0.051l-0.153,-0.051l-0.154,-0.049l-0.157,-0.049l-0.158,-0.048l-0.161,-0.047l-0.162,-0.047l-0.165,-0.045l-0.166,-0.045l-0.169,-0.044l-0.17,-0.044l-0.172,-0.042l-0.173,-0.042l-0.176,-0.041l-0.178,-0.04l-0.179,-0.039l-0.181,-0.038l-0.182,-0.038l-0.184,-0.036l-0.186,-0.036l-0.188,-0.035l-0.189,-0.034l-0.19,-0.033l-0.193,-0.033l-0.194,-0.031l-0.195,-0.031l-0.197,-0.03l-0.198,-0.028l-0.2,-0.028l-0.201,-0.027l-0.202,-0.027l-0.204,-0.025l-0.205,-0.024l-0.207,-0.024l-0.208,-0.022l-0.209,-0.022l-0.21,-0.02l-0.212,-0.02l-0.213,-0.019l-0.214,-0.018l-0.215,-0.017l-0.216,-0.016l-0.218,-0.016l-0.218,-0.014l-0.22,-0.014l-0.22,-0.012l-0.222,-0.012l-0.223,-0.01l-0.224,-0.01l-0.225,-0.009l-0.225,-0.008l-0.227,-0.007l-0.227,-0.006l-0.229,-0.005l-0.217,-0.004l-0.215,-0.003l-0.214,-0.002l-0.211,-0.001l-0.21,0Z" style="fill:none;"/></g></svg>