<?xml version="1.0" encoding="UTF-8" standalone="no"?><!DOCTYPE svg PUBLIC "-//W3C//DTD SVG 1.1//EN" "http://www.w3.org/Graphics/SVG/1.1/DTD/svg11.dtd"><svg width="100%" height="100%" viewBox="0 0 266 407" version="1.1" xmlns="http://www.w3.org/2000/svg" xmlns:xlink="http://www.w3.org/1999/xlink" xml:space="preserve" xmlns:serif="http://www.serif.com/" style="fill-rule:evenodd;clip-rule:evenodd;stroke-linecap:round;stroke-linejoin:round;stroke-miterlimit:1.5;"><g><g><path d="M181.71,333.352l0.485,-0.456c0,0 -1.461,-26.85 -26.119,-47.125c-24.658,-20.274 -44.567,-2.009 -44.567,-2.009c0,0 -15.124,29.848 -20.611,45.905c-3.06,-0.187 -6.824,0.169 -8.431,2.681c-2.923,4.566 -6.576,9.498 -4.567,15.708c2.01,6.21 5.845,10.229 14.613,10.776c8.767,0.548 3.287,-13.151 3.287,-13.151c0,0 -8.95,-3.47 -9.498,-5.479c-0.548,-2.009 10.777,2.009 10.777,2.009l-0.039,-0.28c11.41,2.78 32.784,3.282 49.422,3.184c-0.162,1.26 -0.31,2.798 -0.343,4.371l-11.779,1.492c0,0 0.731,27.398 0.548,30.686c-0.182,3.288 -5.479,2.557 -3.47,7.672c2.009,5.114 30.138,-1.827 30.138,-1.827l0.126,-27.608l14.121,2.128c21.54,0.182 9.694,-28.642 9.68,-28.677l-3.773,0Zm-54.311,52.878c0,0 -28.128,6.941 -30.137,1.827c-2.01,-5.114 3.287,-4.384 3.47,-7.671c0.183,-3.288 -0.548,-30.686 -0.548,-30.686l27.398,-3.471l-0.183,40.001Z" style="fill:#fff;stroke:#fff;stroke-width:30px;"/><path d="M181.71,333.352l0.485,-0.456c0,0 -1.461,-26.85 -26.119,-47.125c-24.658,-20.274 -44.567,-2.009 -44.567,-2.009c0,0 -15.124,29.848 -20.611,45.905c-3.06,-0.187 -6.824,0.169 -8.431,2.681c-2.923,4.566 -6.576,9.498 -4.567,15.708c2.01,6.21 5.845,10.229 14.613,10.776c8.767,0.548 3.287,-13.151 3.287,-13.151c0,0 -8.95,-3.47 -9.498,-5.479c-0.548,-2.009 10.777,2.009 10.777,2.009l-0.039,-0.28c11.41,2.78 32.784,3.282 49.422,3.184c-0.162,1.26 -0.31,2.798 -0.343,4.371l-11.779,1.492c0,0 0.731,27.398 0.548,30.686c-0.182,3.288 -5.479,2.557 -3.47,7.672c2.009,5.114 30.138,-1.827 30.138,-1.827l0.126,-27.608l14.121,2.128c21.54,0.182 9.694,-28.642 9.68,-28.677l-3.773,0Zm-54.311,52.878c0,0 -28.128,6.941 -30.137,1.827c-2.01,-5.114 3.287,-4.384 3.47,-7.671c0.183,-3.288 -0.548,-30.686 -0.548,-30.686l27.398,-3.471l-0.183,40.001Z" style="fill:none;"/><path d="M149.135,358.011c-5.114,-1.827 -2.192,-15.891 -2.192,-15.891l10.96,-8.768l27.58,0c0,0 11.873,28.86 -9.68,28.677" style="fill:none;"/><path d="M97.081,338.683c0.292,-21.187 19.164,-57.494 19.164,-57.494" style="fill:none;"/><path d="M145.593,280.043c0,0 9.644,18.311 11.398,53.38" style="fill:none;"/><path d="M167.035,352.166c0,0 0.118,13.409 -11.507,11.141c-9.261,-1.806 -2.353,-15.608 -3.836,-16.804" style="fill:none;"/><path d="M180.186,350.887c0,0 0.366,17.169 -16.621,13.151" style="fill:none;"/></g><g id="SW_border"><path d="M99.714,20.599c10.315,-5.878 17.756,-4.914 31.077,-4.684c24.975,0.43 119.278,24.975 119.708,124.445c0.126,28.939 -5.902,50.843 -12.248,66.455c4.049,8.072 5.147,18.063 1.053,28.279c-2.831,7.061 -7.092,12.478 -12.025,16.265c2.094,6.148 4.88,13.031 7.485,19.109l0,0c3.989,9.309 7.554,16.729 7.554,16.729c0,0 -73.634,12.057 -223.916,-5.598l14.473,-36.61c-9.814,-20.154 -11.166,-46.048 -6.683,-75.558c-2.04,-6.847 -3.329,-14.232 -3.21,-21.838c-0.663,0.027 -1.328,0.056 -1.996,0.087c0,0 -3.433,-7.901 -2.411,-22.197c-1.8,0.124 -2.756,0.237 -2.756,0.237c-3.998,-48.696 40.767,-83.897 54.838,-93.699c5.18,-5.235 10.856,-10.606 17.073,-16.106c0,0 4.532,1.358 11.984,4.684Z" style="fill:#fff;stroke:#fff;stroke-width:30px;"/></g></g></svg>