<?xml version="1.0" encoding="UTF-8" standalone="no"?><!DOCTYPE svg PUBLIC "-//W3C//DTD SVG 1.1//EN" "http://www.w3.org/Graphics/SVG/1.1/DTD/svg11.dtd"><svg width="100%" height="100%" viewBox="0 0 90 465" version="1.1" xmlns="http://www.w3.org/2000/svg" xmlns:xlink="http://www.w3.org/1999/xlink" xml:space="preserve" xmlns:serif="http://www.serif.com/" style="fill-rule:evenodd;clip-rule:evenodd;stroke-linecap:round;stroke-linejoin:round;stroke-miterlimit:1.5;"><g id="arrow"><path d="M15.376,382.043l0,-17.961l22.113,-18.939l1.184,-266.227l-22.041,-0.446l26.864,-62.919l28.675,63.937l-22.416,-0.572l-0.732,264.374l25.737,22.093l0,32.618l-17.989,-16.975l0,8.597l17.989,17.104l0,42.591l-29.706,-29.372l-29.678,29.678l0,-25.304l23.395,-20.724l0,-4.525l-23.395,20.923l0,-27.357l21.167,-17.661l0.1,-9.965l-21.267,17.032Z" style="fill:none;"/><path d="M15.376,382.043l0,-17.961l22.113,-18.939l1.184,-266.227l-22.041,-0.446l26.864,-62.919l28.675,63.937l-22.416,-0.572l-0.732,264.374l25.737,22.093l0,32.618l-17.989,-16.975l0,8.597l17.989,17.104l0,42.591l-29.706,-29.372l-29.678,29.678l0,-25.304l23.395,-20.724l0,-4.525l-23.395,20.923l0,-27.357l21.167,-17.661l0.1,-9.965l-21.267,17.032Z" style="fill:#fff;stroke:#000;stroke-width:6px;"/><clipPath id="_clip1"><path d="M50.439,7.913l-14.322,57.702l9.263,-1.051l-2.168,8.825l0,369.123l-40.596,40.596l0,-499.353l47.823,24.158Z"/></clipPath><g clip-path="url(#_clip1)"><path d="M15.376,382.043l0,-17.961l22.113,-18.939l1.184,-266.227l-22.041,-0.446l26.864,-62.919l28.675,63.937l-22.416,-0.572l-0.732,264.374l25.737,22.093l0,32.618l-17.989,-16.975l0,8.597l17.989,17.104l0,42.591l-29.706,-29.372l-29.678,29.678l0,-25.304l23.395,-20.724l0,-4.525l-23.395,20.923l0,-27.357l21.167,-17.661l0.1,-9.965l-21.267,17.032Z" style="fill-opacity:0.301961;"/></g></g></svg>