<?xml version="1.0" encoding="UTF-8" standalone="no"?><!DOCTYPE svg PUBLIC "-//W3C//DTD SVG 1.1//EN" "http://www.w3.org/Graphics/SVG/1.1/DTD/svg11.dtd"><svg width="100%" height="100%" viewBox="0 0 226 208" version="1.1" xmlns="http://www.w3.org/2000/svg" xmlns:xlink="http://www.w3.org/1999/xlink" xml:space="preserve" xmlns:serif="http://www.serif.com/" style="fill-rule:evenodd;clip-rule:evenodd;stroke-linecap:round;stroke-linejoin:round;stroke-miterlimit:1.5;"><g id="mace"><path d="M119.67,46.813c22.122,1.64 39.422,13.76 49.906,29.818l41.13,-5.409l-31.573,27.663c4.951,21.038 -0.311,43.595 -18.852,57.616l12.927,35.973l-34.544,-25.564c-8.253,2.313 -17.815,3.551 -28.772,3.433c-10.531,-0.114 -19.668,-1.729 -27.479,-4.51l-38.846,20.616l17.986,-33.384c-13.698,-13.451 -18.038,-32.899 -14.406,-51.5l-31.719,-31.437l41.01,7.981c9.15,-14.591 24.032,-26.183 43.693,-30.076l8.649,-32.869l10.89,31.649Z" style="fill:none;stroke:#000;stroke-width:10px;"/><path d="M104.764,47.272c-72.875,9.569 -85.657,122.089 5.128,123.071c109.952,1.188 79.483,-134.182 -5.128,-123.071Z" style="fill:#fff;stroke:#000;stroke-width:4px;"/><clipPath id="_clip1"><path d="M221.279,92.991c-82.143,-51.149 -188.692,-21.467 -162.374,101.837c18.639,87.321 -92.2,-22.626 -92.2,-22.626l47.567,-148.446l179.412,-4.789l27.595,74.024Z"/></clipPath><g clip-path="url(#_clip1)"><path d="M104.764,47.272c-72.875,9.569 -85.657,122.089 5.128,123.071c109.952,1.188 79.483,-134.182 -5.128,-123.071Z" style="fill-opacity:0.301961;"/><path d="M114.672,41.764l0.25,0.001l0.25,0.002l0.25,0.003l0.25,0.003l0.249,0.004l0.249,0.005l0.249,0.006l0.248,0.007l0.248,0.007l0.248,0.009l0.248,0.009l0.247,0.01l0.247,0.01l0.246,0.012l0.246,0.012l0.246,0.013l0.245,0.014l0.245,0.015l0.245,0.016l0.245,0.016l0.244,0.017l0.243,0.018l0.244,0.019l0.243,0.019l0.243,0.021l0.242,0.021l0.243,0.022l0.241,0.022l0.241,0.024l0.241,0.024l0.241,0.025l0.24,0.026l0.241,0.026l0.239,0.028l0.239,0.028l0.24,0.029l0.238,0.03l0.238,0.03l0.238,0.031l0.238,0.032l0.241,0.033l0.47,0.068l0.471,0.07l0.471,0.074l0.469,0.077l0.468,0.08l0.466,0.083l0.465,0.086l0.463,0.088l0.462,0.092l0.46,0.095l0.459,0.097l0.458,0.101l0.455,0.103l0.455,0.107l0.453,0.109l0.451,0.112l0.45,0.115l0.448,0.117l0.447,0.121l0.445,0.123l0.444,0.126l0.442,0.129l0.441,0.132l0.438,0.134l0.438,0.137l0.436,0.14l0.434,0.143l0.432,0.145l0.431,0.147l0.43,0.151l0.428,0.153l0.426,0.156l0.425,0.159l0.423,0.161l0.421,0.163l0.419,0.166l0.419,0.169l0.416,0.172l0.415,0.174l0.412,0.176l0.412,0.179l0.41,0.181l0.408,0.184l0.406,0.187l0.404,0.188l0.404,0.192l0.401,0.193l0.399,0.196l0.398,0.199l0.396,0.2l0.394,0.204l0.393,0.205l0.391,0.208l0.389,0.21l0.387,0.213l0.386,0.214l0.384,0.218l0.382,0.219l0.38,0.221l0.379,0.224l0.377,0.226l0.375,0.229l0.373,0.23l0.371,0.232l0.37,0.235l0.368,0.237l0.366,0.239l0.364,0.241l0.363,0.244l0.36,0.245l0.359,0.247l0.357,0.25l0.355,0.251l0.353,0.253l0.351,0.256l0.35,0.258l0.348,0.26l0.346,0.261l0.344,0.263l0.342,0.266l0.34,0.267l0.339,0.27l0.336,0.271l0.335,0.273l0.333,0.275l0.33,0.277l0.329,0.278l0.327,0.28l0.326,0.283l0.323,0.284l0.321,0.286l0.32,0.288l0.318,0.289l0.315,0.291l0.314,0.293l0.312,0.295l0.309,0.296l0.309,0.298l0.306,0.3l0.304,0.301l0.302,0.303l0.3,0.305l0.298,0.306l0.297,0.308l0.294,0.31l0.292,0.311l0.291,0.313l0.289,0.314l0.285,0.315l0.285,0.317l0.283,0.319l0.281,0.321l0.278,0.322l0.276,0.323l0.275,0.325l0.273,0.327l0.271,0.327l0.268,0.328l0.267,0.331l0.264,0.332l0.263,0.333l0.26,0.335l0.259,0.336l0.257,0.338l0.254,0.337l0.252,0.341l0.251,0.341l0.248,0.343l0.246,0.343l0.245,0.345l0.242,0.347l0.241,0.347l0.238,0.349l0.236,0.35l0.234,0.351l0.232,0.353l0.23,0.353l0.228,0.355l0.225,0.355l0.224,0.357l0.222,0.36l0.219,0.359l0.217,0.359l0.216,0.361l0.213,0.363l0.212,0.364l0.209,0.365l0.207,0.365l0.204,0.366l0.203,0.368l0.201,0.369l0.199,0.37l0.196,0.371l0.194,0.37l0.192,0.373l0.19,0.373l0.188,0.375l0.186,0.376l0.184,0.376l0.181,0.376l0.179,0.378l0.178,0.379l0.174,0.38l0.173,0.38l0.171,0.382l0.168,0.382l0.166,0.382l0.164,0.383l0.162,0.384l0.16,0.386l0.158,0.387l0.156,0.387l0.153,0.386l0.15,0.388l0.149,0.389l0.147,0.39l0.144,0.39l0.142,0.39l0.14,0.392l0.138,0.392l0.135,0.392l0.134,0.394l0.131,0.394l0.128,0.393l0.127,0.396l0.125,0.396l0.121,0.396l0.12,0.396l0.118,0.398l0.115,0.397l0.113,0.398l0.111,0.4l0.108,0.399l0.106,0.399l0.104,0.399l0.102,0.402l0.099,0.401l0.097,0.401l0.094,0.401l0.093,0.403l0.09,0.403l0.087,0.402l0.086,0.402l0.083,0.404l0.081,0.404l0.078,0.405l0.076,0.405l0.074,0.405l0.071,0.405l0.069,0.404l0.067,0.406l0.064,0.405l0.062,0.406l0.06,0.408l0.057,0.406l0.055,0.405l0.052,0.408l0.05,0.407l0.048,0.407l0.045,0.408l0.043,0.407l0.04,0.407l0.038,0.407l0.036,0.409l0.033,0.408l0.031,0.407l0.028,0.408l0.026,0.408l0.023,0.409l0.021,0.408l0.019,0.407l0.016,0.407l0.013,0.41l0.011,0.408l0.009,0.407l0.006,0.408l0.004,0.408l0.001,0.408l-0.001,0.406l-0.004,0.407l-0.007,0.409l-0.008,0.407l-0.012,0.407l-0.014,0.408l-0.016,0.406l-0.019,0.405l-0.022,0.407l-0.024,0.406l-0.026,0.405l-0.029,0.407l-0.032,0.406l-0.035,0.404l-0.036,0.405l-0.04,0.405l-0.042,0.403l-0.044,0.405l-0.048,0.404l-0.05,0.402l-0.052,0.403l-0.055,0.403l-0.058,0.402l-0.06,0.402l-0.063,0.4l-0.066,0.401l-0.068,0.4l-0.071,0.4l-0.073,0.4l-0.076,0.399l-0.079,0.398l-0.081,0.398l-0.084,0.397l-0.087,0.396l-0.09,0.398l-0.092,0.395l-0.095,0.394l-0.098,0.396l-0.1,0.393l-0.103,0.393l-0.105,0.393l-0.109,0.393l-0.111,0.39l-0.114,0.39l-0.117,0.39l-0.119,0.39l-0.122,0.387l-0.125,0.388l-0.128,0.387l-0.13,0.386l-0.133,0.385l-0.136,0.385l-0.139,0.383l-0.141,0.383l-0.145,0.382l-0.147,0.381l-0.15,0.38l-0.152,0.379l-0.156,0.378l-0.158,0.378l-0.161,0.376l-0.164,0.375l-0.167,0.375l-0.169,0.373l-0.172,0.372l-0.176,0.372l-0.178,0.37l-0.181,0.37l-0.184,0.367l-0.186,0.367l-0.19,0.366l-0.192,0.366l-0.195,0.363l-0.198,0.362l-0.202,0.362l-0.203,0.359l-0.207,0.359l-0.209,0.358l-0.213,0.357l-0.215,0.354l-0.218,0.354l-0.221,0.352l-0.224,0.352l-0.228,0.35l-0.23,0.349l-0.232,0.346l-0.235,0.346l-0.239,0.345l-0.242,0.342l-0.244,0.342l-0.248,0.34l-0.25,0.339l-0.253,0.336l-0.255,0.336l-0.259,0.333l-0.263,0.334l-0.265,0.331l-0.267,0.329l-0.271,0.328l-0.273,0.326l-0.274,0.321l-0.142,0.165l-0.141,0.163l-0.141,0.16l-0.14,0.16l-0.144,0.16l-0.142,0.159l-0.143,0.159l-0.145,0.16l-0.146,0.159l-0.146,0.157l-0.146,0.157l-0.148,0.158l-0.148,0.156l-0.148,0.155l-0.151,0.158l-0.15,0.155l-0.151,0.154l-0.152,0.155l-0.152,0.153l-0.154,0.155l-0.154,0.152l-0.154,0.152l-0.157,0.154l-0.156,0.151l-0.156,0.151l-0.158,0.151l-0.158,0.15l-0.16,0.15l-0.16,0.15l-0.16,0.149l-0.161,0.147l-0.162,0.149l-0.164,0.148l-0.163,0.147l-0.165,0.147l-0.165,0.146l-0.166,0.145l-0.165,0.145l-0.168,0.145l-0.169,0.145l-0.168,0.143l-0.169,0.143l-0.171,0.143l-0.171,0.142l-0.17,0.141l-0.173,0.142l-0.174,0.141l-0.174,0.14l-0.175,0.141l-0.175,0.138l-0.175,0.138l-0.177,0.139l-0.178,0.138l-0.179,0.137l-0.178,0.136l-0.179,0.136l-0.182,0.137l-0.182,0.135l-0.181,0.134l-0.182,0.134l-0.184,0.134l-0.184,0.133l-0.185,0.133l-0.185,0.131l-0.187,0.132l-0.187,0.131l-0.187,0.13l-0.189,0.13l-0.19,0.129l-0.19,0.129l-0.19,0.128l-0.191,0.128l-0.193,0.127l-0.193,0.127l-0.194,0.126l-0.194,0.125l-0.195,0.125l-0.196,0.125l-0.196,0.123l-0.198,0.124l-0.198,0.123l-0.199,0.122l-0.2,0.122l-0.199,0.12l-0.201,0.121l-0.202,0.12l-0.203,0.119l-0.203,0.119l-0.203,0.118l-0.205,0.118l-0.206,0.117l-0.206,0.116l-0.207,0.116l-0.207,0.115l-0.208,0.115l-0.21,0.115l-0.209,0.113l-0.21,0.113l-0.212,0.112l-0.211,0.112l-0.214,0.112l-0.213,0.11l-0.214,0.11l-0.215,0.109l-0.215,0.109l-0.217,0.109l-0.217,0.107l-0.218,0.107l-0.218,0.107l-0.219,0.105l-0.22,0.106l-0.221,0.105l-0.222,0.104l-0.221,0.103l-0.223,0.103l-0.224,0.102l-0.224,0.101l-0.226,0.102l-0.225,0.1l-0.226,0.099l-0.228,0.1l-0.227,0.098l-0.23,0.098l-0.229,0.097l-0.23,0.097l-0.231,0.096l-0.231,0.095l-0.233,0.095l-0.233,0.094l-0.234,0.093l-0.234,0.093l-0.236,0.092l-0.236,0.092l-0.237,0.091l-0.237,0.09l-0.238,0.09l-0.239,0.089l-0.239,0.088l-0.241,0.088l-0.241,0.087l-0.242,0.086l-0.242,0.086l-0.243,0.085l-0.245,0.085l-0.245,0.084l-0.244,0.082l-0.246,0.083l-0.248,0.082l-0.248,0.081l-0.248,0.081l-0.249,0.079l-0.25,0.08l-0.251,0.078l-0.251,0.078l-0.252,0.077l-0.252,0.077l-0.254,0.076l-0.255,0.075l-0.254,0.074l-0.256,0.074l-0.256,0.073l-0.258,0.073l-0.258,0.072l-0.258,0.071l-0.26,0.07l-0.26,0.07l-0.261,0.069l-0.262,0.069l-0.261,0.067l-0.263,0.067l-0.265,0.067l-0.264,0.065l-0.265,0.065l-0.266,0.065l-0.267,0.063l-0.267,0.063l-0.268,0.062l-0.269,0.062l-0.27,0.061l-0.27,0.06l-0.271,0.059l-0.272,0.059l-0.273,0.058l-0.273,0.057l-0.274,0.057l-0.275,0.056l-0.276,0.055l-0.276,0.054l-0.277,0.054l-0.278,0.053l-0.278,0.052l-0.279,0.052l-0.28,0.051l-0.281,0.05l-0.281,0.05l-0.283,0.048l-0.283,0.048l-0.283,0.048l-0.285,0.046l-0.285,0.046l-0.286,0.045l-0.286,0.045l-0.288,0.043l-0.288,0.043l-0.289,0.042l-0.289,0.042l-0.291,0.041l-0.291,0.04l-0.292,0.039l-0.292,0.038l-0.294,0.038l-0.294,0.037l-0.294,0.037l-0.296,0.035l-0.297,0.035l-0.296,0.034l-0.298,0.033l-0.299,0.033l-0.299,0.032l-0.3,0.031l-0.301,0.03l-0.302,0.03l-0.302,0.029l-0.303,0.028l-0.304,0.027l-0.304,0.027l-0.306,0.026l-0.306,0.025l-0.306,0.024l-0.308,0.023l-0.308,0.023l-0.309,0.022l-0.31,0.021l-0.311,0.021l-0.311,0.019l-0.312,0.019l-0.313,0.019l-0.314,0.017l-0.314,0.016l-0.315,0.016l-0.316,0.015l-0.316,0.015l-0.318,0.013l-0.318,0.013l-0.319,0.012l-0.32,0.011l-0.32,0.01l-0.321,0.01l-0.322,0.008l-0.323,0.008l-0.323,0.008l-0.324,0.006l-0.325,0.006l-0.326,0.004l-0.326,0.004l-0.328,0.004l-0.328,0.002l-0.329,0.002l-0.329,0.001l-0.33,0l-0.332,-0.001l-0.331,-0.002l-0.333,-0.002l-0.337,-0.003l-0.551,-0.008l-0.552,-0.01l-0.55,-0.012l-0.547,-0.016l-0.546,-0.018l-0.543,-0.02l-0.541,-0.023l-0.539,-0.026l-0.536,-0.029l-0.534,-0.031l-0.532,-0.033l-0.53,-0.036l-0.527,-0.039l-0.526,-0.041l-0.523,-0.044l-0.52,-0.047l-0.518,-0.049l-0.517,-0.051l-0.514,-0.054l-0.512,-0.057l-0.51,-0.059l-0.507,-0.061l-0.505,-0.064l-0.503,-0.067l-0.501,-0.069l-0.498,-0.072l-0.497,-0.074l-0.494,-0.076l-0.491,-0.079l-0.49,-0.081l-0.488,-0.084l-0.485,-0.086l-0.483,-0.089l-0.48,-0.091l-0.479,-0.093l-0.476,-0.096l-0.474,-0.098l-0.472,-0.101l-0.47,-0.103l-0.467,-0.105l-0.465,-0.108l-0.463,-0.11l-0.461,-0.112l-0.459,-0.115l-0.456,-0.117l-0.454,-0.119l-0.452,-0.122l-0.45,-0.124l-0.447,-0.126l-0.445,-0.129l-0.443,-0.131l-0.441,-0.133l-0.439,-0.135l-0.437,-0.138l-0.434,-0.139l-0.431,-0.142l-0.43,-0.145l-0.428,-0.146l-0.425,-0.149l-0.423,-0.151l-0.421,-0.153l-0.418,-0.155l-0.417,-0.158l-0.414,-0.159l-0.412,-0.162l-0.41,-0.164l-0.407,-0.166l-0.405,-0.168l-0.403,-0.171l-0.401,-0.172l-0.398,-0.175l-0.397,-0.176l-0.394,-0.179l-0.391,-0.181l-0.39,-0.183l-0.387,-0.184l-0.385,-0.188l-0.383,-0.189l-0.38,-0.19l-0.379,-0.194l-0.376,-0.195l-0.374,-0.197l-0.372,-0.199l-0.368,-0.201l-0.368,-0.203l-0.365,-0.205l-0.362,-0.207l-0.361,-0.208l-0.357,-0.211l-0.357,-0.213l-0.353,-0.215l-0.351,-0.216l-0.349,-0.218l-0.347,-0.221l-0.345,-0.222l-0.341,-0.224l-0.34,-0.226l-0.338,-0.228l-0.336,-0.229l-0.332,-0.231l-0.331,-0.233l-0.329,-0.236l-0.326,-0.236l-0.324,-0.238l-0.323,-0.241l-0.319,-0.242l-0.316,-0.243l-0.316,-0.246l-0.312,-0.247l-0.31,-0.249l-0.308,-0.251l-0.306,-0.252l-0.303,-0.254l-0.301,-0.255l-0.299,-0.257l-0.297,-0.259l-0.295,-0.261l-0.291,-0.262l-0.29,-0.264l-0.287,-0.265l-0.285,-0.266l-0.283,-0.269l-0.281,-0.27l-0.278,-0.272l-0.275,-0.272l-0.274,-0.275l-0.272,-0.277l-0.269,-0.277l-0.266,-0.279l-0.265,-0.28l-0.262,-0.282l-0.259,-0.284l-0.258,-0.284l-0.255,-0.287l-0.253,-0.287l-0.251,-0.289l-0.248,-0.291l-0.246,-0.292l-0.244,-0.293l-0.241,-0.294l-0.239,-0.296l-0.237,-0.298l-0.235,-0.298l-0.231,-0.299l-0.231,-0.301l-0.227,-0.303l-0.226,-0.304l-0.223,-0.305l-0.22,-0.305l-0.219,-0.307l-0.216,-0.309l-0.214,-0.309l-0.212,-0.311l-0.209,-0.313l-0.207,-0.312l-0.205,-0.315l-0.202,-0.315l-0.2,-0.317l-0.199,-0.318l-0.195,-0.318l-0.194,-0.32l-0.19,-0.321l-0.19,-0.322l-0.186,-0.324l-0.184,-0.322l-0.182,-0.326l-0.18,-0.327l-0.177,-0.327l-0.175,-0.327l-0.173,-0.329l-0.171,-0.331l-0.169,-0.33l-0.166,-0.333l-0.164,-0.333l-0.162,-0.333l-0.159,-0.336l-0.157,-0.334l-0.155,-0.337l-0.153,-0.337l-0.15,-0.338l-0.149,-0.34l-0.145,-0.339l-0.144,-0.34l-0.142,-0.343l-0.14,-0.342l-0.137,-0.343l-0.134,-0.344l-0.133,-0.344l-0.131,-0.346l-0.127,-0.344l-0.127,-0.349l-0.124,-0.347l-0.121,-0.347l-0.12,-0.35l-0.117,-0.35l-0.115,-0.349l-0.113,-0.351l-0.111,-0.352l-0.109,-0.353l-0.106,-0.353l-0.104,-0.354l-0.102,-0.353l-0.1,-0.355l-0.097,-0.355l-0.096,-0.355l-0.093,-0.357l-0.091,-0.357l-0.09,-0.358l-0.086,-0.358l-0.085,-0.359l-0.083,-0.359l-0.08,-0.359l-0.078,-0.359l-0.076,-0.361l-0.074,-0.362l-0.072,-0.361l-0.069,-0.361l-0.068,-0.363l-0.066,-0.364l-0.063,-0.362l-0.061,-0.363l-0.059,-0.365l-0.057,-0.364l-0.055,-0.364l-0.053,-0.366l-0.051,-0.365l-0.048,-0.367l-0.047,-0.365l-0.044,-0.366l-0.042,-0.367l-0.041,-0.366l-0.038,-0.369l-0.036,-0.367l-0.034,-0.368l-0.031,-0.368l-0.03,-0.369l-0.028,-0.369l-0.026,-0.367l-0.023,-0.371l-0.022,-0.369l-0.019,-0.368l-0.018,-0.371l-0.015,-0.37l-0.013,-0.37l-0.012,-0.37l-0.009,-0.37l-0.007,-0.371l-0.005,-0.369l-0.003,-0.371l-0.002,-0.373l0.002,-0.371l0.003,-0.37l0.005,-0.371l0.007,-0.372l0.009,-0.37l0.011,-0.372l0.013,-0.371l0.015,-0.372l0.017,-0.372l0.019,-0.371l0.021,-0.372l0.023,-0.37l0.025,-0.372l0.027,-0.372l0.029,-0.371l0.031,-0.372l0.034,-0.372l0.035,-0.372l0.037,-0.37l0.039,-0.37l0.041,-0.371l0.042,-0.371l0.046,-0.372l0.046,-0.37l0.049,-0.372l0.051,-0.37l0.053,-0.369l0.055,-0.371l0.057,-0.37l0.058,-0.369l0.061,-0.37l0.062,-0.37l0.065,-0.37l0.066,-0.368l0.068,-0.368l0.071,-0.37l0.073,-0.369l0.074,-0.367l0.075,-0.368l0.079,-0.368l0.08,-0.368l0.082,-0.366l0.084,-0.367l0.086,-0.366l0.087,-0.367l0.09,-0.365l0.091,-0.366l0.094,-0.365l0.095,-0.365l0.098,-0.364l0.099,-0.364l0.101,-0.364l0.103,-0.364l0.105,-0.363l0.106,-0.361l0.109,-0.362l0.111,-0.362l0.112,-0.362l0.115,-0.361l0.116,-0.36l0.118,-0.36l0.12,-0.359l0.122,-0.359l0.124,-0.357l0.125,-0.359l0.128,-0.358l0.129,-0.356l0.132,-0.358l0.133,-0.355l0.135,-0.354l0.137,-0.355l0.139,-0.354l0.14,-0.354l0.143,-0.354l0.144,-0.351l0.146,-0.351l0.149,-0.352l0.15,-0.351l0.152,-0.35l0.153,-0.349l0.156,-0.349l0.157,-0.347l0.159,-0.347l0.161,-0.347l0.163,-0.346l0.165,-0.345l0.167,-0.345l0.168,-0.343l0.17,-0.343l0.173,-0.343l0.173,-0.34l0.175,-0.341l0.178,-0.341l0.18,-0.339l0.181,-0.338l0.183,-0.339l0.185,-0.336l0.186,-0.335l0.189,-0.335l0.191,-0.335l0.192,-0.334l0.193,-0.331l0.196,-0.332l0.198,-0.332l0.199,-0.33l0.201,-0.328l0.203,-0.328l0.205,-0.328l0.206,-0.326l0.209,-0.325l0.21,-0.325l0.212,-0.324l0.214,-0.322l0.215,-0.321l0.217,-0.32l0.22,-0.321l0.221,-0.318l0.223,-0.317l0.224,-0.317l0.226,-0.315l0.228,-0.314l0.23,-0.314l0.232,-0.312l0.233,-0.311l0.236,-0.311l0.236,-0.308l0.239,-0.307l0.24,-0.308l0.243,-0.306l0.244,-0.304l0.246,-0.303l0.248,-0.303l0.248,-0.3l0.251,-0.299l0.253,-0.299l0.255,-0.298l0.256,-0.296l0.258,-0.296l0.26,-0.293l0.261,-0.292l0.264,-0.291l0.264,-0.29l0.268,-0.289l0.268,-0.288l0.27,-0.286l0.273,-0.285l0.273,-0.283l0.275,-0.282l0.278,-0.281l0.279,-0.279l0.28,-0.279l0.282,-0.276l0.284,-0.275l0.287,-0.275l0.287,-0.273l0.289,-0.27l0.291,-0.27l0.293,-0.268l0.294,-0.267l0.296,-0.265l0.298,-0.264l0.3,-0.263l0.301,-0.261l0.303,-0.259l0.304,-0.258l0.307,-0.257l0.307,-0.254l0.31,-0.254l0.312,-0.252l0.312,-0.25l0.315,-0.249l0.316,-0.247l0.318,-0.245l0.32,-0.244l0.322,-0.242l0.323,-0.241l0.325,-0.239l0.326,-0.237l0.328,-0.236l0.33,-0.234l0.331,-0.232l0.333,-0.231l0.335,-0.229l0.336,-0.227l0.338,-0.226l0.339,-0.224l0.342,-0.222l0.342,-0.219l0.345,-0.219l0.347,-0.217l0.347,-0.215l0.349,-0.213l0.352,-0.211l0.352,-0.21l0.354,-0.207l0.357,-0.206l0.357,-0.204l0.359,-0.202l0.361,-0.201l0.362,-0.198l0.364,-0.196l0.365,-0.195l0.368,-0.193l0.368,-0.19l0.37,-0.189l0.372,-0.187l0.373,-0.184l0.375,-0.183l0.377,-0.181l0.378,-0.179l0.38,-0.177l0.381,-0.175l0.383,-0.173l0.384,-0.17l0.386,-0.169l0.388,-0.167l0.389,-0.164l0.39,-0.163l0.393,-0.16l0.393,-0.159l0.395,-0.156l0.397,-0.154l0.398,-0.152l0.4,-0.15l0.401,-0.148l0.403,-0.145l0.404,-0.144l0.405,-0.141l0.408,-0.139l0.409,-0.136l0.41,-0.135l0.411,-0.132l0.414,-0.13l0.415,-0.128l0.415,-0.126l0.418,-0.123l0.419,-0.121l0.421,-0.119l0.422,-0.117l0.423,-0.114l0.425,-0.112l0.427,-0.109l0.427,-0.107l0.429,-0.105l0.431,-0.103l0.432,-0.1l0.434,-0.098l0.435,-0.095l0.436,-0.093l0.438,-0.091l0.439,-0.088l0.441,-0.086l0.442,-0.083l0.443,-0.081l0.445,-0.078l0.446,-0.076l0.448,-0.074l0.449,-0.071l0.45,-0.068l0.452,-0.066l0.453,-0.064l0.451,-0.061l0.266,-0.034l0.263,-0.033l0.263,-0.033l0.262,-0.031l0.261,-0.031l0.262,-0.029l0.261,-0.029l0.261,-0.028l0.261,-0.027l0.26,-0.027l0.26,-0.025l0.26,-0.024l0.26,-0.024l0.259,-0.023l0.259,-0.022l0.259,-0.021l0.258,-0.02l0.258,-0.019l0.258,-0.019l0.257,-0.017l0.257,-0.017l0.257,-0.016l0.256,-0.015l0.257,-0.014l0.256,-0.013l0.255,-0.013l0.256,-0.011l0.255,-0.011l0.254,-0.01l0.255,-0.009l0.254,-0.008l0.253,-0.008l0.254,-0.006l0.253,-0.006l0.253,-0.005l0.252,-0.004l0.253,-0.003l0.252,-0.002l0.251,-0.002l0.252,-0.001l0.251,0Zm-0.481,4.86l-0.235,0.002l-0.236,0.002l-0.237,0.003l-0.236,0.004l-0.237,0.004l-0.237,0.006l-0.238,0.006l-0.238,0.007l-0.238,0.008l-0.239,0.008l-0.238,0.009l-0.24,0.01l-0.239,0.011l-0.24,0.012l-0.24,0.013l-0.241,0.013l-0.24,0.014l-0.241,0.015l-0.242,0.016l-0.242,0.016l-0.242,0.017l-0.242,0.018l-0.243,0.019l-0.243,0.02l-0.243,0.021l-0.244,0.021l-0.244,0.022l-0.244,0.023l-0.245,0.024l-0.245,0.025l-0.245,0.025l-0.245,0.027l-0.246,0.027l-0.246,0.028l-0.247,0.028l-0.247,0.03l-0.247,0.031l-0.247,0.031l-0.248,0.032l-0.426,0.057l-0.425,0.06l-0.424,0.062l-0.422,0.064l-0.421,0.067l-0.419,0.068l-0.418,0.072l-0.417,0.073l-0.415,0.076l-0.414,0.078l-0.412,0.08l-0.411,0.083l-0.41,0.085l-0.408,0.087l-0.407,0.089l-0.406,0.091l-0.404,0.094l-0.402,0.096l-0.401,0.098l-0.4,0.1l-0.399,0.102l-0.397,0.105l-0.395,0.106l-0.394,0.109l-0.393,0.111l-0.391,0.113l-0.39,0.115l-0.389,0.118l-0.387,0.119l-0.385,0.121l-0.384,0.124l-0.383,0.125l-0.381,0.128l-0.38,0.13l-0.379,0.131l-0.377,0.134l-0.375,0.136l-0.374,0.137l-0.373,0.14l-0.371,0.142l-0.37,0.143l-0.368,0.146l-0.367,0.147l-0.365,0.15l-0.364,0.151l-0.362,0.154l-0.361,0.155l-0.36,0.157l-0.358,0.159l-0.356,0.161l-0.355,0.163l-0.354,0.165l-0.352,0.166l-0.351,0.169l-0.349,0.17l-0.347,0.172l-0.347,0.174l-0.344,0.176l-0.344,0.177l-0.341,0.179l-0.341,0.182l-0.338,0.182l-0.338,0.185l-0.335,0.186l-0.334,0.189l-0.333,0.189l-0.331,0.192l-0.33,0.193l-0.328,0.195l-0.327,0.197l-0.325,0.198l-0.324,0.2l-0.322,0.202l-0.321,0.203l-0.319,0.205l-0.318,0.207l-0.316,0.208l-0.314,0.21l-0.313,0.212l-0.312,0.213l-0.31,0.214l-0.308,0.217l-0.307,0.218l-0.306,0.219l-0.303,0.221l-0.303,0.222l-0.3,0.224l-0.3,0.226l-0.297,0.227l-0.296,0.229l-0.295,0.23l-0.293,0.231l-0.292,0.233l-0.289,0.235l-0.289,0.236l-0.287,0.237l-0.285,0.239l-0.283,0.24l-0.283,0.242l-0.28,0.243l-0.279,0.244l-0.277,0.246l-0.276,0.247l-0.274,0.249l-0.273,0.25l-0.271,0.251l-0.27,0.253l-0.268,0.254l-0.266,0.255l-0.265,0.257l-0.263,0.258l-0.261,0.259l-0.26,0.26l-0.259,0.262l-0.257,0.263l-0.255,0.264l-0.253,0.266l-0.252,0.267l-0.251,0.268l-0.248,0.269l-0.248,0.27l-0.245,0.272l-0.244,0.272l-0.242,0.274l-0.241,0.276l-0.239,0.276l-0.238,0.277l-0.235,0.279l-0.235,0.28l-0.232,0.28l-0.231,0.282l-0.23,0.283l-0.227,0.284l-0.226,0.286l-0.225,0.286l-0.223,0.287l-0.221,0.289l-0.219,0.289l-0.218,0.29l-0.216,0.292l-0.215,0.292l-0.213,0.294l-0.211,0.294l-0.21,0.296l-0.208,0.296l-0.206,0.298l-0.205,0.298l-0.203,0.3l-0.201,0.3l-0.2,0.301l-0.198,0.302l-0.196,0.303l-0.195,0.304l-0.193,0.305l-0.191,0.306l-0.189,0.306l-0.188,0.308l-0.187,0.308l-0.184,0.309l-0.183,0.31l-0.181,0.311l-0.18,0.311l-0.178,0.313l-0.176,0.313l-0.174,0.314l-0.173,0.314l-0.171,0.316l-0.17,0.316l-0.167,0.317l-0.166,0.318l-0.164,0.318l-0.163,0.32l-0.161,0.319l-0.159,0.321l-0.157,0.321l-0.156,0.322l-0.154,0.323l-0.152,0.323l-0.151,0.324l-0.149,0.325l-0.147,0.325l-0.145,0.326l-0.144,0.326l-0.141,0.327l-0.141,0.328l-0.138,0.328l-0.137,0.329l-0.135,0.329l-0.133,0.33l-0.131,0.33l-0.13,0.331l-0.128,0.332l-0.126,0.332l-0.125,0.332l-0.122,0.333l-0.121,0.334l-0.12,0.334l-0.117,0.334l-0.116,0.335l-0.114,0.335l-0.112,0.336l-0.11,0.336l-0.109,0.337l-0.107,0.337l-0.105,0.338l-0.103,0.337l-0.102,0.339l-0.1,0.338l-0.098,0.339l-0.096,0.34l-0.094,0.339l-0.093,0.34l-0.091,0.34l-0.089,0.341l-0.087,0.341l-0.085,0.341l-0.084,0.342l-0.082,0.342l-0.08,0.342l-0.078,0.342l-0.077,0.342l-0.074,0.343l-0.073,0.343l-0.071,0.343l-0.07,0.344l-0.067,0.344l-0.066,0.343l-0.064,0.344l-0.062,0.345l-0.06,0.344l-0.058,0.344l-0.057,0.345l-0.054,0.345l-0.053,0.345l-0.051,0.345l-0.049,0.345l-0.048,0.345l-0.045,0.345l-0.044,0.346l-0.042,0.345l-0.04,0.345l-0.038,0.346l-0.036,0.346l-0.035,0.345l-0.032,0.346l-0.031,0.345l-0.029,0.346l-0.027,0.346l-0.025,0.345l-0.024,0.346l-0.021,0.345l-0.02,0.346l-0.018,0.345l-0.015,0.345l-0.014,0.346l-0.013,0.345l-0.01,0.345l-0.008,0.345l-0.007,0.345l-0.004,0.344l-0.003,0.345l-0.001,0.344l0.001,0.344l0.003,0.345l0.005,0.343l0.006,0.344l0.009,0.344l0.01,0.343l0.013,0.343l0.014,0.343l0.016,0.343l0.018,0.342l0.02,0.342l0.022,0.342l0.024,0.342l0.025,0.341l0.028,0.341l0.029,0.341l0.032,0.341l0.033,0.34l0.035,0.34l0.038,0.339l0.039,0.339l0.041,0.339l0.043,0.338l0.045,0.338l0.046,0.338l0.049,0.337l0.051,0.337l0.052,0.337l0.055,0.336l0.057,0.335l0.058,0.335l0.06,0.335l0.063,0.334l0.064,0.334l0.066,0.333l0.068,0.333l0.071,0.332l0.072,0.332l0.074,0.331l0.076,0.331l0.078,0.33l0.08,0.33l0.082,0.329l0.083,0.328l0.086,0.328l0.088,0.327l0.09,0.327l0.092,0.326l0.093,0.326l0.096,0.325l0.098,0.324l0.1,0.324l0.101,0.322l0.104,0.323l0.106,0.321l0.107,0.321l0.11,0.321l0.112,0.319l0.113,0.319l0.116,0.318l0.117,0.317l0.12,0.317l0.122,0.316l0.123,0.315l0.126,0.314l0.128,0.314l0.129,0.313l0.132,0.312l0.134,0.311l0.135,0.31l0.138,0.31l0.14,0.308l0.142,0.308l0.144,0.307l0.146,0.306l0.147,0.306l0.15,0.304l0.152,0.303l0.154,0.303l0.156,0.302l0.158,0.3l0.16,0.3l0.163,0.299l0.164,0.298l0.166,0.297l0.168,0.296l0.171,0.295l0.172,0.294l0.175,0.293l0.176,0.292l0.179,0.291l0.18,0.29l0.183,0.289l0.185,0.287l0.187,0.287l0.189,0.286l0.19,0.285l0.194,0.283l0.195,0.283l0.197,0.281l0.199,0.28l0.201,0.279l0.204,0.278l0.205,0.277l0.208,0.276l0.21,0.275l0.212,0.273l0.213,0.272l0.216,0.271l0.218,0.27l0.221,0.269l0.222,0.267l0.224,0.266l0.227,0.265l0.228,0.264l0.231,0.262l0.233,0.261l0.235,0.26l0.237,0.258l0.239,0.258l0.241,0.256l0.244,0.254l0.245,0.254l0.248,0.252l0.25,0.25l0.251,0.25l0.254,0.247l0.257,0.247l0.258,0.245l0.26,0.244l0.263,0.242l0.265,0.241l0.266,0.24l0.269,0.238l0.271,0.236l0.274,0.236l0.275,0.233l0.278,0.233l0.279,0.231l0.282,0.229l0.284,0.228l0.286,0.226l0.289,0.225l0.29,0.223l0.293,0.222l0.295,0.22l0.297,0.218l0.299,0.218l0.301,0.215l0.304,0.214l0.306,0.212l0.308,0.211l0.31,0.209l0.312,0.207l0.314,0.206l0.317,0.204l0.319,0.203l0.321,0.201l0.323,0.199l0.325,0.198l0.328,0.195l0.33,0.195l0.332,0.192l0.334,0.191l0.336,0.189l0.339,0.187l0.34,0.185l0.343,0.184l0.346,0.182l0.347,0.18l0.35,0.179l0.352,0.176l0.354,0.175l0.356,0.173l0.358,0.171l0.361,0.17l0.363,0.167l0.365,0.166l0.368,0.164l0.369,0.161l0.372,0.16l0.374,0.159l0.377,0.156l0.378,0.154l0.381,0.153l0.383,0.15l0.386,0.149l0.387,0.146l0.39,0.145l0.392,0.142l0.395,0.141l0.396,0.139l0.399,0.136l0.401,0.135l0.403,0.133l0.406,0.13l0.408,0.129l0.41,0.127l0.413,0.124l0.414,0.123l0.417,0.12l0.42,0.118l0.421,0.116l0.424,0.115l0.426,0.112l0.428,0.109l0.431,0.108l0.433,0.106l0.435,0.103l0.438,0.101l0.44,0.1l0.442,0.096l0.444,0.095l0.447,0.093l0.449,0.09l0.451,0.088l0.454,0.086l0.456,0.084l0.458,0.081l0.461,0.079l0.463,0.077l0.465,0.075l0.467,0.072l0.47,0.07l0.472,0.068l0.475,0.065l0.476,0.063l0.479,0.061l0.482,0.059l0.484,0.056l0.486,0.053l0.488,0.052l0.491,0.049l0.493,0.046l0.495,0.044l0.498,0.042l0.5,0.04l0.503,0.036l0.505,0.035l0.507,0.032l0.509,0.03l0.512,0.027l0.514,0.024l0.517,0.022l0.519,0.02l0.521,0.017l0.524,0.015l0.526,0.012l0.528,0.009l0.531,0.008l0.322,0.003l0.321,0.002l0.32,0.001l0.319,0.001l0.319,0l0.317,-0.001l0.317,-0.001l0.316,-0.002l0.316,-0.004l0.314,-0.003l0.314,-0.005l0.313,-0.005l0.312,-0.007l0.311,-0.007l0.311,-0.007l0.31,-0.009l0.308,-0.009l0.309,-0.01l0.307,-0.011l0.306,-0.011l0.306,-0.012l0.305,-0.013l0.304,-0.014l0.304,-0.014l0.302,-0.015l0.302,-0.016l0.301,-0.017l0.3,-0.017l0.3,-0.019l0.298,-0.019l0.298,-0.019l0.297,-0.02l0.297,-0.022l0.295,-0.021l0.295,-0.023l0.294,-0.023l0.293,-0.024l0.292,-0.025l0.292,-0.025l0.29,-0.026l0.29,-0.027l0.29,-0.028l0.288,-0.028l0.288,-0.029l0.286,-0.03l0.286,-0.03l0.286,-0.031l0.284,-0.032l0.284,-0.033l0.283,-0.033l0.282,-0.034l0.281,-0.035l0.281,-0.035l0.28,-0.036l0.279,-0.037l0.278,-0.037l0.278,-0.039l0.276,-0.038l0.276,-0.04l0.276,-0.04l0.274,-0.041l0.274,-0.042l0.272,-0.042l0.273,-0.043l0.271,-0.043l0.27,-0.045l0.27,-0.045l0.269,-0.045l0.268,-0.047l0.268,-0.047l0.266,-0.047l0.266,-0.049l0.265,-0.049l0.265,-0.049l0.263,-0.051l0.263,-0.051l0.262,-0.051l0.262,-0.053l0.26,-0.053l0.26,-0.053l0.259,-0.055l0.258,-0.055l0.258,-0.055l0.256,-0.056l0.256,-0.057l0.256,-0.058l0.254,-0.058l0.254,-0.059l0.253,-0.059l0.252,-0.061l0.251,-0.06l0.251,-0.062l0.25,-0.062l0.249,-0.062l0.248,-0.064l0.248,-0.064l0.246,-0.064l0.246,-0.065l0.246,-0.066l0.244,-0.067l0.244,-0.067l0.243,-0.067l0.243,-0.069l0.241,-0.069l0.241,-0.069l0.24,-0.07l0.239,-0.071l0.239,-0.071l0.237,-0.072l0.238,-0.073l0.236,-0.073l0.235,-0.074l0.235,-0.074l0.234,-0.075l0.233,-0.076l0.233,-0.076l0.232,-0.077l0.231,-0.077l0.23,-0.078l0.23,-0.079l0.228,-0.079l0.229,-0.08l0.227,-0.08l0.226,-0.081l0.226,-0.082l0.225,-0.082l0.225,-0.083l0.223,-0.083l0.223,-0.084l0.222,-0.084l0.222,-0.085l0.22,-0.086l0.22,-0.086l0.219,-0.087l0.219,-0.087l0.217,-0.088l0.217,-0.089l0.216,-0.089l0.216,-0.089l0.215,-0.09l0.214,-0.091l0.213,-0.091l0.212,-0.092l0.212,-0.092l0.211,-0.093l0.211,-0.094l0.209,-0.094l0.209,-0.094l0.208,-0.095l0.208,-0.096l0.206,-0.096l0.206,-0.097l0.205,-0.097l0.205,-0.098l0.204,-0.099l0.203,-0.098l0.202,-0.1l0.201,-0.1l0.201,-0.1l0.2,-0.101l0.2,-0.102l0.198,-0.102l0.198,-0.103l0.197,-0.103l0.197,-0.103l0.196,-0.105l0.195,-0.104l0.194,-0.105l0.194,-0.106l0.192,-0.106l0.193,-0.107l0.191,-0.107l0.191,-0.108l0.19,-0.109l0.189,-0.108l0.188,-0.11l0.188,-0.109l0.187,-0.111l0.187,-0.111l0.185,-0.111l0.185,-0.112l0.185,-0.112l0.183,-0.113l0.183,-0.113l0.182,-0.114l0.181,-0.114l0.181,-0.115l0.18,-0.115l0.179,-0.116l0.179,-0.116l0.178,-0.117l0.177,-0.117l0.176,-0.117l0.176,-0.118l0.175,-0.119l0.174,-0.119l0.173,-0.12l0.173,-0.12l0.172,-0.12l0.172,-0.121l0.171,-0.121l0.17,-0.122l0.169,-0.123l0.168,-0.122l0.168,-0.124l0.168,-0.123l0.166,-0.124l0.166,-0.125l0.165,-0.125l0.164,-0.126l0.164,-0.126l0.163,-0.126l0.162,-0.127l0.162,-0.127l0.161,-0.128l0.16,-0.128l0.159,-0.129l0.159,-0.129l0.158,-0.129l0.157,-0.13l0.157,-0.131l0.156,-0.13l0.155,-0.132l0.155,-0.131l0.154,-0.132l0.153,-0.133l0.153,-0.133l0.151,-0.133l0.151,-0.134l0.151,-0.134l0.15,-0.135l0.149,-0.135l0.148,-0.135l0.148,-0.136l0.147,-0.136l0.146,-0.137l0.145,-0.137l0.145,-0.138l0.145,-0.137l0.143,-0.139l0.143,-0.138l0.142,-0.14l0.141,-0.139l0.141,-0.14l0.14,-0.14l0.14,-0.141l0.138,-0.141l0.138,-0.141l0.138,-0.142l0.136,-0.143l0.136,-0.142l0.136,-0.143l0.134,-0.144l0.134,-0.143l0.134,-0.145l0.132,-0.144l0.132,-0.145l0.131,-0.145l0.131,-0.146l0.13,-0.146l0.129,-0.146l0.128,-0.147l0.128,-0.147l0.127,-0.148l0.252,-0.296l0.25,-0.298l0.247,-0.298l0.244,-0.301l0.241,-0.302l0.239,-0.303l0.236,-0.304l0.234,-0.306l0.231,-0.308l0.228,-0.308l0.225,-0.31l0.223,-0.312l0.22,-0.312l0.217,-0.314l0.215,-0.315l0.212,-0.317l0.21,-0.317l0.207,-0.319l0.204,-0.32l0.201,-0.322l0.199,-0.322l0.197,-0.324l0.194,-0.325l0.191,-0.326l0.188,-0.327l0.186,-0.329l0.183,-0.329l0.181,-0.331l0.178,-0.331l0.176,-0.333l0.172,-0.334l0.171,-0.335l0.167,-0.336l0.166,-0.337l0.162,-0.338l0.16,-0.339l0.158,-0.34l0.155,-0.341l0.152,-0.342l0.15,-0.343l0.147,-0.344l0.145,-0.345l0.142,-0.346l0.139,-0.347l0.137,-0.347l0.135,-0.349l0.132,-0.349l0.129,-0.35l0.127,-0.352l0.125,-0.351l0.122,-0.353l0.119,-0.354l0.117,-0.354l0.114,-0.355l0.112,-0.356l0.11,-0.357l0.107,-0.357l0.104,-0.358l0.102,-0.359l0.1,-0.36l0.097,-0.36l0.094,-0.361l0.092,-0.362l0.09,-0.362l0.087,-0.363l0.085,-0.363l0.082,-0.365l0.08,-0.364l0.077,-0.366l0.075,-0.366l0.073,-0.366l0.07,-0.367l0.067,-0.368l0.066,-0.368l0.062,-0.369l0.061,-0.369l0.058,-0.37l0.055,-0.37l0.054,-0.371l0.05,-0.371l0.049,-0.371l0.046,-0.372l0.043,-0.373l0.041,-0.373l0.039,-0.373l0.037,-0.373l0.034,-0.374l0.031,-0.374l0.03,-0.375l0.027,-0.375l0.024,-0.375l0.023,-0.376l0.019,-0.376l0.018,-0.376l0.015,-0.376l0.013,-0.377l0.011,-0.377l0.008,-0.377l0.006,-0.377l0.003,-0.378l0.002,-0.378l-0.001,-0.378l-0.004,-0.378l-0.006,-0.378l-0.008,-0.378l-0.01,-0.379l-0.012,-0.379l-0.015,-0.378l-0.017,-0.379l-0.02,-0.379l-0.022,-0.379l-0.024,-0.379l-0.026,-0.379l-0.028,-0.379l-0.031,-0.379l-0.033,-0.379l-0.036,-0.379l-0.037,-0.379l-0.04,-0.379l-0.042,-0.379l-0.045,-0.379l-0.046,-0.379l-0.049,-0.379l-0.051,-0.378l-0.053,-0.379l-0.056,-0.378l-0.057,-0.379l-0.06,-0.378l-0.062,-0.378l-0.065,-0.377l-0.066,-0.378l-0.069,-0.377l-0.071,-0.377l-0.073,-0.377l-0.075,-0.377l-0.078,-0.376l-0.08,-0.377l-0.081,-0.376l-0.084,-0.375l-0.087,-0.375l-0.088,-0.375l-0.09,-0.375l-0.093,-0.374l-0.095,-0.374l-0.097,-0.374l-0.099,-0.373l-0.101,-0.373l-0.104,-0.372l-0.105,-0.372l-0.108,-0.372l-0.11,-0.371l-0.112,-0.371l-0.114,-0.37l-0.116,-0.37l-0.118,-0.369l-0.12,-0.369l-0.123,-0.368l-0.125,-0.367l-0.126,-0.368l-0.129,-0.366l-0.131,-0.366l-0.133,-0.366l-0.135,-0.364l-0.137,-0.365l-0.139,-0.363l-0.141,-0.363l-0.143,-0.362l-0.146,-0.362l-0.147,-0.361l-0.15,-0.36l-0.151,-0.36l-0.154,-0.359l-0.155,-0.358l-0.158,-0.358l-0.16,-0.356l-0.161,-0.356l-0.164,-0.355l-0.166,-0.355l-0.168,-0.353l-0.169,-0.353l-0.172,-0.352l-0.174,-0.351l-0.176,-0.351l-0.178,-0.349l-0.179,-0.349l-0.182,-0.347l-0.184,-0.347l-0.186,-0.346l-0.187,-0.345l-0.19,-0.344l-0.192,-0.343l-0.193,-0.342l-0.196,-0.341l-0.198,-0.34l-0.199,-0.339l-0.202,-0.338l-0.203,-0.337l-0.205,-0.336l-0.208,-0.335l-0.209,-0.334l-0.211,-0.333l-0.213,-0.332l-0.215,-0.331l-0.217,-0.329l-0.219,-0.329l-0.221,-0.327l-0.223,-0.326l-0.224,-0.325l-0.227,-0.324l-0.228,-0.323l-0.231,-0.321l-0.232,-0.32l-0.234,-0.319l-0.236,-0.318l-0.238,-0.316l-0.24,-0.316l-0.241,-0.314l-0.244,-0.312l-0.245,-0.312l-0.247,-0.31l-0.249,-0.308l-0.251,-0.308l-0.253,-0.306l-0.254,-0.304l-0.257,-0.304l-0.258,-0.301l-0.26,-0.301l-0.262,-0.299l-0.264,-0.298l-0.266,-0.296l-0.267,-0.295l-0.269,-0.293l-0.271,-0.292l-0.273,-0.29l-0.275,-0.289l-0.276,-0.287l-0.278,-0.286l-0.28,-0.284l-0.282,-0.282l-0.284,-0.281l-0.285,-0.28l-0.287,-0.278l-0.289,-0.276l-0.291,-0.275l-0.292,-0.273l-0.294,-0.271l-0.296,-0.27l-0.298,-0.268l-0.3,-0.266l-0.301,-0.265l-0.303,-0.263l-0.304,-0.261l-0.307,-0.26l-0.308,-0.258l-0.31,-0.256l-0.311,-0.254l-0.314,-0.252l-0.315,-0.251l-0.317,-0.249l-0.318,-0.247l-0.32,-0.245l-0.322,-0.243l-0.324,-0.242l-0.325,-0.24l-0.327,-0.237l-0.328,-0.236l-0.331,-0.234l-0.331,-0.232l-0.334,-0.23l-0.335,-0.228l-0.337,-0.226l-0.339,-0.225l-0.34,-0.222l-0.342,-0.22l-0.344,-0.218l-0.345,-0.216l-0.347,-0.214l-0.348,-0.213l-0.35,-0.21l-0.352,-0.208l-0.353,-0.205l-0.355,-0.204l-0.357,-0.202l-0.358,-0.199l-0.36,-0.198l-0.362,-0.195l-0.363,-0.193l-0.364,-0.191l-0.366,-0.189l-0.368,-0.186l-0.37,-0.184l-0.371,-0.182l-0.372,-0.18l-0.374,-0.178l-0.376,-0.175l-0.377,-0.173l-0.379,-0.171l-0.381,-0.168l-0.382,-0.166l-0.383,-0.164l-0.385,-0.162l-0.387,-0.159l-0.388,-0.157l-0.39,-0.154l-0.391,-0.152l-0.393,-0.149l-0.394,-0.148l-0.396,-0.144l-0.397,-0.143l-0.399,-0.139l-0.4,-0.138l-0.402,-0.135l-0.403,-0.132l-0.405,-0.13l-0.406,-0.127l-0.408,-0.125l-0.41,-0.122l-0.41,-0.12l-0.413,-0.117l-0.413,-0.115l-0.416,-0.112l-0.416,-0.109l-0.418,-0.107l-0.42,-0.104l-0.421,-0.101l-0.422,-0.099l-0.424,-0.096l-0.426,-0.094l-0.427,-0.091l-0.428,-0.088l-0.43,-0.085l-0.431,-0.083l-0.432,-0.08l-0.434,-0.077l-0.436,-0.074l-0.436,-0.072l-0.439,-0.068l-0.439,-0.066l-0.441,-0.064l-0.221,-0.03l-0.222,-0.03l-0.221,-0.029l-0.223,-0.028l-0.222,-0.028l-0.223,-0.027l-0.223,-0.026l-0.223,-0.026l-0.224,-0.024l-0.224,-0.024l-0.225,-0.024l-0.225,-0.022l-0.225,-0.022l-0.225,-0.021l-0.226,-0.021l-0.226,-0.02l-0.227,-0.019l-0.227,-0.018l-0.227,-0.017l-0.228,-0.017l-0.228,-0.016l-0.228,-0.015l-0.228,-0.015l-0.229,-0.014l-0.23,-0.013l-0.229,-0.012l-0.23,-0.011l-0.231,-0.011l-0.23,-0.01l-0.231,-0.009l-0.231,-0.009l-0.232,-0.008l-0.232,-0.007l-0.232,-0.006l-0.233,-0.005l-0.233,-0.005l-0.233,-0.004l-0.234,-0.003l-0.234,-0.003l-0.234,-0.001l-0.235,-0.001l-0.235,0l-0.235,0Z"/></g><path d="M94.185,70.626l14.595,-55.462l18.682,54.294c0,0 -9.875,1.029 -8.177,15.465" style="fill:#fff;stroke:#000;stroke-width:4.86px;"/><clipPath id="_clip2"><path d="M108.869,12.787l3.266,81.571l39.661,-20.301l-42.927,-61.27Z"/></clipPath><g clip-path="url(#_clip2)"><path d="M94.185,70.626l14.595,-55.462l18.682,54.294c0,0 -9.875,1.029 -8.177,15.465" style="fill-opacity:0.301961;"/></g><path d="M56.162,110.499l-40.734,-40.371l56.361,10.968c0,0 -4.047,9.067 9.305,14.814" style="fill:#fff;stroke:#000;stroke-width:4.86px;"/><clipPath id="_clip3"><path d="M13.414,68.863l72.276,37.957l2.249,-44.498l-74.525,6.541Z"/></clipPath><g clip-path="url(#_clip3)"><path d="M56.162,110.499l-40.734,-40.371l56.361,10.968c0,0 -4.047,9.067 9.305,14.814" style="fill-opacity:0.301961;"/></g><path d="M94.225,159.565l-50.658,26.884l27.233,-50.549c0,0 7.453,6.56 16.911,-4.478" style="fill:#fff;stroke:#000;stroke-width:4.86px;"/><clipPath id="_clip4"><path d="M41.759,187.996l57.736,-57.717l-41.817,-15.382l-15.919,73.099Z"/></clipPath><g clip-path="url(#_clip4)"><path d="M94.225,159.565l-50.658,26.884l27.233,-50.549c0,0 7.453,6.56 16.911,-4.478" style="fill-opacity:0.301961;"/></g><path d="M153.814,138.504l19.394,53.97l-46.154,-34.156c0,0 7.555,-6.442 -2.023,-17.376" style="fill:#fff;stroke:#000;stroke-width:4.86px;"/><clipPath id="_clip5"><path d="M174.482,194.483l-48.904,-65.367l-21.182,39.199l70.086,26.168Z"/></clipPath><g clip-path="url(#_clip5)"><path d="M153.814,138.504l19.394,53.97l-46.154,-34.156c0,0 7.555,-6.442 -2.023,-17.376" style="fill-opacity:0.301961;"/></g><path d="M153.846,78.7l56.86,-7.478l-43.186,37.838c0,0 -4.689,-8.751 -17.409,-1.716" style="fill:#fff;stroke:#000;stroke-width:4.86px;"/><clipPath id="_clip6"><path d="M212.94,70.404l-74.269,33.891l33.8,29.03l40.469,-62.921Z"/></clipPath><g clip-path="url(#_clip6)"><path d="M153.846,78.7l56.86,-7.478l-43.186,37.838c0,0 -4.689,-8.751 -17.409,-1.716" style="fill-opacity:0.301961;"/></g></g></svg>