<?xml version="1.0" encoding="UTF-8" standalone="no"?><!DOCTYPE svg PUBLIC "-//W3C//DTD SVG 1.1//EN" "http://www.w3.org/Graphics/SVG/1.1/DTD/svg11.dtd"><svg width="100%" height="100%" viewBox="0 0 514 335" version="1.1" xmlns="http://www.w3.org/2000/svg" xmlns:xlink="http://www.w3.org/1999/xlink" xml:space="preserve" xmlns:serif="http://www.serif.com/" style="fill-rule:evenodd;clip-rule:evenodd;stroke-linecap:round;stroke-linejoin:round;stroke-miterlimit:1.5;"><g><path d="M71.2,258.684l17.809,70.346l94.389,-68.565l-112.198,-1.781Z" style="fill:#fff;stroke:#fff;stroke-width:10px;"/><path d="M498.621,74.359c0,-32.437 -26.335,-58.771 -58.771,-58.771l-365.088,0c-32.436,0 -58.77,26.334 -58.77,58.771l0,117.54c0,32.437 26.334,58.771 58.77,58.771l365.088,0c32.436,0 58.771,-26.334 58.771,-58.771l0,-117.54Z" style="fill:#fff;stroke:#fff;stroke-width:30px;"/><path d="M498.621,74.359c0,-32.437 -26.335,-58.771 -58.771,-58.771l-365.088,0c-32.436,0 -58.77,26.334 -58.77,58.771l0,117.54c0,32.437 26.334,58.771 58.77,58.771l3.024,0l16.393,64.192l87.184,-64.192l258.487,0c32.436,0 58.771,-26.334 58.771,-58.771l0,-117.54Z" style="fill:#fff;"/><path d="M247.668,12.333l92.451,0.229l98.166,-0.214l1.57,-0.004l0.396,0l0.4,0.003l0.399,0.005l0.399,0.008l0.398,0.011l0.397,0.012l0.397,0.016l0.397,0.018l0.395,0.02l0.395,0.023l0.395,0.025l0.394,0.028l0.393,0.03l0.392,0.033l0.392,0.035l0.391,0.037l0.391,0.04l0.39,0.042l0.389,0.045l0.388,0.047l0.388,0.05l0.387,0.052l0.386,0.054l0.386,0.057l0.384,0.059l0.384,0.062l0.384,0.063l0.382,0.066l0.382,0.069l0.381,0.071l0.38,0.073l0.379,0.075l0.378,0.078l0.378,0.08l0.377,0.082l0.376,0.085l0.375,0.087l0.374,0.089l0.373,0.092l0.373,0.093l0.371,0.096l0.371,0.098l0.37,0.101l0.369,0.102l0.368,0.105l0.367,0.107l0.366,0.109l0.365,0.112l0.365,0.114l0.363,0.115l0.362,0.118l0.362,0.12l0.36,0.123l0.359,0.124l0.359,0.127l0.357,0.128l0.357,0.131l0.355,0.133l0.354,0.135l0.354,0.137l0.352,0.139l0.351,0.142l0.35,0.143l0.35,0.146l0.348,0.147l0.347,0.15l0.345,0.151l0.345,0.154l0.344,0.156l0.342,0.157l0.342,0.16l0.34,0.162l0.339,0.164l0.338,0.165l0.337,0.168l0.336,0.17l0.335,0.171l0.333,0.174l0.332,0.176l0.331,0.177l0.33,0.18l0.329,0.181l0.327,0.183l0.326,0.185l0.325,0.188l0.324,0.189l0.322,0.191l0.321,0.192l0.32,0.195l0.319,0.197l0.318,0.198l0.316,0.2l0.315,0.202l0.313,0.204l0.312,0.206l0.311,0.208l0.31,0.209l0.308,0.212l0.307,0.213l0.306,0.215l0.304,0.216l0.303,0.219l0.301,0.22l0.301,0.222l0.298,0.223l0.298,0.226l0.296,0.227l0.294,0.229l0.294,0.231l0.291,0.232l0.291,0.234l0.289,0.236l0.287,0.237l0.286,0.24l0.285,0.241l0.283,0.242l0.282,0.244l0.28,0.246l0.278,0.248l0.278,0.249l0.275,0.251l0.275,0.252l0.272,0.254l0.271,0.256l0.27,0.257l0.268,0.259l0.267,0.26l0.264,0.262l0.264,0.264l0.262,0.265l0.26,0.267l0.259,0.268l0.257,0.27l0.255,0.272l0.254,0.273l0.252,0.274l0.251,0.276l0.249,0.278l0.247,0.279l0.246,0.28l0.244,0.282l0.243,0.283l0.24,0.285l0.24,0.287l0.237,0.288l0.236,0.289l0.234,0.291l0.232,0.292l0.231,0.293l0.228,0.296l0.228,0.296l0.225,0.298l0.224,0.299l0.222,0.301l0.22,0.302l0.218,0.303l0.217,0.305l0.215,0.306l0.213,0.308l0.211,0.308l0.209,0.311l0.208,0.311l0.206,0.313l0.204,0.314l0.202,0.316l0.2,0.316l0.198,0.318l0.197,0.32l0.195,0.32l0.193,0.322l0.19,0.323l0.19,0.325l0.187,0.326l0.185,0.326l0.183,0.329l0.182,0.329l0.179,0.331l0.178,0.331l0.175,0.333l0.174,0.335l0.172,0.335l0.169,0.337l0.168,0.337l0.166,0.339l0.164,0.34l0.161,0.341l0.16,0.343l0.158,0.343l0.156,0.345l0.153,0.346l0.152,0.347l0.149,0.348l0.148,0.349l0.146,0.35l0.143,0.351l0.141,0.352l0.139,0.354l0.138,0.354l0.135,0.356l0.133,0.356l0.13,0.358l0.129,0.358l0.127,0.36l0.124,0.36l0.122,0.362l0.12,0.363l0.118,0.363l0.116,0.365l0.114,0.365l0.111,0.367l0.109,0.367l0.107,0.369l0.105,0.369l0.103,0.37l0.1,0.372l0.098,0.372l0.096,0.373l0.094,0.374l0.091,0.375l0.089,0.375l0.087,0.377l0.084,0.377l0.082,0.379l0.08,0.379l0.078,0.38l0.075,0.381l0.073,0.381l0.071,0.383l0.068,0.383l0.066,0.384l0.064,0.385l0.061,0.386l0.059,0.386l0.056,0.388l0.055,0.387l0.051,0.389l0.05,0.39l0.047,0.39l0.044,0.391l0.042,0.391l0.04,0.393l0.013,0.136l0.024,0.257l0.035,0.394l0.032,0.394l0.03,0.395l0.028,0.396l0.025,0.396l0.022,0.398l0.02,0.397l0.018,0.399l0.014,0.399l0.013,0.399l0.01,0.4l0.007,0.401l0.005,0.402l0.003,0.396l-0.33,117.551l-0.002,0.395l-0.005,0.4l-0.008,0.398l-0.009,0.398l-0.009,0.263l-0.004,0.135l-0.015,0.397l-0.018,0.396l-0.02,0.396l-0.022,0.395l-0.025,0.394l-0.028,0.394l-0.03,0.393l-0.032,0.392l-0.035,0.392l-0.037,0.391l-0.04,0.39l-0.042,0.39l-0.044,0.388l-0.047,0.388l-0.049,0.388l-0.052,0.386l-0.054,0.386l-0.057,0.385l-0.058,0.385l-0.061,0.383l-0.064,0.383l-0.066,0.382l-0.068,0.381l-0.07,0.381l-0.073,0.379l-0.075,0.379l-0.078,0.378l-0.079,0.377l-0.082,0.376l-0.085,0.376l-0.086,0.374l-0.089,0.374l-0.091,0.372l-0.093,0.372l-0.096,0.371l-0.098,0.37l-0.1,0.369l-0.102,0.369l-0.104,0.367l-0.107,0.366l-0.109,0.366l-0.111,0.364l-0.113,0.364l-0.115,0.362l-0.118,0.362l-0.119,0.36l-0.122,0.36l-0.124,0.358l-0.126,0.358l-0.128,0.356l-0.131,0.356l-0.132,0.354l-0.134,0.354l-0.137,0.352l-0.139,0.352l-0.14,0.35l-0.143,0.349l-0.145,0.348l-0.147,0.347l-0.149,0.346l-0.151,0.345l-0.153,0.344l-0.155,0.343l-0.157,0.341l-0.159,0.34l-0.161,0.34l-0.163,0.338l-0.165,0.337l-0.167,0.335l-0.169,0.335l-0.171,0.334l-0.173,0.332l-0.175,0.331l-0.177,0.33l-0.178,0.328l-0.181,0.328l-0.182,0.326l-0.185,0.325l-0.186,0.324l-0.188,0.322l-0.19,0.322l-0.192,0.32l-0.194,0.318l-0.196,0.318l-0.197,0.316l-0.2,0.315l-0.201,0.313l-0.203,0.313l-0.205,0.311l-0.206,0.309l-0.209,0.309l-0.21,0.307l-0.212,0.305l-0.214,0.305l-0.215,0.303l-0.218,0.301l-0.219,0.3l-0.221,0.299l-0.222,0.298l-0.224,0.296l-0.226,0.294l-0.228,0.294l-0.23,0.292l-0.231,0.29l-0.233,0.289l-0.234,0.287l-0.236,0.287l-0.238,0.284l-0.24,0.283l-0.241,0.282l-0.243,0.28l-0.244,0.279l-0.247,0.277l-0.247,0.276l-0.25,0.275l-0.251,0.272l-0.252,0.272l-0.255,0.269l-0.255,0.268l-0.258,0.267l-0.259,0.265l-0.26,0.264l-0.262,0.262l-0.264,0.26l-0.265,0.259l-0.267,0.257l-0.268,0.256l-0.27,0.254l-0.271,0.252l-0.273,0.251l-0.274,0.25l-0.276,0.247l-0.277,0.246l-0.279,0.244l-0.28,0.243l-0.281,0.241l-0.284,0.239l-0.284,0.238l-0.286,0.236l-0.287,0.234l-0.289,0.233l-0.291,0.231l-0.291,0.229l-0.293,0.227l-0.295,0.226l-0.295,0.224l-0.298,0.222l-0.298,0.221l-0.3,0.219l-0.301,0.217l-0.303,0.215l-0.304,0.213l-0.305,0.212l-0.307,0.21l-0.308,0.208l-0.309,0.206l-0.311,0.205l-0.312,0.202l-0.313,0.201l-0.314,0.199l-0.316,0.197l-0.317,0.195l-0.318,0.194l-0.319,0.191l-0.321,0.19l-0.322,0.188l-0.323,0.185l-0.325,0.184l-0.325,0.182l-0.327,0.181l-0.328,0.178l-0.329,0.176l-0.33,0.174l-0.332,0.173l-0.333,0.17l-0.333,0.169l-0.335,0.166l-0.337,0.165l-0.337,0.162l-0.338,0.161l-0.34,0.159l-0.34,0.156l-0.342,0.155l-0.343,0.152l-0.344,0.151l-0.345,0.148l-0.346,0.147l-0.347,0.144l-0.348,0.143l-0.349,0.14l-0.351,0.138l-0.351,0.136l-0.352,0.134l-0.353,0.132l-0.355,0.13l-0.355,0.128l-0.357,0.125l-0.357,0.124l-0.358,0.121l-0.359,0.119l-0.361,0.117l-0.361,0.115l-0.362,0.113l-0.363,0.11l-0.364,0.109l-0.365,0.106l-0.366,0.104l-0.367,0.102l-0.367,0.099l-0.369,0.098l-0.369,0.095l-0.37,0.093l-0.372,0.09l-0.372,0.089l-0.372,0.086l-0.374,0.084l-0.375,0.082l-0.375,0.079l-0.376,0.077l-0.377,0.075l-0.378,0.072l-0.379,0.07l-0.379,0.068l-0.38,0.066l-0.381,0.063l-0.382,0.061l-0.281,0.043l-0.101,0.015l-0.383,0.056l-0.384,0.053l-0.385,0.051l-0.385,0.049l-0.387,0.046l-0.386,0.044l-0.388,0.042l-0.388,0.039l-0.389,0.037l-0.389,0.034l-0.391,0.032l-0.39,0.029l-0.392,0.027l-0.392,0.025l-0.393,0.022l-0.393,0.019l-0.394,0.017l-0.394,0.015l-0.396,0.012l-0.395,0.01l-0.397,0.007l-0.396,0.005l-0.398,0.002l-0.393,-0.001l-83.775,-0.362l-92.907,-0.368l-52.423,-0.635l-28.859,0.12l0.002,0.007l-58.874,43.353l0.154,0.264l-27.924,20.415l-0.251,0.151l-0.273,0.109l-0.285,0.063l-0.292,0.016l-0.29,-0.032l-0.281,-0.078l-0.264,-0.122l-0.24,-0.164l-0.21,-0.199l-0.174,-0.231l-0.134,-0.256l-0.092,-0.273l0.001,-0.001l-8.554,-33.958l-7.51,-28.851l-1.641,0l0,0.017l-0.388,0.001l-0.391,-0.001l-0.391,-0.004l-0.39,-0.007l-0.389,-0.009l-0.389,-0.011l-0.388,-0.014l-0.387,-0.016l-0.387,-0.019l-0.387,-0.021l-0.386,-0.023l-0.385,-0.026l-0.384,-0.029l-0.384,-0.031l-0.383,-0.033l-0.383,-0.035l-0.382,-0.038l-0.381,-0.04l-0.381,-0.043l-0.379,-0.045l-0.38,-0.047l-0.378,-0.05l-0.378,-0.052l-0.377,-0.054l-0.376,-0.057l-0.376,-0.059l-0.375,-0.061l-0.374,-0.064l-0.373,-0.066l-0.373,-0.068l-0.372,-0.07l-0.371,-0.073l-0.37,-0.075l-0.37,-0.077l-0.368,-0.079l-0.368,-0.082l-0.367,-0.084l-0.366,-0.086l-0.366,-0.088l-0.364,-0.091l-0.364,-0.092l-0.363,-0.095l-0.362,-0.097l-0.361,-0.1l-0.36,-0.101l-0.359,-0.104l-0.359,-0.105l-0.357,-0.108l-0.357,-0.11l-0.356,-0.113l-0.354,-0.114l-0.354,-0.116l-0.353,-0.119l-0.352,-0.121l-0.351,-0.122l-0.35,-0.125l-0.349,-0.127l-0.348,-0.129l-0.347,-0.131l-0.346,-0.133l-0.345,-0.135l-0.344,-0.138l-0.343,-0.139l-0.342,-0.141l-0.341,-0.144l-0.34,-0.145l-0.339,-0.147l-0.338,-0.15l-0.337,-0.151l-0.335,-0.153l-0.335,-0.155l-0.333,-0.158l-0.333,-0.159l-0.331,-0.161l-0.33,-0.163l-0.329,-0.165l-0.328,-0.167l-0.327,-0.169l-0.326,-0.171l-0.324,-0.173l-0.323,-0.175l-0.323,-0.176l-0.321,-0.179l-0.319,-0.18l-0.319,-0.182l-0.317,-0.184l-0.317,-0.186l-0.315,-0.188l-0.313,-0.19l-0.313,-0.191l-0.311,-0.194l-0.31,-0.195l-0.309,-0.197l-0.308,-0.199l-0.306,-0.2l-0.305,-0.203l-0.304,-0.204l-0.303,-0.206l-0.301,-0.207l-0.3,-0.21l-0.298,-0.211l-0.298,-0.213l-0.295,-0.215l-0.295,-0.216l-0.293,-0.219l-0.292,-0.22l-0.291,-0.221l-0.289,-0.224l-0.288,-0.225l-0.286,-0.226l-0.285,-0.229l-0.284,-0.23l-0.282,-0.232l-0.281,-0.233l-0.28,-0.235l-0.278,-0.237l-0.276,-0.238l-0.276,-0.24l-0.273,-0.242l-0.273,-0.243l-0.27,-0.245l-0.048,-0.043l-0.221,-0.204l-0.268,-0.249l-0.265,-0.25l-0.265,-0.252l-0.262,-0.254l-0.262,-0.255l-0.259,-0.256l-0.259,-0.258l-0.256,-0.26l-0.255,-0.261l-0.254,-0.263l-0.252,-0.264l-0.251,-0.266l-0.248,-0.267l-0.248,-0.269l-0.245,-0.27l-0.245,-0.272l-0.242,-0.273l-0.241,-0.275l-0.239,-0.276l-0.238,-0.277l-0.236,-0.279l-0.234,-0.281l-0.233,-0.282l-0.231,-0.283l-0.23,-0.285l-0.228,-0.286l-0.226,-0.287l-0.224,-0.289l-0.223,-0.291l-0.221,-0.291l-0.219,-0.293l-0.218,-0.295l-0.215,-0.296l-0.215,-0.297l-0.212,-0.298l-0.211,-0.3l-0.209,-0.301l-0.207,-0.303l-0.205,-0.303l-0.204,-0.305l-0.201,-0.307l-0.2,-0.307l-0.199,-0.309l-0.196,-0.311l-0.195,-0.311l-0.192,-0.313l-0.191,-0.314l-0.189,-0.315l-0.188,-0.317l-0.185,-0.317l-0.184,-0.319l-0.181,-0.32l-0.18,-0.322l-0.178,-0.322l-0.176,-0.324l-0.174,-0.325l-0.173,-0.326l-0.17,-0.327l-0.168,-0.329l-0.167,-0.33l-0.164,-0.33l-0.163,-0.332l-0.16,-0.333l-0.159,-0.335l-0.157,-0.335l-0.155,-0.336l-0.152,-0.338l-0.151,-0.338l-0.149,-0.34l-0.147,-0.341l-0.144,-0.342l-0.143,-0.343l-0.141,-0.344l-0.138,-0.345l-0.137,-0.346l-0.135,-0.347l-0.132,-0.348l-0.131,-0.349l-0.128,-0.351l-0.126,-0.351l-0.124,-0.352l-0.122,-0.353l-0.12,-0.354l-0.118,-0.356l-0.116,-0.356l-0.114,-0.357l-0.111,-0.358l-0.11,-0.359l-0.107,-0.36l-0.105,-0.361l-0.103,-0.362l-0.1,-0.362l-0.099,-0.364l-0.096,-0.364l-0.094,-0.366l-0.092,-0.366l-0.09,-0.367l-0.087,-0.368l-0.086,-0.369l-0.083,-0.37l-0.081,-0.371l-0.078,-0.371l-0.076,-0.372l-0.074,-0.373l-0.072,-0.374l-0.07,-0.375l-0.067,-0.376l-0.065,-0.376l-0.062,-0.377l-0.06,-0.378l-0.058,-0.378l-0.056,-0.38l-0.053,-0.38l-0.051,-0.381l-0.049,-0.382l-0.046,-0.382l-0.044,-0.383l-0.041,-0.384l-0.039,-0.384l-0.037,-0.385l-0.034,-0.386l-0.032,-0.387l-0.03,-0.387l-0.027,-0.388l-0.025,-0.389l-0.022,-0.389l-0.02,-0.39l-0.017,-0.39l-0.015,-0.391l-0.012,-0.392l-0.01,-0.392l-0.008,-0.393l-0.005,-0.394l-0.002,-0.39l-0.108,-32.913l-1.2,-84.637l-0.004,-0.397l-0.001,-0.402l0.001,-0.401l0.003,-0.401l0.006,-0.4l0.009,-0.4l0.011,-0.399l0.001,-0.021l0.019,-0.378l0.023,-0.398l0.026,-0.397l0.028,-0.396l0.03,-0.396l0.033,-0.395l0.036,-0.394l0.038,-0.394l0.04,-0.393l0.043,-0.392l0.045,-0.392l0.048,-0.39l0.05,-0.39l0.052,-0.39l0.055,-0.388l0.057,-0.388l0.06,-0.387l0.062,-0.386l0.064,-0.385l0.067,-0.385l0.069,-0.384l0.071,-0.383l0.074,-0.382l0.076,-0.381l0.078,-0.381l0.081,-0.379l0.083,-0.379l0.085,-0.378l0.088,-0.377l0.09,-0.376l0.092,-0.375l0.094,-0.375l0.097,-0.373l0.099,-0.372l0.101,-0.372l0.103,-0.371l0.105,-0.369l0.108,-0.369l0.11,-0.368l0.112,-0.367l0.115,-0.366l0.116,-0.364l0.119,-0.364l0.121,-0.363l0.123,-0.362l0.125,-0.361l0.127,-0.36l0.129,-0.359l0.132,-0.358l0.134,-0.356l0.135,-0.356l0.138,-0.355l0.14,-0.353l0.142,-0.353l0.145,-0.351l0.146,-0.35l0.148,-0.35l0.15,-0.348l0.153,-0.347l0.154,-0.346l0.157,-0.345l0.158,-0.343l0.161,-0.343l0.162,-0.341l0.165,-0.34l0.166,-0.339l0.168,-0.338l0.171,-0.337l0.172,-0.335l0.175,-0.334l0.176,-0.334l0.178,-0.331l0.18,-0.331l0.183,-0.329l0.184,-0.329l0.186,-0.327l0.187,-0.325l0.19,-0.325l0.192,-0.323l0.193,-0.322l0.196,-0.32l0.197,-0.32l0.199,-0.318l0.201,-0.316l0.203,-0.316l0.205,-0.314l0.206,-0.313l0.208,-0.311l0.211,-0.31l0.211,-0.309l0.214,-0.307l0.216,-0.306l0.217,-0.305l0.219,-0.303l0.221,-0.302l0.222,-0.301l0.225,-0.299l0.226,-0.298l0.228,-0.296l0.229,-0.295l0.231,-0.293l0.233,-0.292l0.235,-0.291l0.236,-0.289l0.238,-0.288l0.24,-0.286l0.241,-0.285l0.243,-0.283l0.245,-0.282l0.246,-0.28l0.248,-0.279l0.25,-0.277l0.251,-0.276l0.253,-0.274l0.255,-0.273l0.256,-0.271l0.257,-0.27l0.26,-0.268l0.261,-0.266l0.262,-0.265l0.264,-0.263l0.265,-0.262l0.268,-0.26l0.268,-0.259l0.27,-0.257l0.272,-0.255l0.273,-0.254l0.275,-0.252l0.276,-0.251l0.278,-0.248l0.279,-0.248l0.281,-0.245l0.282,-0.244l0.284,-0.242l0.285,-0.241l0.286,-0.238l0.288,-0.238l0.29,-0.235l0.291,-0.234l0.292,-0.232l0.293,-0.23l0.296,-0.229l0.296,-0.226l0.298,-0.225l0.299,-0.224l0.301,-0.221l0.302,-0.22l0.303,-0.218l0.305,-0.216l0.306,-0.215l0.307,-0.212l0.309,-0.211l0.31,-0.209l0.311,-0.207l0.313,-0.206l0.314,-0.203l0.315,-0.202l0.317,-0.2l0.317,-0.197l0.32,-0.197l0.32,-0.194l0.321,-0.192l0.323,-0.191l0.324,-0.188l0.326,-0.187l0.326,-0.184l0.328,-0.183l0.329,-0.181l0.33,-0.179l0.331,-0.177l0.333,-0.175l0.333,-0.173l0.335,-0.171l0.336,-0.169l0.337,-0.168l0.339,-0.165l0.339,-0.163l0.341,-0.161l0.341,-0.159l0.343,-0.157l0.344,-0.156l0.345,-0.153l0.346,-0.151l0.347,-0.149l0.349,-0.147l0.349,-0.145l0.35,-0.142l0.352,-0.141l0.352,-0.139l0.354,-0.136l0.354,-0.135l0.356,-0.132l0.356,-0.13l0.358,-0.128l0.359,-0.126l0.359,-0.124l0.361,-0.122l0.361,-0.119l0.363,-0.118l0.363,-0.115l0.364,-0.113l0.366,-0.111l0.366,-0.108l0.367,-0.107l0.368,-0.104l0.369,-0.102l0.37,-0.1l0.371,-0.097l0.371,-0.095l0.373,-0.093l0.373,-0.091l0.117,-0.028l0.257,-0.062l0.375,-0.089l0.375,-0.087l0.376,-0.084l0.378,-0.082l0.378,-0.079l0.378,-0.077l0.38,-0.075l0.381,-0.073l0.381,-0.07l0.382,-0.068l0.383,-0.066l0.384,-0.063l0.384,-0.061l0.385,-0.059l0.386,-0.056l0.387,-0.054l0.388,-0.051l0.388,-0.049l0.389,-0.047l0.389,-0.044l0.391,-0.042l0.391,-0.039l0.392,-0.037l0.392,-0.035l0.394,-0.032l0.393,-0.03l0.395,-0.027l0.395,-0.024l0.396,-0.023l0.396,-0.019l0.398,-0.018l0.397,-0.014l0.399,-0.013l0.399,-0.009l0.399,-0.008l0.4,-0.004l0.396,-0.003l84.943,-0.201l87.968,0.24Zm247.455,61.311l-0.004,-0.357l-0.007,-0.356l-0.009,-0.355l-0.012,-0.355l-0.013,-0.354l-0.016,-0.354l-0.018,-0.353l-0.02,-0.353l-0.023,-0.351l-0.024,-0.352l-0.027,-0.35l-0.029,-0.351l-0.02,-0.228l-0.011,-0.121l-0.033,-0.349l-0.036,-0.348l-0.038,-0.347l-0.039,-0.347l-0.042,-0.347l-0.044,-0.345l-0.047,-0.345l-0.048,-0.344l-0.05,-0.344l-0.053,-0.343l-0.055,-0.342l-0.056,-0.341l-0.059,-0.341l-0.061,-0.34l-0.063,-0.339l-0.065,-0.339l-0.067,-0.338l-0.069,-0.337l-0.071,-0.336l-0.074,-0.336l-0.075,-0.334l-0.077,-0.335l-0.079,-0.333l-0.082,-0.332l-0.083,-0.332l-0.085,-0.331l-0.088,-0.33l-0.089,-0.33l-0.091,-0.328l-0.094,-0.328l-0.095,-0.327l-0.097,-0.326l-0.099,-0.325l-0.101,-0.325l-0.103,-0.323l-0.105,-0.323l-0.107,-0.322l-0.109,-0.321l-0.111,-0.32l-0.112,-0.319l-0.115,-0.319l-0.116,-0.317l-0.118,-0.317l-0.121,-0.315l-0.122,-0.315l-0.124,-0.314l-0.125,-0.313l-0.128,-0.312l-0.129,-0.311l-0.132,-0.31l-0.133,-0.309l-0.135,-0.308l-0.137,-0.308l-0.138,-0.306l-0.141,-0.305l-0.142,-0.304l-0.144,-0.304l-0.146,-0.302l-0.147,-0.301l-0.15,-0.3l-0.151,-0.3l-0.153,-0.298l-0.154,-0.297l-0.157,-0.296l-0.158,-0.295l-0.16,-0.294l-0.161,-0.293l-0.164,-0.292l-0.165,-0.291l-0.166,-0.29l-0.169,-0.288l-0.17,-0.288l-0.172,-0.286l-0.173,-0.285l-0.175,-0.285l-0.177,-0.283l-0.179,-0.282l-0.18,-0.28l-0.182,-0.28l-0.183,-0.279l-0.185,-0.277l-0.187,-0.276l-0.188,-0.275l-0.19,-0.274l-0.192,-0.273l-0.193,-0.271l-0.195,-0.27l-0.196,-0.269l-0.198,-0.268l-0.199,-0.267l-0.201,-0.265l-0.203,-0.264l-0.204,-0.263l-0.206,-0.262l-0.207,-0.26l-0.209,-0.259l-0.21,-0.258l-0.212,-0.257l-0.213,-0.255l-0.215,-0.254l-0.216,-0.253l-0.218,-0.251l-0.219,-0.25l-0.221,-0.249l-0.222,-0.247l-0.224,-0.246l-0.225,-0.245l-0.227,-0.243l-0.228,-0.242l-0.23,-0.241l-0.23,-0.239l-0.233,-0.238l-0.234,-0.237l-0.235,-0.235l-0.236,-0.233l-0.238,-0.233l-0.24,-0.231l-0.24,-0.229l-0.242,-0.228l-0.244,-0.227l-0.245,-0.225l-0.246,-0.224l-0.247,-0.222l-0.249,-0.221l-0.251,-0.219l-0.251,-0.218l-0.253,-0.216l-0.254,-0.215l-0.256,-0.214l-0.256,-0.211l-0.258,-0.211l-0.26,-0.209l-0.26,-0.207l-0.262,-0.206l-0.263,-0.204l-0.265,-0.203l-0.265,-0.201l-0.267,-0.2l-0.268,-0.198l-0.27,-0.196l-0.27,-0.195l-0.272,-0.193l-0.273,-0.192l-0.274,-0.19l-0.276,-0.189l-0.276,-0.186l-0.278,-0.186l-0.279,-0.183l-0.28,-0.182l-0.281,-0.181l-0.283,-0.178l-0.283,-0.177l-0.285,-0.176l-0.286,-0.173l-0.287,-0.172l-0.288,-0.171l-0.289,-0.168l-0.291,-0.167l-0.291,-0.166l-0.292,-0.163l-0.294,-0.162l-0.295,-0.16l-0.295,-0.158l-0.297,-0.157l-0.298,-0.155l-0.299,-0.153l-0.3,-0.151l-0.301,-0.15l-0.302,-0.148l-0.303,-0.146l-0.304,-0.144l-0.305,-0.143l-0.306,-0.14l-0.307,-0.139l-0.308,-0.137l-0.309,-0.135l-0.31,-0.134l-0.311,-0.131l-0.312,-0.13l-0.313,-0.128l-0.314,-0.126l-0.315,-0.124l-0.315,-0.122l-0.317,-0.121l-0.318,-0.118l-0.318,-0.117l-0.32,-0.115l-0.32,-0.113l-0.321,-0.11l-0.322,-0.109l-0.323,-0.108l-0.324,-0.105l-0.325,-0.103l-0.326,-0.101l-0.326,-0.1l-0.327,-0.097l-0.329,-0.095l-0.329,-0.094l-0.329,-0.091l-0.331,-0.09l-0.332,-0.087l-0.332,-0.086l-0.333,-0.083l-0.334,-0.082l-0.335,-0.079l-0.335,-0.078l-0.336,-0.075l-0.337,-0.073l-0.338,-0.072l-0.339,-0.069l-0.339,-0.067l-0.34,-0.065l-0.341,-0.063l-0.342,-0.061l-0.342,-0.059l-0.343,-0.057l-0.344,-0.055l-0.344,-0.052l-0.346,-0.051l-0.345,-0.048l-0.347,-0.047l-0.347,-0.044l-0.348,-0.042l-0.349,-0.039l-0.349,-0.038l-0.35,-0.036l-0.351,-0.033l-0.351,-0.031l-0.352,-0.029l-0.353,-0.027l-0.353,-0.024l-0.354,-0.023l-0.354,-0.02l-0.355,-0.018l-0.356,-0.015l-0.356,-0.014l-0.357,-0.011l-0.358,-0.009l-0.358,-0.007l-0.358,-0.004l-0.365,-0.002l-1.57,-0.005l-98.16,-0.213l-92.446,0.229l-87.963,0.239l-84.939,-0.201l-0.364,0.001l-0.358,0.002l-0.358,0.005l-0.357,0.007l-0.357,0.009l-0.356,0.012l-0.356,0.014l-0.355,0.016l-0.354,0.018l-0.354,0.02l-0.353,0.023l-0.353,0.025l-0.352,0.027l-0.351,0.029l-0.35,0.031l-0.351,0.034l-0.349,0.036l-0.349,0.038l-0.348,0.04l-0.347,0.042l-0.347,0.044l-0.346,0.047l-0.345,0.048l-0.345,0.051l-0.344,0.053l-0.344,0.055l-0.342,0.057l-0.342,0.059l-0.341,0.061l-0.341,0.064l-0.34,0.065l-0.339,0.068l-0.338,0.069l-0.337,0.072l-0.337,0.073l-0.336,0.076l-0.335,0.078l-0.231,0.055l-0.104,0.025l-0.333,0.084l-0.332,0.086l-0.332,0.089l-0.33,0.09l-0.33,0.092l-0.329,0.094l-0.328,0.096l-0.327,0.098l-0.327,0.1l-0.325,0.102l-0.325,0.104l-0.324,0.105l-0.323,0.108l-0.322,0.11l-0.321,0.111l-0.32,0.114l-0.319,0.115l-0.318,0.117l-0.318,0.119l-0.316,0.121l-0.316,0.123l-0.315,0.125l-0.313,0.127l-0.313,0.128l-0.312,0.13l-0.31,0.133l-0.31,0.133l-0.309,0.136l-0.308,0.138l-0.307,0.139l-0.306,0.142l-0.304,0.143l-0.304,0.144l-0.303,0.147l-0.302,0.148l-0.3,0.15l-0.3,0.152l-0.299,0.154l-0.297,0.155l-0.297,0.158l-0.295,0.158l-0.294,0.161l-0.294,0.162l-0.292,0.164l-0.291,0.166l-0.29,0.168l-0.289,0.169l-0.288,0.171l-0.286,0.172l-0.286,0.174l-0.284,0.176l-0.283,0.178l-0.282,0.179l-0.281,0.181l-0.28,0.182l-0.278,0.184l-0.278,0.186l-0.276,0.187l-0.275,0.189l-0.274,0.191l-0.272,0.192l-0.272,0.194l-0.27,0.195l-0.269,0.197l-0.267,0.198l-0.267,0.2l-0.265,0.202l-0.264,0.203l-0.263,0.205l-0.261,0.206l-0.26,0.208l-0.259,0.209l-0.258,0.211l-0.256,0.212l-0.255,0.214l-0.254,0.215l-0.252,0.217l-0.251,0.218l-0.25,0.22l-0.248,0.221l-0.247,0.222l-0.246,0.224l-0.244,0.226l-0.243,0.227l-0.241,0.228l-0.241,0.23l-0.238,0.231l-0.238,0.233l-0.236,0.234l-0.234,0.235l-0.234,0.237l-0.231,0.238l-0.231,0.24l-0.229,0.241l-0.227,0.242l-0.226,0.244l-0.225,0.245l-0.223,0.246l-0.221,0.248l-0.221,0.248l-0.218,0.251l-0.217,0.251l-0.216,0.253l-0.214,0.254l-0.213,0.256l-0.211,0.257l-0.21,0.258l-0.208,0.259l-0.207,0.26l-0.205,0.262l-0.203,0.263l-0.202,0.264l-0.201,0.266l-0.198,0.267l-0.198,0.268l-0.195,0.269l-0.194,0.27l-0.193,0.272l-0.191,0.272l-0.189,0.274l-0.188,0.275l-0.186,0.277l-0.184,0.277l-0.183,0.279l-0.181,0.279l-0.179,0.281l-0.178,0.282l-0.176,0.283l-0.175,0.285l-0.173,0.285l-0.171,0.286l-0.169,0.288l-0.168,0.289l-0.166,0.289l-0.164,0.291l-0.163,0.292l-0.161,0.293l-0.159,0.294l-0.157,0.295l-0.156,0.296l-0.154,0.297l-0.152,0.298l-0.15,0.299l-0.149,0.3l-0.147,0.302l-0.145,0.302l-0.143,0.303l-0.142,0.304l-0.139,0.305l-0.138,0.306l-0.136,0.307l-0.135,0.308l-0.132,0.309l-0.131,0.31l-0.128,0.311l-0.127,0.312l-0.125,0.313l-0.123,0.313l-0.122,0.315l-0.119,0.315l-0.118,0.317l-0.115,0.317l-0.114,0.318l-0.112,0.319l-0.11,0.32l-0.108,0.321l-0.106,0.321l-0.104,0.323l-0.103,0.323l-0.1,0.324l-0.098,0.325l-0.097,0.326l-0.094,0.327l-0.093,0.327l-0.09,0.328l-0.089,0.329l-0.086,0.33l-0.085,0.331l-0.083,0.331l-0.08,0.332l-0.079,0.333l-0.076,0.334l-0.075,0.334l-0.072,0.335l-0.071,0.336l-0.068,0.337l-0.067,0.337l-0.064,0.339l-0.062,0.338l-0.06,0.34l-0.058,0.34l-0.056,0.341l-0.054,0.342l-0.052,0.342l-0.05,0.343l-0.048,0.344l-0.045,0.344l-0.043,0.345l-0.042,0.346l-0.039,0.346l-0.037,0.347l-0.034,0.348l-0.033,0.348l-0.031,0.349l-0.028,0.349l-0.026,0.35l-0.024,0.351l-0.022,0.351l-0.019,0.352l-0.018,0.352l-0.014,0.335l-0.001,0.019l-0.02,0.353l-0.018,0.354l-0.015,0.355l-0.013,0.355l-0.011,0.356l-0.009,0.356l-0.007,0.363l-1.199,84.623l-0.108,32.909l-0.001,0.369l0.003,0.365l0.004,0.364l0.007,0.364l0.009,0.364l0.012,0.362l0.013,0.363l0.016,0.361l0.018,0.361l0.021,0.361l0.023,0.359l0.025,0.36l0.027,0.358l0.029,0.358l0.032,0.357l0.034,0.357l0.036,0.356l0.038,0.355l0.041,0.355l0.043,0.354l0.045,0.354l0.047,0.352l0.049,0.352l0.051,0.352l0.054,0.35l0.055,0.35l0.058,0.349l0.06,0.349l0.062,0.348l0.065,0.347l0.066,0.346l0.068,0.346l0.071,0.345l0.072,0.344l0.075,0.343l0.077,0.342l0.079,0.342l0.081,0.341l0.083,0.34l0.085,0.34l0.087,0.338l0.089,0.338l0.091,0.337l0.093,0.336l0.096,0.335l0.097,0.335l0.099,0.334l0.101,0.332l0.103,0.332l0.106,0.331l0.107,0.33l0.109,0.33l0.111,0.328l0.113,0.328l0.115,0.326l0.117,0.326l0.119,0.325l0.121,0.324l0.123,0.323l0.124,0.322l0.127,0.321l0.128,0.32l0.131,0.319l0.132,0.318l0.134,0.318l0.136,0.316l0.138,0.315l0.14,0.314l0.142,0.314l0.143,0.312l0.145,0.311l0.147,0.311l0.149,0.309l0.151,0.308l0.153,0.307l0.154,0.306l0.156,0.306l0.158,0.304l0.16,0.303l0.162,0.301l0.163,0.301l0.165,0.3l0.167,0.299l0.169,0.297l0.17,0.297l0.172,0.295l0.174,0.294l0.176,0.293l0.177,0.292l0.179,0.291l0.181,0.29l0.182,0.288l0.184,0.287l0.186,0.286l0.188,0.285l0.189,0.284l0.19,0.283l0.193,0.281l0.194,0.28l0.196,0.279l0.197,0.278l0.199,0.276l0.201,0.276l0.202,0.274l0.204,0.272l0.205,0.272l0.207,0.27l0.209,0.269l0.21,0.268l0.212,0.266l0.214,0.265l0.214,0.264l0.217,0.263l0.218,0.261l0.22,0.26l0.221,0.258l0.222,0.257l0.224,0.256l0.226,0.255l0.227,0.253l0.229,0.252l0.23,0.25l0.232,0.249l0.233,0.248l0.234,0.246l0.236,0.245l0.238,0.243l0.239,0.242l0.24,0.241l0.242,0.239l0.243,0.238l0.245,0.236l0.246,0.235l0.248,0.233l0.205,0.192l0.044,0.04l0.249,0.231l0.251,0.23l0.253,0.228l0.254,0.227l0.255,0.225l0.257,0.224l0.257,0.222l0.26,0.22l0.26,0.22l0.262,0.217l0.264,0.216l0.264,0.215l0.266,0.213l0.268,0.211l0.268,0.21l0.27,0.208l0.271,0.207l0.273,0.205l0.274,0.203l0.275,0.202l0.276,0.2l0.277,0.199l0.279,0.197l0.28,0.196l0.281,0.193l0.283,0.192l0.284,0.191l0.284,0.189l0.287,0.187l0.287,0.185l0.288,0.184l0.29,0.182l0.291,0.181l0.292,0.178l0.293,0.177l0.295,0.176l0.295,0.173l0.297,0.172l0.298,0.17l0.298,0.168l0.3,0.167l0.302,0.165l0.302,0.163l0.303,0.161l0.305,0.16l0.305,0.157l0.307,0.156l0.308,0.154l0.309,0.153l0.309,0.15l0.311,0.149l0.312,0.147l0.313,0.145l0.314,0.143l0.315,0.141l0.316,0.14l0.318,0.137l0.318,0.136l0.319,0.134l0.32,0.132l0.321,0.13l0.322,0.128l0.323,0.126l0.324,0.125l0.325,0.122l0.326,0.121l0.327,0.118l0.328,0.117l0.328,0.114l0.33,0.113l0.331,0.111l0.331,0.109l0.332,0.106l0.334,0.105l0.334,0.103l0.335,0.101l0.336,0.099l0.337,0.096l0.338,0.095l0.338,0.093l0.34,0.091l0.34,0.088l0.341,0.087l0.342,0.085l0.343,0.082l0.343,0.08l0.345,0.079l0.345,0.076l0.346,0.074l0.347,0.072l0.347,0.07l0.349,0.068l0.349,0.066l0.35,0.063l0.35,0.062l0.352,0.059l0.352,0.057l0.353,0.055l0.353,0.053l0.355,0.051l0.355,0.048l0.356,0.046l0.356,0.045l0.357,0.041l0.358,0.04l0.359,0.038l0.359,0.035l0.36,0.033l0.361,0.031l0.361,0.028l0.362,0.026l0.362,0.024l0.364,0.022l0.364,0.02l0.364,0.017l0.365,0.015l0.366,0.012l0.366,0.011l0.367,0.008l0.368,0.005l0.371,0.004l3.021,0.014l0.3,0.027l0.29,0.077l0.273,0.123l0.249,0.166l0.218,0.204l0.181,0.237l0.14,0.263l0.094,0.282l7.001,28.003l0.111,-0.028l8.59,33.634l26.248,-19.461l58.92,-43.009l0.22,-0.132l0.238,-0.096l0.249,-0.057l0.255,-0.017l27.495,0.12l52.71,-0.635l93.706,-0.368l84.572,-0.362l0.366,-0.003l0.361,-0.005l0.361,-0.007l0.36,-0.01l0.359,-0.012l0.359,-0.014l0.358,-0.017l0.357,-0.018l0.357,-0.021l0.356,-0.023l0.356,-0.025l0.355,-0.028l0.354,-0.03l0.354,-0.032l0.353,-0.034l0.352,-0.036l0.352,-0.039l0.351,-0.04l0.35,-0.043l0.35,-0.045l0.349,-0.047l0.348,-0.049l0.347,-0.052l0.347,-0.053l0.092,-0.015l0.254,-0.041l0.345,-0.057l0.345,-0.06l0.344,-0.061l0.343,-0.064l0.342,-0.066l0.342,-0.068l0.341,-0.07l0.34,-0.072l0.339,-0.074l0.339,-0.076l0.337,-0.078l0.337,-0.08l0.337,-0.082l0.335,-0.085l0.334,-0.086l0.334,-0.088l0.333,-0.09l0.332,-0.093l0.331,-0.094l0.33,-0.096l0.33,-0.098l0.329,-0.101l0.327,-0.102l0.327,-0.104l0.326,-0.106l0.325,-0.108l0.325,-0.11l0.323,-0.112l0.322,-0.114l0.322,-0.115l0.32,-0.118l0.32,-0.119l0.319,-0.122l0.317,-0.123l0.317,-0.125l0.316,-0.127l0.315,-0.129l0.314,-0.131l0.313,-0.133l0.312,-0.134l0.311,-0.136l0.31,-0.139l0.309,-0.14l0.308,-0.141l0.307,-0.144l0.306,-0.145l0.305,-0.147l0.304,-0.149l0.303,-0.151l0.302,-0.153l0.301,-0.154l0.299,-0.156l0.299,-0.158l0.297,-0.16l0.297,-0.161l0.295,-0.163l0.295,-0.165l0.293,-0.166l0.292,-0.168l0.291,-0.17l0.29,-0.172l0.289,-0.173l0.287,-0.175l0.287,-0.177l0.285,-0.178l0.284,-0.18l0.283,-0.182l0.282,-0.183l0.281,-0.185l0.279,-0.187l0.278,-0.188l0.277,-0.19l0.276,-0.192l0.275,-0.193l0.273,-0.194l0.273,-0.197l0.271,-0.198l0.269,-0.199l0.269,-0.201l0.267,-0.203l0.266,-0.204l0.265,-0.206l0.263,-0.207l0.263,-0.209l0.26,-0.21l0.26,-0.212l0.258,-0.213l0.257,-0.215l0.256,-0.217l0.254,-0.218l0.253,-0.219l0.252,-0.221l0.25,-0.222l0.249,-0.224l0.248,-0.225l0.246,-0.227l0.245,-0.228l0.244,-0.23l0.242,-0.231l0.24,-0.233l0.24,-0.234l0.238,-0.235l0.236,-0.237l0.235,-0.238l0.234,-0.239l0.232,-0.241l0.231,-0.243l0.229,-0.243l0.228,-0.245l0.227,-0.247l0.225,-0.248l0.223,-0.249l0.222,-0.25l0.221,-0.252l0.219,-0.253l0.217,-0.254l0.216,-0.256l0.215,-0.257l0.213,-0.258l0.211,-0.26l0.21,-0.261l0.209,-0.262l0.207,-0.263l0.205,-0.265l0.204,-0.266l0.202,-0.267l0.2,-0.268l0.199,-0.27l0.198,-0.271l0.195,-0.272l0.195,-0.273l0.192,-0.275l0.191,-0.275l0.19,-0.277l0.187,-0.278l0.186,-0.279l0.185,-0.281l0.182,-0.281l0.182,-0.283l0.179,-0.284l0.178,-0.285l0.176,-0.286l0.174,-0.287l0.173,-0.288l0.171,-0.29l0.169,-0.29l0.168,-0.292l0.166,-0.293l0.164,-0.293l0.162,-0.295l0.161,-0.296l0.159,-0.297l0.157,-0.298l0.156,-0.299l0.153,-0.301l0.152,-0.301l0.15,-0.302l0.149,-0.303l0.146,-0.304l0.145,-0.306l0.143,-0.306l0.141,-0.307l0.139,-0.308l0.138,-0.31l0.135,-0.31l0.134,-0.311l0.132,-0.312l0.13,-0.313l0.128,-0.314l0.127,-0.315l0.124,-0.316l0.123,-0.317l0.121,-0.317l0.119,-0.319l0.117,-0.319l0.115,-0.321l0.113,-0.321l0.111,-0.322l0.109,-0.323l0.107,-0.324l0.106,-0.325l0.103,-0.326l0.102,-0.326l0.099,-0.327l0.098,-0.329l0.096,-0.329l0.093,-0.329l0.092,-0.331l0.09,-0.332l0.087,-0.332l0.086,-0.333l0.083,-0.334l0.082,-0.334l0.08,-0.336l0.077,-0.336l0.076,-0.337l0.073,-0.338l0.072,-0.338l0.069,-0.339l0.067,-0.34l0.066,-0.341l0.063,-0.341l0.061,-0.342l0.059,-0.343l0.057,-0.344l0.054,-0.344l0.053,-0.345l0.051,-0.346l0.048,-0.346l0.046,-0.347l0.044,-0.347l0.042,-0.349l0.04,-0.349l0.038,-0.349l0.035,-0.351l0.034,-0.351l0.031,-0.351l0.029,-0.352l0.027,-0.353l0.024,-0.353l0.023,-0.354l0.02,-0.355l0.018,-0.355l0.015,-0.356l0.014,-0.356l0.011,-0.357l0.003,-0.122l0.006,-0.236l0.007,-0.358l0.005,-0.359l0.002,-0.359l0,-0.365l-0.329,-117.53l-0.001,-0.363l-0.002,-0.357Z"/><g><path d="M71.393,79.503c0,1.37 0,29.16 0,83.37c-3.995,1.769 -6.819,2.654 -8.474,2.654c-1.37,0 -2.197,-0.885 -2.482,-2.654c-0.229,-1.027 -0.343,-4.707 -0.343,-11.041c0,-1.941 -0.042,-4.936 -0.128,-8.988c-0.086,-4.051 -0.128,-13.182 -0.128,-27.39c0,-5.079 0,-12.726 0,-22.94c0.285,-2.91 0.77,-7.247 1.455,-13.011c0.799,-3.195 2.568,-4.793 5.307,-4.793c3.195,0 4.793,1.598 4.793,4.793Zm0.171,103.742c-0.114,1.655 -0.856,3.31 -2.225,4.965c-1.37,1.654 -2.882,2.482 -4.537,2.482c-1.541,0 -3.024,-0.885 -4.451,-2.654c-1.426,-1.769 -2.14,-3.423 -2.14,-4.964c0,-1.655 0.927,-3.438 2.782,-5.35c1.855,-1.911 3.552,-2.867 5.093,-2.867c1.37,0 2.625,0.998 3.766,2.996c1.141,1.997 1.712,3.794 1.712,5.392Z" style="fill-rule:nonzero;"/><path d="M138.157,98.677c0,6.79 -2.311,12.397 -6.933,16.819c-4.622,4.423 -10.357,6.634 -17.205,6.634c-6.619,0 -12.354,-2.012 -17.204,-6.034c-4.851,-4.023 -7.276,-9.316 -7.276,-15.878c0,-6.677 2.34,-12.597 7.019,-17.761c4.679,-5.165 10.328,-7.747 16.948,-7.747c6.962,0 12.811,2.24 17.547,6.719c4.736,4.48 7.104,10.229 7.104,17.248Zm22.683,12.24c0,1.084 -0.471,2.14 -1.412,3.167c-0.942,1.027 -3.895,3.481 -8.859,7.361c-5.364,4.166 -12.326,10.186 -20.886,18.061c-9.929,9.187 -16.748,15.321 -20.457,18.403c-4.85,-0.97 -7.276,-2.454 -7.276,-4.451c0,-1.598 8.375,-9.986 25.123,-25.165c16.748,-15.179 26.235,-22.769 28.46,-22.769c1.37,0 2.597,0.557 3.681,1.67c1.084,1.112 1.626,2.353 1.626,3.723Zm11.384,57.007c0,6.79 -2.482,12.425 -7.447,16.905c-4.964,4.479 -10.927,6.719 -17.889,6.719c-7.076,0 -12.739,-2.04 -16.991,-6.12c-4.251,-4.08 -6.376,-9.63 -6.376,-16.649c0,-7.018 2.225,-13.067 6.676,-18.146c4.451,-5.078 10.186,-7.618 17.205,-7.618c6.79,0 12.625,2.44 17.504,7.319c4.879,4.879 7.318,10.742 7.318,17.59Zm-45.194,-68.99c0,-3.824 -1.527,-7.091 -4.579,-9.801c-3.053,-2.711 -6.52,-4.066 -10.4,-4.066c-2.968,0 -5.692,1.698 -8.175,5.093c-2.482,3.395 -3.723,6.605 -3.723,9.63c0,7.703 4.793,11.555 14.38,11.555c3.595,0 6.577,-1.17 8.945,-3.509c2.368,-2.34 3.552,-5.307 3.552,-8.902Zm34.238,68.99c0,-4.337 -1.369,-7.861 -4.108,-10.571c-2.74,-2.711 -6.249,-4.066 -10.529,-4.066c-3.709,0 -6.776,1.598 -9.201,4.793c-2.425,3.196 -3.638,6.705 -3.638,10.528c0,8.16 4.479,12.24 13.438,12.24c3.995,0 7.333,-1.184 10.015,-3.552c2.682,-2.368 4.023,-5.492 4.023,-9.372Z" style="fill-rule:nonzero;"/><path d="M280.845,123.756c0,8.845 -1.741,17.091 -5.221,24.737c-4.508,9.53 -10.671,14.295 -18.489,14.295c-7.59,0 -12.839,-3.224 -15.75,-9.672c-3.88,2.624 -8.16,3.937 -12.839,3.937c-5.25,0 -9.601,-1.512 -13.053,-4.537c-3.453,-3.024 -5.179,-7.161 -5.179,-12.411c0,-7.019 2.996,-13.267 8.988,-18.745c5.991,-5.478 12.525,-8.218 19.601,-8.218c2.226,0 4.337,0.229 6.334,0.685c0.628,1.826 0.942,3.624 0.942,5.393c0,2.339 -0.828,3.509 -2.483,3.509c-0.456,0 -1.127,-0.1 -2.011,-0.299c-0.885,-0.2 -1.555,-0.3 -2.012,-0.3c-4.508,0 -8.83,1.883 -12.967,5.649c-4.137,3.766 -6.206,7.875 -6.206,12.326c0,4.223 2.825,6.334 8.474,6.334c4.28,0 8.046,-2.596 11.299,-7.789c1.255,-7.761 3.053,-13.21 5.392,-16.349c1.256,-1.655 2.654,-2.482 4.194,-2.482c3.824,0 5.735,1.74 5.735,5.221c0,4.223 -0.941,8.474 -2.824,12.754c-1.256,2.91 -1.884,5.107 -1.884,6.591c0,4.736 2.083,7.104 6.249,7.104c4.223,0 7.504,-3.88 9.843,-11.641c1.769,-5.877 2.654,-11.584 2.654,-17.119c0,-7.418 -2.611,-13.952 -7.832,-19.601c-5.221,-5.649 -11.484,-8.474 -18.788,-8.474c-12.84,0 -23.311,5.364 -31.414,16.092c-6.905,9.187 -10.357,18.774 -10.357,28.76c0,7.646 2.425,14.294 7.276,19.944c4.85,5.649 11.042,8.987 18.574,10.014c2.054,0.286 4.28,0.428 6.676,0.428c1.998,0 4.965,-0.242 8.902,-0.727c3.938,-0.485 6.876,-0.728 8.817,-0.728c3.138,0 4.707,1.912 4.707,5.735c0,2.225 -1.341,3.937 -4.023,5.136c-3.195,1.369 -9.13,2.054 -17.803,2.054c-12.155,0 -21.998,-3.167 -29.531,-9.501c-10.1,-8.617 -15.15,-19.744 -15.15,-33.382c0,-5.535 0.913,-10.728 2.739,-15.579c4.394,-11.584 10.728,-20.885 19.002,-27.904c9.073,-7.703 19.459,-11.555 31.157,-11.555c11.013,0 20.2,3.994 27.561,11.983c7.133,7.818 10.7,17.262 10.7,28.332Z" style="fill-rule:nonzero;"/><path d="M359.25,159.878c0,7.304 -1.997,13.524 -5.991,18.659c-4.28,5.65 -9.958,8.474 -17.034,8.474c-1.027,0 -2.254,-0.142 -3.68,-0.428l0,2.311c-2.625,1.769 -4.879,2.654 -6.763,2.654c-1.654,0 -2.482,-1.398 -2.482,-4.194c0,-0.799 0.057,-1.798 0.171,-2.996c-4.679,-1.826 -9.301,-4.594 -13.866,-8.303c-4.965,-3.994 -8.474,-8.046 -10.528,-12.154c-0.571,-1.142 -0.856,-2.055 -0.856,-2.74c0,-1.369 0.556,-2.567 1.669,-3.595c1.113,-1.027 2.411,-1.54 3.894,-1.54c1.427,0 2.939,0.827 4.537,2.482c3.766,4.223 6.134,6.762 7.104,7.618c2.739,2.625 5.507,4.708 8.303,6.248l0,-38.261c-14.893,-7.874 -22.34,-16.776 -22.34,-26.705c0,-5.65 2.396,-10.557 7.19,-14.723c4.108,-3.709 9.158,-6.248 15.15,-7.618c-0.171,-4.793 -0.257,-6.733 -0.257,-5.82c0,-3.025 1.513,-4.537 4.537,-4.537c3.31,0 4.964,3.11 4.964,9.33c5.536,0.171 10.129,1.869 13.781,5.093c3.652,3.224 5.478,7.604 5.478,13.139c-2.225,2.054 -4.308,3.081 -6.248,3.081c-0.97,0 -1.798,-0.884 -2.482,-2.653c-0.97,-2.511 -1.912,-4.194 -2.825,-5.05c-1.712,-1.883 -4.28,-2.911 -7.704,-3.082c0,-0.228 0,10.443 0,32.013c17.519,8.731 26.278,19.83 26.278,33.297Zm-35.351,-38.262l0,-14.208c0,-1.484 0,-3.396 0,-5.735c-0.114,-3.025 -0.171,-4.965 -0.171,-5.821c-7.646,1.94 -11.47,5.878 -11.47,11.812c0,4.508 3.881,9.159 11.641,13.952Zm24.138,37.919c0,-8.274 -5.021,-15.122 -15.065,-20.543l0,36.806c0.4,0.057 1.37,0.086 2.911,0.086c3.994,0 7.104,-1.798 9.33,-5.393c1.883,-3.081 2.824,-6.733 2.824,-10.956Z" style="fill-rule:nonzero;"/><path d="M456.401,96.195c0,2.91 -1.655,4.565 -4.964,4.964c-4.623,0.171 -11.556,0.542 -20.8,1.113c-0.4,5.079 -0.913,9.758 -1.541,14.038c10.614,-0.799 15.407,-1.199 14.38,-1.199c3.025,0 4.537,1.769 4.537,5.307c0,2.34 -1.142,3.852 -3.424,4.537c-2.283,0.684 -8.046,1.369 -17.29,2.054c-0.4,2.796 -1.227,6.962 -2.483,12.497c-0.856,2.568 -2.568,3.852 -5.135,3.852c-3.367,0 -5.05,-1.855 -5.05,-5.564c0,-1.37 0.427,-4.793 1.283,-10.271c-2.739,0.114 -6.819,0.171 -12.24,0.171c-0.228,3.252 -0.77,7.874 -1.626,13.866c-0.685,3.424 -2.397,5.136 -5.136,5.136c-3.424,0 -5.135,-1.712 -5.135,-5.136c0,-1.655 0.399,-6.134 1.198,-13.438l-16.092,0c-1.655,-2.511 -2.482,-4.68 -2.482,-6.506c0,-1.369 0.827,-2.225 2.482,-2.567c2.225,-0.457 5.107,-0.685 8.645,-0.685c5.421,0 8.303,0 8.645,0c0.286,-2.853 0.799,-7.133 1.541,-12.84c-6.106,0 -11.413,-0.342 -15.921,-1.027c-0.742,-1.883 -1.113,-3.794 -1.113,-5.735c0,-1.426 0.428,-2.339 1.284,-2.739c0.286,-0.114 1.37,-0.171 3.253,-0.171c3.196,0 7.903,-0.2 14.123,-0.599c0.571,-3.88 1.512,-9.758 2.825,-17.633c2.111,-0.913 4.137,-1.369 6.077,-1.369c1.883,0 2.825,0.884 2.825,2.653c0,0.229 -0.542,5.393 -1.627,15.493c1.827,-0.171 6.22,-0.713 13.182,-1.626c0.343,-5.25 0.514,-10.357 0.514,-15.322c2.568,-1.826 4.822,-2.739 6.762,-2.739c2.339,0 3.509,2.425 3.509,7.276c0,1.655 -0.057,4.879 -0.171,9.672c4.679,-0.514 10.271,-0.77 16.777,-0.77c5.592,0 8.388,1.769 8.388,5.307Zm-36.977,7.275c-2.91,0.4 -7.304,0.885 -13.182,1.455l-1.455,13.011c2.853,-0.228 7.133,-0.514 12.839,-0.856c0.4,-2.34 0.999,-6.876 1.798,-13.61Z" style="fill-rule:nonzero;"/></g></g></svg>