<?xml version="1.0" encoding="UTF-8" standalone="no"?><!DOCTYPE svg PUBLIC "-//W3C//DTD SVG 1.1//EN" "http://www.w3.org/Graphics/SVG/1.1/DTD/svg11.dtd"><svg width="100%" height="100%" viewBox="0 0 311 336" version="1.1" xmlns="http://www.w3.org/2000/svg" xmlns:xlink="http://www.w3.org/1999/xlink" xml:space="preserve" xmlns:serif="http://www.serif.com/" style="fill-rule:evenodd;clip-rule:evenodd;stroke-linecap:round;stroke-linejoin:round;stroke-miterlimit:1.5;"><g id="NE"><path d="M240.781,301.942c2.401,5.93 4.134,10.468 4.134,10.468c-3.997,0.558 -123.849,20.803 -229.918,-3.025c0,0 18.782,-73.27 19.542,-80.91c5.029,-50.501 -21.427,-62.27 2.416,-132.213c35.425,-103.923 146.48,-94.793 200.728,-43.506c5.23,-7.844 8.989,-11.068 8.989,-11.068c3.6,5.059 6.934,10.025 10.021,14.886c7.792,8.828 33.122,40.895 37.838,89.398c0,0 -0.455,-0.051 -1.3,-0.061c2.394,14.102 1.879,22.147 1.879,22.147c-4.279,0.148 -8.298,0.697 -12.073,1.594c14.176,62.491 7.208,112.346 -42.256,132.29Z" style="fill:none;"/><path d="M126.717,208.364c-6.95,32.612 -17.224,110.235 75.213,102.197c92.437,-8.038 100.475,-76.361 75.213,-163.63c-25.263,-87.27 -135.498,-8.613 -150.426,61.433Z" style="fill:#fff;stroke:#000;stroke-width:6px;"/><path d="M244.915,312.41c-3.997,0.558 -123.849,20.803 -229.918,-3.025c0,0 18.782,-73.27 19.542,-80.91c5.029,-50.501 -21.427,-62.27 2.416,-132.213c46.951,-137.736 226.757,-76.884 231.075,17.504c1.08,23.606 -17.033,41.396 -29.899,71.593c-5.851,13.733 16.873,21.536 14.651,64.32c-1.096,21.099 -17.451,39.247 -15.684,43.388c4.095,9.594 7.817,19.343 7.817,19.343Z" style="fill:#fff;stroke:#000;stroke-width:6px;"/><path d="M246.672,41.688c0,0 -51.804,44.426 -38.367,204.723c0.098,1.16 17.035,15.491 17.035,15.491c0,0 5.911,-91.639 69.77,-93.844c0,0 3.427,-53.489 -48.438,-126.37Z" style="fill:#fff;stroke:#000;stroke-width:4.68px;"/><path d="M216.857,246.981c0,0 -18.108,-113.999 37.554,-192.878c0,0 34.532,34.397 40.12,91.869c0,0 -54.09,-6.082 -77.674,101.009l0,0Z" style="fill:#fff;stroke:#000;stroke-width:4.68px;"/><path d="M252.491,98.097c1.679,8.276 6.31,18.759 10.521,25.923c4.212,7.164 17.874,8.375 14.671,-3.196c-3.203,-11.57 -7.656,-21.299 -10.381,-27.891c-2.724,-6.592 -17.498,-8.081 -14.811,5.164Z" style="fill-opacity:0.301961;stroke:#000;stroke-width:6px;"/><path d="M232.345,131.047c0.761,6.23 3.857,14.342 6.863,19.977c3.007,5.636 14.539,7.727 12.746,-1.059c-1.792,-8.785 -4.797,-16.327 -6.585,-21.412c-1.787,-5.084 -14.242,-7.477 -13.024,2.494Z" style="fill-opacity:0.301961;stroke:#000;stroke-width:6px;"/><path d="M200.194,235.059c13.557,-37.631 56.035,-27.4 41.576,24.281c-14.222,50.832 -55.2,13.538 -41.576,-24.281Z" style="fill:#fff;stroke:#000;stroke-width:5.55px;"/><path d="M209,240.624c7.808,-21.675 32.276,-15.782 23.947,13.986c-8.192,29.279 -31.795,7.798 -23.947,-13.986Z" style="fill:#fff;stroke:#000;stroke-width:5.55px;"/></g></svg>