<?xml version="1.0" encoding="UTF-8" standalone="no"?><!DOCTYPE svg PUBLIC "-//W3C//DTD SVG 1.1//EN" "http://www.w3.org/Graphics/SVG/1.1/DTD/svg11.dtd"><svg width="100%" height="100%" viewBox="0 0 311 336" version="1.1" xmlns="http://www.w3.org/2000/svg" xmlns:xlink="http://www.w3.org/1999/xlink" xml:space="preserve" xmlns:serif="http://www.serif.com/" style="fill-rule:evenodd;clip-rule:evenodd;stroke-linecap:round;stroke-linejoin:round;stroke-miterlimit:1.5;"><g id="NE_border"><path d="M241.351,301.942c2.401,5.93 4.134,10.468 4.134,10.468c-3.997,0.558 -123.85,20.803 -229.918,-3.025c0,0 18.781,-73.27 19.542,-80.91c5.028,-50.501 -21.427,-62.27 2.415,-132.213c35.425,-103.923 146.481,-94.793 200.728,-43.506c5.231,-7.844 8.99,-11.068 8.99,-11.068c3.6,5.059 6.934,10.025 10.021,14.886c7.791,8.828 33.122,40.895 37.837,89.398c0,0 -0.455,-0.051 -1.3,-0.061c2.395,14.102 1.879,22.147 1.879,22.147c-4.279,0.148 -8.298,0.697 -12.072,1.594c14.175,62.491 7.207,112.346 -42.256,132.29Z" style="fill:#fff;stroke:#fff;stroke-width:30px;"/></g></svg>