<?xml version="1.0" encoding="UTF-8" standalone="no"?><!DOCTYPE svg PUBLIC "-//W3C//DTD SVG 1.1//EN" "http://www.w3.org/Graphics/SVG/1.1/DTD/svg11.dtd"><svg width="100%" height="100%" viewBox="0 0 311 336" version="1.1" xmlns="http://www.w3.org/2000/svg" xmlns:xlink="http://www.w3.org/1999/xlink" xml:space="preserve" xmlns:serif="http://www.serif.com/" style="fill-rule:evenodd;clip-rule:evenodd;stroke-linecap:round;stroke-linejoin:round;stroke-miterlimit:1.5;"><g id="NW"><path d="M69.48,301.942c-2.402,5.93 -4.134,10.468 -4.134,10.468c3.996,0.558 123.849,20.803 229.917,-3.025c0,0 -18.781,-73.27 -19.542,-80.91c-5.028,-50.501 21.427,-62.27 -2.415,-132.213c-35.425,-103.923 -146.481,-94.793 -200.728,-43.506c-5.23,-7.844 -8.989,-11.068 -8.989,-11.068c-3.601,5.059 -6.934,10.025 -10.021,14.886c-7.792,8.828 -33.122,40.895 -37.838,89.398c0,0 0.455,-0.051 1.3,-0.061c-2.394,14.102 -1.879,22.147 -1.879,22.147c4.279,0.148 8.298,0.697 12.072,1.594c-14.175,62.491 -7.207,112.346 42.257,132.29Z" style="fill:none;"/><path d="M183.543,208.364c6.95,32.612 17.225,110.235 -75.212,102.197c-92.437,-8.038 -100.475,-76.361 -75.213,-163.63c25.262,-87.27 135.498,-8.613 150.425,61.433Z" style="fill:#fff;stroke:#000;stroke-width:6px;"/><path d="M65.346,312.41c3.996,0.558 123.849,20.803 229.917,-3.025c0,0 -18.781,-73.27 -19.542,-80.91c-5.028,-50.501 21.427,-62.27 -2.415,-132.213c-46.951,-137.736 -226.757,-76.884 -231.076,17.504c-1.079,23.606 17.033,41.396 29.9,71.593c5.851,13.733 -16.874,21.536 -14.651,64.32c1.096,21.099 17.451,39.247 15.684,43.388c-4.095,9.594 -7.817,19.343 -7.817,19.343Z" style="fill:#fff;stroke:#000;stroke-width:6px;"/><path d="M63.589,41.688c0,0 51.804,44.426 38.366,204.723c-0.097,1.16 -17.034,15.491 -17.034,15.491c0,0 -5.912,-91.639 -69.77,-93.844c0,0 -3.427,-53.489 48.438,-126.37Z" style="fill:#fff;stroke:#000;stroke-width:4.68px;"/><path d="M93.404,246.981c0,0 18.108,-113.999 -37.554,-192.878c0,0 -34.532,34.397 -40.12,91.869c0,0 54.09,-6.082 77.674,101.009l0,0Z" style="fill:#fff;stroke:#000;stroke-width:4.68px;"/><path d="M57.77,98.097c-1.679,8.276 -6.31,18.759 -10.522,25.923c-4.211,7.164 -17.873,8.375 -14.67,-3.196c3.203,-11.57 7.655,-21.299 10.38,-27.891c2.725,-6.592 17.499,-8.081 14.812,5.164Z" style="fill-opacity:0.301961;stroke:#000;stroke-width:6px;"/><path d="M77.916,131.047c-0.761,6.23 -3.857,14.342 -6.864,19.977c-3.006,5.636 -14.538,7.727 -12.745,-1.059c1.792,-8.785 4.797,-16.327 6.584,-21.412c1.788,-5.084 14.243,-7.477 13.025,2.494Z" style="fill-opacity:0.301961;stroke:#000;stroke-width:6px;"/><path d="M110.067,235.059c-13.557,-37.631 -56.036,-27.4 -41.576,24.281c14.222,50.832 55.2,13.538 41.576,-24.281Z" style="fill:#fff;stroke:#000;stroke-width:5.55px;"/><path d="M101.261,240.624c-7.809,-21.675 -32.276,-15.782 -23.948,13.986c8.192,29.279 31.796,7.798 23.948,-13.986Z" style="fill:#fff;stroke:#000;stroke-width:5.55px;"/></g></svg>