<?xml version="1.0" encoding="UTF-8" standalone="no"?><!DOCTYPE svg PUBLIC "-//W3C//DTD SVG 1.1//EN" "http://www.w3.org/Graphics/SVG/1.1/DTD/svg11.dtd"><svg width="100%" height="100%" viewBox="0 0 265 306" version="1.1" xmlns="http://www.w3.org/2000/svg" xmlns:xlink="http://www.w3.org/1999/xlink" xml:space="preserve" xmlns:serif="http://www.serif.com/" style="fill-rule:evenodd;clip-rule:evenodd;stroke-linecap:round;stroke-linejoin:round;stroke-miterlimit:1.5;"><g id="SE"><path d="M27.272,206.261c-6.346,-15.612 -12.373,-37.515 -12.248,-66.454c0.431,-99.471 94.734,-124.015 119.709,-124.446c13.32,-0.229 20.761,-1.194 31.077,4.685c7.452,-3.326 11.984,-4.685 11.984,-4.685c6.217,5.5 11.893,10.871 17.072,16.106c14.07,9.801 58.836,45.003 54.839,93.699c0,0 -0.957,-0.112 -2.757,-0.237c1.022,14.296 -2.41,22.198 -2.41,22.198c-0.668,-0.032 -1.333,-0.061 -1.997,-0.088c0.119,7.606 -1.169,14.991 -3.21,21.838c4.484,29.511 3.132,55.405 -6.682,75.558l14.472,36.61c-150.282,17.655 -223.915,5.598 -223.915,5.598c0,0 3.564,-7.42 7.554,-16.729l-0.001,0c2.605,-6.078 5.392,-12.96 7.485,-19.109c-4.933,-3.787 -9.193,-9.203 -12.024,-16.265c-4.095,-10.215 -2.997,-20.206 1.052,-28.279Z" style="fill:none;"/><path d="M23.206,286.643c0,0 73.633,12.057 223.915,-5.598l-28.994,-73.346c0,0 49.233,-55.979 7.894,-100.332c-41.338,-44.352 -144.217,86.003 -152.578,114.542c-8.165,27.871 -33.581,24.835 -37.18,34.411c-5.428,14.442 -13.057,30.323 -13.057,30.323Z" style="fill:#b2b2b2;stroke:#000;stroke-width:6px;"/><path d="M78.985,186.509c-6.95,32.613 -17.224,110.235 75.213,102.197c92.436,-8.038 100.474,-76.36 75.212,-163.63c-25.262,-87.269 -135.497,-8.612 -150.425,61.433Z" style="fill:#fff;stroke:#000;stroke-width:6px;"/><path d="M30.759,269.914c5.718,-13.338 12.308,-30.555 10.532,-35.374c-3.014,-8.182 -26.513,-37.881 -26.267,-94.733c0.431,-99.471 94.734,-124.015 119.709,-124.446c24.975,-0.43 29.281,-3.445 70.619,40.908c17.191,18.444 21.201,46.941 20.019,73.94c-92.427,7.154 -151.412,43.87 -141.287,54.701c11.506,12.309 23.011,47.093 2.408,72.244c-15.108,18.444 -42.302,15.593 -55.733,12.76Z" style="fill:#fff;stroke:#000;stroke-width:6px;"/><path d="M177.794,15.361c0,0 -123.446,37.005 -141.239,197.649c-0.129,1.163 31.864,17.655 31.864,17.655c0,0 39.186,-89.997 176.119,-83.538c0,0 22.822,-52.534 -66.744,-131.766Z" style="fill:#fff;stroke:#000;stroke-width:6px;"/><path d="M54.64,214.732c0,0 -5.598,-115.403 136.072,-186.022c0,0 63.729,38.755 58.993,96.456c0,0 -113.68,-13.349 -195.065,89.566l0,0Z" style="fill:#fff;stroke:#000;stroke-width:6px;"/><path d="M120.262,100.34c1.679,8.276 6.31,18.759 10.521,25.923c4.212,7.164 17.874,8.375 14.671,-3.195c-3.203,-11.571 -7.656,-21.3 -10.381,-27.892c-2.724,-6.592 -17.498,-8.081 -14.811,5.164Z" style="fill-opacity:0.301961;stroke:#000;stroke-width:6px;"/><path d="M85.683,132.29c0.762,6.23 3.857,14.342 6.864,19.978c3.007,5.635 14.538,7.726 12.746,-1.059c-1.793,-8.786 -4.798,-16.328 -6.585,-21.413c-1.787,-5.084 -14.243,-7.477 -13.025,2.494Z" style="fill-opacity:0.301961;stroke:#000;stroke-width:6px;"/><path d="M160.601,68.575c1.791,12.122 7.055,27.559 11.906,38.141c4.85,10.583 21.165,12.788 17.637,-4.189c-3.527,-16.976 -8.598,-31.306 -11.685,-41.007c-3.086,-9.701 -20.724,-12.346 -17.858,7.055Z" style="fill-opacity:0.301961;stroke:#000;stroke-width:6px;"/><path d="M26.22,234.54c14.77,36.848 68.48,28.891 53.395,-21.53c-14.837,-49.593 -68.239,-15.503 -53.395,21.53Z" style="fill:#fff;stroke:#000;stroke-width:6px;"/><path d="M37.553,229.573c8.508,21.225 39.445,16.641 30.756,-12.401c-8.546,-28.566 -39.306,-8.93 -30.756,12.401Z" style="fill:#fff;stroke:#000;stroke-width:6px;"/></g></svg>