<?xml version="1.0" encoding="UTF-8" standalone="no"?><!DOCTYPE svg PUBLIC "-//W3C//DTD SVG 1.1//EN" "http://www.w3.org/Graphics/SVG/1.1/DTD/svg11.dtd"><svg width="100%" height="100%" viewBox="0 0 266 407" version="1.1" xmlns="http://www.w3.org/2000/svg" xmlns:xlink="http://www.w3.org/1999/xlink" xml:space="preserve" xmlns:serif="http://www.serif.com/" style="fill-rule:evenodd;clip-rule:evenodd;stroke-linecap:round;stroke-linejoin:round;stroke-miterlimit:1.5;"><g><g><path d="M84.383,333.352l-0.485,-0.456c0,0 1.461,-26.85 26.119,-47.125c24.658,-20.274 44.568,-2.009 44.568,-2.009c0,0 15.123,29.848 20.61,45.905c3.061,-0.187 6.824,0.169 8.431,2.681c2.923,4.566 6.576,9.498 4.567,15.708c-2.009,6.21 -5.845,10.229 -14.612,10.776c-8.768,0.548 -3.288,-13.151 -3.288,-13.151c0,0 8.95,-3.47 9.498,-5.479c0.548,-2.009 -10.777,2.009 -10.777,2.009l0.039,-0.28c-11.41,2.78 -32.784,3.282 -49.422,3.184c0.162,1.26 0.31,2.798 0.343,4.371l11.779,1.492c0,0 -0.731,27.398 -0.548,30.686c0.183,3.288 5.48,2.557 3.47,7.672c-2.009,5.114 -30.137,-1.827 -30.137,-1.827l-0.126,-27.608l-14.121,2.128c-21.541,0.182 -9.695,-28.642 -9.681,-28.677l3.773,0Zm54.311,52.878c0,0 28.128,6.941 30.138,1.827c2.009,-5.114 -3.288,-4.384 -3.471,-7.671c-0.183,-3.288 0.548,-30.686 0.548,-30.686l-27.398,-3.471l0.183,40.001Z" style="fill:#fff;stroke:#fff;stroke-width:30px;"/><path d="M84.383,333.352l-0.485,-0.456c0,0 1.461,-26.85 26.119,-47.125c24.658,-20.274 44.568,-2.009 44.568,-2.009c0,0 15.123,29.848 20.61,45.905c3.061,-0.187 6.824,0.169 8.431,2.681c2.923,4.566 6.576,9.498 4.567,15.708c-2.009,6.21 -5.845,10.229 -14.612,10.776c-8.768,0.548 -3.288,-13.151 -3.288,-13.151c0,0 8.95,-3.47 9.498,-5.479c0.548,-2.009 -10.777,2.009 -10.777,2.009l0.039,-0.28c-11.41,2.78 -32.784,3.282 -49.422,3.184c0.162,1.26 0.31,2.798 0.343,4.371l11.779,1.492c0,0 -0.731,27.398 -0.548,30.686c0.183,3.288 5.48,2.557 3.47,7.672c-2.009,5.114 -30.137,-1.827 -30.137,-1.827l-0.126,-27.608l-14.121,2.128c-21.541,0.182 -9.695,-28.642 -9.681,-28.677l3.773,0Zm54.311,52.878c0,0 28.128,6.941 30.138,1.827c2.009,-5.114 -3.288,-4.384 -3.471,-7.671c-0.183,-3.288 0.548,-30.686 0.548,-30.686l-27.398,-3.471l0.183,40.001Z" style="fill:none;"/><path d="M116.958,358.011c5.114,-1.827 2.192,-15.891 2.192,-15.891l-10.959,-8.768l-27.581,0c0,0 -11.872,28.86 9.681,28.677" style="fill:none;"/><path d="M169.013,338.683c-0.293,-21.187 -19.165,-57.494 -19.165,-57.494" style="fill:none;"/><path d="M120.5,280.043c0,0 -9.644,18.311 -11.398,53.38" style="fill:none;"/><path d="M99.058,352.166c0,0 -0.118,13.409 11.507,11.141c9.261,-1.806 2.353,-15.608 3.836,-16.804" style="fill:none;"/><path d="M85.907,350.887c0,0 -0.365,17.169 16.621,13.151" style="fill:none;"/></g><g id="SE_border"><path d="M27.842,206.815c-6.346,-15.612 -12.374,-37.516 -12.248,-66.455c0.43,-99.47 94.733,-124.015 119.708,-124.445c13.321,-0.23 20.762,-1.194 31.077,4.685c7.452,-3.327 11.984,-4.685 11.984,-4.685c6.217,5.5 11.893,10.871 17.072,16.105c14.071,9.802 58.837,45.004 54.839,93.7c0,0 -0.956,-0.113 -2.756,-0.237c1.022,14.296 -2.411,22.197 -2.411,22.197c-0.668,-0.031 -1.333,-0.06 -1.996,-0.087c0.119,7.606 -1.17,14.991 -3.21,21.838c4.483,29.51 3.131,55.404 -6.683,75.557l14.473,36.611c-150.282,17.655 -223.916,5.598 -223.916,5.598c0,0 3.565,-7.42 7.554,-16.729l0,0c2.605,-6.078 5.391,-12.961 7.485,-19.109c-4.933,-3.787 -9.194,-9.204 -12.025,-16.265c-4.094,-10.216 -2.996,-20.207 1.053,-28.279Z" style="fill:#fff;stroke:#fff;stroke-width:30px;"/></g></g></svg>