<?xml version="1.0" encoding="UTF-8" standalone="no"?><!DOCTYPE svg PUBLIC "-//W3C//DTD SVG 1.1//EN" "http://www.w3.org/Graphics/SVG/1.1/DTD/svg11.dtd"><svg width="100%" height="100%" viewBox="0 0 266 306" version="1.1" xmlns="http://www.w3.org/2000/svg" xmlns:xlink="http://www.w3.org/1999/xlink" xml:space="preserve" xmlns:serif="http://www.serif.com/" style="fill-rule:evenodd;clip-rule:evenodd;stroke-linecap:round;stroke-linejoin:round;stroke-miterlimit:1.5;"><g id="SE_border"><path d="M27.842,206.261c-6.346,-15.612 -12.374,-37.515 -12.248,-66.454c0.43,-99.471 94.733,-124.015 119.708,-124.446c13.321,-0.229 20.762,-1.194 31.077,4.685c7.452,-3.326 11.984,-4.685 11.984,-4.685c6.217,5.5 11.893,10.871 17.072,16.106c14.071,9.801 58.837,45.003 54.839,93.699c0,0 -0.956,-0.112 -2.756,-0.237c1.022,14.296 -2.411,22.198 -2.411,22.198c-0.668,-0.032 -1.333,-0.061 -1.996,-0.088c0.119,7.606 -1.17,14.991 -3.21,21.838c4.483,29.511 3.131,55.405 -6.683,75.558l14.473,36.61c-150.282,17.655 -223.916,5.598 -223.916,5.598c0,0 3.565,-7.42 7.554,-16.729l0,0c2.605,-6.078 5.391,-12.96 7.485,-19.109c-4.933,-3.787 -9.194,-9.203 -12.025,-16.265c-4.094,-10.215 -2.996,-20.206 1.053,-28.279Z" style="fill:#fff;stroke:#fff;stroke-width:30px;"/></g></svg>