<?xml version="1.0" encoding="UTF-8" standalone="no"?><!DOCTYPE svg PUBLIC "-//W3C//DTD SVG 1.1//EN" "http://www.w3.org/Graphics/SVG/1.1/DTD/svg11.dtd"><svg width="100%" height="100%" viewBox="0 0 265 306" version="1.1" xmlns="http://www.w3.org/2000/svg" xmlns:xlink="http://www.w3.org/1999/xlink" xml:space="preserve" xmlns:serif="http://www.serif.com/" style="fill-rule:evenodd;clip-rule:evenodd;stroke-linecap:round;stroke-linejoin:round;stroke-miterlimit:1.5;"><g id="SW"><path d="M99.144,20.046c10.316,-5.879 17.757,-4.914 31.077,-4.685c24.975,0.431 119.278,24.975 119.709,124.446c0.125,28.939 -5.902,50.842 -12.248,66.454c4.049,8.073 5.147,18.064 1.052,28.279c-2.83,7.062 -7.091,12.478 -12.024,16.265c2.093,6.148 4.88,13.031 7.485,19.109l-0.001,0c3.99,9.309 7.554,16.729 7.554,16.729c0,0 -73.633,12.057 -223.915,-5.598l14.472,-36.61c-9.813,-20.153 -11.166,-46.047 -6.682,-75.558c-2.041,-6.847 -3.329,-14.232 -3.21,-21.838c-0.663,0.027 -1.329,0.056 -1.996,0.088c0,0 -3.433,-7.902 -2.411,-22.198c-1.8,0.125 -2.757,0.237 -2.757,0.237c-3.997,-48.695 40.768,-83.897 54.839,-93.699c5.179,-5.234 10.855,-10.606 17.073,-16.106c0,0 4.531,1.359 11.983,4.685Z" style="fill:none;"/><path d="M241.748,286.643c0,0 -73.633,12.057 -223.915,-5.598l28.994,-73.346c0,0 -49.233,-55.979 -7.894,-100.332c41.338,-44.352 144.217,86.003 152.578,114.542c8.165,27.871 33.581,24.835 37.18,34.411c5.428,14.442 13.057,30.323 13.057,30.323Z" style="fill:#b2b2b2;stroke:#000;stroke-width:6px;"/><path d="M185.969,186.509c6.95,32.613 17.224,110.235 -75.212,102.197c-92.437,-8.038 -100.475,-76.36 -75.213,-163.63c25.262,-87.269 135.497,-8.612 150.425,61.433Z" style="fill:#fff;stroke:#000;stroke-width:6px;"/><path d="M234.195,269.914c-5.718,-13.338 -12.307,-30.555 -10.532,-35.374c3.014,-8.182 26.513,-37.881 26.267,-94.733c-0.431,-99.471 -94.734,-124.015 -119.709,-124.446c-24.975,-0.43 -29.281,-3.445 -70.619,40.908c-17.191,18.444 -21.201,46.941 -20.019,73.94c92.428,7.154 151.412,43.87 141.287,54.701c-11.506,12.309 -23.011,47.093 -2.408,72.244c15.108,18.444 42.302,15.593 55.733,12.76Z" style="fill:#fff;stroke:#000;stroke-width:6px;"/><path d="M87.161,15.361c0,0 123.445,37.005 141.239,197.649c0.128,1.163 -31.865,17.655 -31.865,17.655c0,0 -39.185,-89.997 -176.118,-83.538c0,0 -22.823,-52.534 66.744,-131.766Z" style="fill:#fff;stroke:#000;stroke-width:6px;"/><path d="M210.314,214.732c0,0 5.598,-115.403 -136.072,-186.022c0,0 -63.729,38.755 -58.993,96.456c0,0 113.68,-13.349 195.065,89.566l0,0Z" style="fill:#fff;stroke:#000;stroke-width:6px;"/><path d="M144.692,100.34c-1.679,8.276 -6.31,18.759 -10.521,25.923c-4.212,7.164 -17.874,8.375 -14.671,-3.195c3.204,-11.571 7.656,-21.3 10.381,-27.892c2.725,-6.592 17.498,-8.081 14.811,5.164Z" style="fill-opacity:0.301961;stroke:#000;stroke-width:6px;"/><path d="M179.271,132.29c-0.761,6.23 -3.857,14.342 -6.864,19.978c-3.007,5.635 -14.538,7.726 -12.746,-1.059c1.793,-8.786 4.798,-16.328 6.585,-21.413c1.788,-5.084 14.243,-7.477 13.025,2.494Z" style="fill-opacity:0.301961;stroke:#000;stroke-width:6px;"/><path d="M104.353,68.575c-1.791,12.122 -7.055,27.559 -11.906,38.141c-4.85,10.583 -21.165,12.788 -17.637,-4.189c3.527,-16.976 8.598,-31.306 11.685,-41.007c3.086,-9.701 20.724,-12.346 17.858,7.055Z" style="fill-opacity:0.301961;stroke:#000;stroke-width:6px;"/><path d="M238.734,234.54c-14.77,36.848 -68.48,28.891 -53.395,-21.53c14.837,-49.593 68.239,-15.503 53.395,21.53Z" style="fill:#fff;stroke:#000;stroke-width:6px;"/><path d="M227.401,229.573c-8.508,21.225 -39.445,16.641 -30.756,-12.401c8.546,-28.566 39.306,-8.93 30.756,12.401Z" style="fill:#fff;stroke:#000;stroke-width:6px;"/></g></svg>