<?xml version="1.0" encoding="UTF-8" standalone="no"?><!DOCTYPE svg PUBLIC "-//W3C//DTD SVG 1.1//EN" "http://www.w3.org/Graphics/SVG/1.1/DTD/svg11.dtd"><svg width="100%" height="100%" viewBox="0 0 266 306" version="1.1" xmlns="http://www.w3.org/2000/svg" xmlns:xlink="http://www.w3.org/1999/xlink" xml:space="preserve" xmlns:serif="http://www.serif.com/" style="fill-rule:evenodd;clip-rule:evenodd;stroke-linecap:round;stroke-linejoin:round;stroke-miterlimit:1.5;"><g id="SW_border"><path d="M99.714,20.046c10.315,-5.879 17.756,-4.914 31.077,-4.685c24.975,0.431 119.278,24.975 119.708,124.446c0.126,28.939 -5.902,50.842 -12.248,66.454c4.049,8.073 5.147,18.064 1.053,28.279c-2.831,7.062 -7.092,12.478 -12.025,16.265c2.094,6.148 4.88,13.031 7.485,19.109l0,0c3.989,9.309 7.554,16.729 7.554,16.729c0,0 -73.634,12.057 -223.916,-5.598l14.473,-36.61c-9.814,-20.153 -11.166,-46.047 -6.683,-75.558c-2.04,-6.847 -3.329,-14.232 -3.21,-21.838c-0.663,0.027 -1.328,0.056 -1.996,0.088c0,0 -3.433,-7.902 -2.411,-22.198c-1.8,0.125 -2.756,0.237 -2.756,0.237c-3.998,-48.695 40.767,-83.897 54.838,-93.699c5.18,-5.234 10.856,-10.606 17.073,-16.106c0,0 4.532,1.359 11.984,4.685Z" style="fill:#fff;stroke:#fff;stroke-width:30px;"/></g></svg>